<svg xmlns="http://www.w3.org/2000/svg" viewBox="0 0 1680 1201"><g fill="none"><g transform="translate(240.6 240.6)"><circle cx="120" cy="120" r="120" fill="#d33367"/><circle cx="121" cy="121" r="70" fill="#2d374c"/><circle cx="121" cy="121" r="37" fill="#36868e"/></g><g transform="translate(720 240.6)"><circle cx="120" cy="120" r="120" fill="#ff8b61"/><circle cx="121" cy="121" r="70" fill="#2d374c"/><circle cx="121" cy="121" r="37" fill="#f1e3cf"/></g><g transform="matrix(1 0 0 -1 1200 960.6)"><circle cx="120" cy="120" r="120" fill="#ff8b61"/><circle cx="121" cy="121" r="70" fill="#2d374c"/><circle cx="121" cy="121" r="37" fill="#f1e3cf"/></g><path fill="#d33367" d="M1081.769 421.337c0 32.567 26.4 58.968 58.968 58.968 32.567 0 58.968-26.4 58.968-58.968 0-32.567-26.4-58.968-58.968-58.968-32.567 0-58.968 26.4-58.968 58.968z"/><path fill="#ff8b61" d="M960.295 421.337c0 32.567 26.4 58.968 58.968 58.968 32.567 0 58.968-26.4 58.968-58.968 0-32.567-26.4-58.968-58.968-58.968-32.567 0-58.968 26.4-58.968 58.968zm121.474-119.115c0 32.567 26.4 58.968 58.968 58.968 32.567 0 58.968-26.401 58.968-58.968 0-32.568-26.4-58.968-58.968-58.968-32.567 0-58.968 26.4-58.968 58.968z"/><path fill="#36868e" d="M960 240.6v60.147c0 33.219 27.06 60.148 60.442 60.148 33.382 0 60.443-26.93 60.443-60.148s-27.061-60.147-60.443-60.147z"/><path fill="#f1e3cf" d="M1381.2 299.4h-123v123h123z"/><path fill="#36868e" d="M1319.397 307.741l-53.033 53.033 53.033 53.034 53.033-53.034z"/><path fill="#d33367" d="M1417.002 263.598h-72.53c0 40.057 32.473 72.53 72.53 72.53zm0 194.004v-72.53c-40.057 0-72.53 32.473-72.53 72.53zm-192.235 0h72.53c0-40.057-32.473-72.53-72.53-72.53zm0-194.004v72.53c40.057 0 72.53-32.473 72.53-72.53z"/><path fill="#2d374c" d="M1560.753 994.731l-85.56 85.56 85.56 85.56 85.56-85.56z"/><path fill="#36868e" d="M1591.4 1049.8h-61v61h61z"/><path fill="#f1e3cf" d="M1080 240.6c66.274 0 120-53.726 120-120S1146.274.6 1080 .6H960v120c0 66.274 53.726 120 120 120z"/><path fill="#2d374c" d="M1031.759 144.118c39.631 0 71.759-32.128 71.759-71.76 0-39.63-32.128-71.758-71.76-71.758H960v71.759c0 39.631 32.128 71.759 71.759 71.759z"/><path fill="#36868e" d="M1080 195.072c40.464 0 73.266-32.802 73.266-73.266 0-40.464-32.802-73.266-73.266-73.266-40.464 0-73.266 32.802-73.266 73.266 0 40.464 32.802 73.266 73.266 73.266z"/><path fill="#2d374c" d="M1080 164.695c23.687 0 42.89-19.202 42.89-42.889s-19.203-42.89-42.89-42.89-42.89 19.203-42.89 42.89 19.203 42.89 42.89 42.89z"/><path fill="#36868e" d="M1200 121.203V240.6h119.397c66.607 0 120.603-53.996 120.603-120.603V.6h-119.397C1253.996.6 1200 54.596 1200 121.203z"/><path fill="#2d374c" d="M1251.86 120.6c0 38.965 31.587 70.553 70.552 70.553s70.553-31.588 70.553-70.553V50.047h-70.553c-38.965 0-70.553 31.588-70.553 70.553z"/><path fill="#ff8b61" d="M1200 193.203v48h48c39.765 0 72-32.235 72-72v-48h-48c-39.765 0-72 32.236-72 72z"/><path fill="#d33367" d="M1680 121.203V240.6h-119.397c-66.607 0-120.603-53.996-120.603-120.603V.6h119.397C1626.004.6 1680 54.596 1680 121.203z"/><path fill="#2d374c" d="M1628.14 120.6c0 38.965-31.587 70.553-70.552 70.553s-70.553-31.588-70.553-70.553V50.047h70.553c38.965 0 70.553 31.588 70.553 70.553z"/><path fill="#ff8b61" d="M1680 193.203v48h-48c-39.765 0-72-32.235-72-72v-48h48c39.765 0 72 32.236 72 72z"/><path fill="#f1e3cf" d="M1560 720.6c-66.274 0-120 53.726-120 120s53.726 120 120 120h120v-120c0-66.274-53.726-120-120-120z"/><path fill="#d33367" d="M1608.241 817.082c-39.631 0-71.759 32.128-71.759 71.76 0 39.63 32.128 71.758 71.76 71.758H1680v-71.759c0-39.631-32.128-71.759-71.759-71.759z"/><path fill="#36868e" d="M1560 766.128c-40.464 0-73.266 32.802-73.266 73.266 0 40.464 32.802 73.266 73.266 73.266 40.464 0 73.266-32.802 73.266-73.266 0-40.464-32.802-73.266-73.266-73.266z"/><path fill="#2d374c" d="M1560 796.505c-23.687 0-42.89 19.202-42.89 42.889s19.203 42.89 42.89 42.89 42.89-19.203 42.89-42.89-19.203-42.89-42.89-42.89z"/><g transform="translate(240 480.6)"><ellipse cx="120" cy="120" fill="#f1e3cf" rx="101" ry="101"/><path fill="#d33367" d="M240 0c0 65.948-53.33 119.409-119.115 119.409C120.885 53.46 174.215 0 240 0z"/><path fill="#36868e" d="M119.115 115.93v3.479h-3.469C51.776 119.409 0 67.505 0 3.478V0h3.47c63.869 0 115.645 51.904 115.645 115.93z"/><path fill="#d33367" d="M115.646 120.591h3.47v3.478C119.115 188.096 67.338 240 3.468 240H0v-3.478c0-64.027 51.777-115.93 115.646-115.93z"/><path fill="#36868e" d="M240 236.522V240h-3.47c-63.869 0-115.645-51.904-115.645-115.93v-3.479h3.469c63.87 0 115.646 51.904 115.646 115.931z"/></g><g transform="translate(960 480.6)"><circle cx="120" cy="119" r="101" fill="#f1e3cf"/><path fill="#d33367" d="M116.505 240C52.16 240 0 187.839 0 123.495V120h3.495C67.84 120 120 172.161 120 236.505V240z"/><path fill="#36868e" d="M236.505 120H240v3.495C240 187.84 187.839 240 123.495 240H120v-3.495C120 172.16 172.161 120 236.505 120z"/><path fill="#d33367" d="M123.495 120H120v-3.495C120 52.16 172.161 0 236.505 0H240v3.495C240 67.84 187.839 120 123.495 120z"/><path fill="#36868e" d="M3.495 0C67.84 0 120 52.161 120 116.505V120h-3.495C52.16 120 0 67.839 0 3.495V0z"/></g><g transform="rotate(90 -240.3 480.3)"><circle cx="120" cy="119" r="101" fill="#f1e3cf"/><path fill="#d33367" d="M116.505 240C52.16 240 0 187.839 0 123.495V120h3.495C67.84 120 120 172.161 120 236.505V240z"/><path fill="#36868e" d="M236.505 120H240v3.495C240 187.84 187.839 240 123.495 240H120v-3.495C120 172.16 172.161 120 236.505 120z"/><path fill="#d33367" d="M123.495 120H120v-3.495C120 52.16 172.161 0 236.505 0H240v3.495C240 67.84 187.839 120 123.495 120z"/><path fill="#36868e" d="M3.495 0C67.84 0 120 52.161 120 116.505V120h-3.495C52.16 120 0 67.839 0 3.495V0z"/></g><path fill="#d33367" d="M720 .6v240H480C480 108.052 587.452.6 720 .6z"/><path fill="#f1e3cf" d="M720 104.384V240.6H583.448c0-75.23 61.137-136.216 136.552-136.216z"/><path fill="#2d374c" d="M720 178.094V240.6h-62.66c0-34.521 28.054-62.506 62.66-62.506z"/><path fill="#d33367" d="M1680 720.6h-240v-240c132.548 0 240 107.452 240 240z"/><path fill="#f1e3cf" d="M1576.216 720.6H1440V584.048c75.23 0 136.216 61.137 136.216 136.552z"/><path fill="#2d374c" d="M1502.506 720.6H1440v-62.66c34.521 0 62.506 28.054 62.506 62.66z"/><path fill="#36868e" d="M0 720.6v-240h240c0 132.548-107.452 240-240 240z"/><path fill="#f1e3cf" d="M0 617.152V480.6h136.216c0 75.415-60.986 136.552-136.216 136.552z"/><path fill="#2d374c" d="M0 543.26V480.6h62.506c0 34.606-27.985 62.66-62.506 62.66z"/><path fill="#36868e" d="M1440 480.6v240h-240c0-132.548 107.452-240 240-240z"/><path fill="#f1e3cf" d="M1440 584.048V720.6h-136.216c0-75.415 60.986-136.552 136.216-136.552z"/><path fill="#2d374c" d="M1440 657.94v62.66h-62.506c0-34.606 27.985-62.66 62.506-62.66z"/><path fill="#36868e" d="M120.6.6c66.274 0 120 53.726 120 120s-53.726 120-120 120-120-53.726-120-120S54.326.6 120.6.6z"/><path fill="#f1e3cf" d="M121.19 48.954c39.894 0 72.236 32.34 72.236 72.236 0 39.894-32.342 72.236-72.236 72.236-39.895 0-72.236-32.342-72.236-72.236 0-39.895 32.34-72.236 72.236-72.236z"/><path fill="#2d374c" d="M122.369 83.745c21.332 0 38.624 17.293 38.624 38.624 0 21.332-17.292 38.624-38.624 38.624-21.331 0-38.624-17.292-38.624-38.624 0-21.331 17.293-38.624 38.624-38.624z"/><path fill="#d33367" d="M240.6 94.949V240.6H94.949c0-80.44 65.21-145.651 145.651-145.651z"/><path fill="#36868e" d="M1320 960.6c66.274 0 120 53.726 120 120s-53.726 120-120 120-120-53.726-120-120 53.726-120 120-120z"/><path fill="#f1e3cf" d="M1320.59 1008.954c39.894 0 72.236 32.34 72.236 72.236 0 39.894-32.342 72.236-72.236 72.236-39.895 0-72.236-32.342-72.236-72.236 0-39.895 32.34-72.236 72.236-72.236z"/><path fill="#2d374c" d="M1321.769 1043.745c21.332 0 38.624 17.293 38.624 38.624 0 21.332-17.292 38.624-38.624 38.624-21.331 0-38.624-17.292-38.624-38.624 0-21.331 17.293-38.624 38.624-38.624z"/><path fill="#d33367" d="M1440 1054.949V1200.6h-145.651c0-80.44 65.21-145.651 145.651-145.651z"/><path fill="#ff8b61" d="M299.568 117.936c-32.567 0-58.968-26.4-58.968-58.968C240.6 26.401 267 0 299.568 0c32.567 0 58.968 26.4 58.968 58.968 0 32.567-26.4 58.968-58.968 58.968z"/><path fill="#d33367" d="M299.568 240c-32.567 0-58.968-26.4-58.968-58.968 0-32.567 26.4-58.968 58.968-58.968 32.567 0 58.968 26.4 58.968 58.968 0 32.567-26.4 58.968-58.968 58.968zm119.705-122.064c-32.567 0-58.968-26.4-58.968-58.968C360.305 26.401 386.706 0 419.273 0c32.567 0 58.968 26.4 58.968 58.968 0 32.567-26.4 58.968-58.968 58.968z"/><path fill="#36868e" d="M480.6 240h-60.442c-33.382 0-60.443-27.06-60.443-60.442 0-33.382 27.061-60.443 60.443-60.443 33.381 0 60.442 27.061 60.442 60.443z"/><path fill="#d33367" d="M601.769 779.863c0-32.567 26.4-58.968 58.968-58.968 32.567 0 58.968 26.4 58.968 58.968 0 32.567-26.4 58.968-58.968 58.968-32.567 0-58.968-26.4-58.968-58.968z"/><path fill="#ff8b61" d="M480.295 779.863c0-32.567 26.4-58.968 58.968-58.968 32.567 0 58.968 26.4 58.968 58.968 0 32.567-26.4 58.968-58.968 58.968-32.567 0-58.968-26.4-58.968-58.968zm121.474 119.115c0-32.567 26.4-58.968 58.968-58.968 32.567 0 58.968 26.401 58.968 58.968 0 32.568-26.4 58.968-58.968 58.968-32.567 0-58.968-26.4-58.968-58.968z"/><path fill="#36868e" d="M480 960.6v-60.147c0-33.219 27.06-60.148 60.442-60.148 33.382 0 60.443 26.93 60.443 60.148S573.824 960.6 540.442 960.6z"/><path fill="#d33367" d="M58.968 1078.536c-32.567 0-58.968-26.4-58.968-58.968C0 987.001 26.4 960.6 58.968 960.6c32.567 0 58.968 26.4 58.968 58.968 0 32.567-26.4 58.968-58.968 58.968z"/><path fill="#ff8b61" d="M58.968 1200.6C26.401 1200.6 0 1174.2 0 1141.632c0-32.567 26.4-58.968 58.968-58.968 32.567 0 58.968 26.4 58.968 58.968 0 32.567-26.4 58.968-58.968 58.968zm119.705-122.064c-32.567 0-58.968-26.4-58.968-58.968 0-32.567 26.401-58.968 58.968-58.968 32.567 0 58.968 26.4 58.968 58.968 0 32.567-26.4 58.968-58.968 58.968z"/><path fill="#36868e" d="M240 1200.6h-60.442c-33.382 0-60.443-27.06-60.443-60.442 0-33.382 27.061-60.443 60.443-60.443 33.381 0 60.442 27.061 60.442 60.443z"/><path fill="#f1e3cf" d="M901.2 901.8h-123v-123h123z"/><path fill="#36868e" d="M839.397 893.459l-53.033-53.033 53.033-53.034 53.033 53.034z"/><path fill="#d33367" d="M937.002 937.602h-72.53c0-40.057 32.473-72.53 72.53-72.53zm0-194.004v72.53c-40.057 0-72.53-32.473-72.53-72.53zm-192.235 0h72.53c0 40.057-32.473 72.53-72.53 72.53zm0 194.004v-72.53c40.057 0 72.53 32.473 72.53 72.53z"/><path fill="#ff8b61" d="M120.753 446.468l-85.56-85.56 85.56-85.56 85.56 85.56z"/><path fill="#f1e3cf" d="M120.753 404.042L77.62 360.908l43.133-43.133 43.134 43.133zM828.2 110.6h-75v-75h75zm0 94h-75v-75h75zm97-94h-75v-75h75zm0 94h-75v-75h75z"/><path fill="#2d374c" d="M808.2 89.6h-35v-35h35zm0 94h-35v-35h35zm96-94h-35v-35h35zm0 94h-35v-35h35zM601.353 686.469l-85.56-85.56 85.56-85.56 85.56 85.56z"/><path fill="#36868e" d="M632 631.4h-61v-61h61z"/><path fill="#f1e3cf" d="M600 960.6c66.274 0 120 53.726 120 120s-53.726 120-120 120H480v-120c0-66.274 53.726-120 120-120z"/><path fill="#2d374c" d="M551.759 1057.082c39.631 0 71.759 32.128 71.759 71.76 0 39.63-32.128 71.758-71.76 71.758H480v-71.759c0-39.631 32.128-71.759 71.759-71.759z"/><path fill="#36868e" d="M600 1006.128c40.464 0 73.266 32.802 73.266 73.266 0 40.464-32.802 73.266-73.266 73.266-40.464 0-73.266-32.802-73.266-73.266 0-40.464 32.802-73.266 73.266-73.266z"/><path fill="#2d374c" d="M600 1036.505c23.687 0 42.89 19.202 42.89 42.889s-19.203 42.89-42.89 42.89-42.89-19.203-42.89-42.89 19.203-42.89 42.89-42.89z"/><path fill="#36868e" d="M360 720.6h120v120c0 66.274-53.726 120-120 120H240v-120c0-66.274 53.726-120 120-120z"/><path fill="#2d374c" d="M360 772.46c38.965 0 70.553 31.587 70.553 70.552S398.965 913.565 360 913.565h-70.553v-70.553c0-38.965 31.588-70.553 70.553-70.553z"/><path fill="#f1e3cf" d="M432.603 720.6h48v48c0 39.765-32.235 72-72 72h-48v-48c0-39.765 32.236-72 72-72z"/><path fill="#36868e" d="M720 1079.997V960.6h119.397c66.607 0 120.603 53.996 120.603 120.603V1200.6H840.603c-66.607 0-120.603-53.996-120.603-120.603z"/><path fill="#2d374c" d="M771.86 1080.6c0-38.965 31.587-70.553 70.552-70.553s70.553 31.588 70.553 70.553v70.553h-70.553c-38.965 0-70.553-31.588-70.553-70.553z"/><path fill="#ff8b61" d="M720 1007.997v-48h48c39.765 0 72 32.235 72 72v48h-48c-39.765 0-72-32.236-72-72z"/><path fill="#f1e3cf" d="M840 720.6c-66.274 0-120-53.726-120-120s53.726-120 120-120h120v120c0 66.274-53.726 120-120 120z"/><path fill="#d33367" d="M888.241 624.118c-39.631 0-71.759-32.128-71.759-71.76 0-39.63 32.128-71.758 71.76-71.758H960v71.759c0 39.631-32.128 71.759-71.759 71.759z"/><path fill="#36868e" d="M840 675.072c-40.464 0-73.266-32.802-73.266-73.266 0-40.464 32.802-73.266 73.266-73.266 40.464 0 73.266 32.802 73.266 73.266 0 40.464-32.802 73.266-73.266 73.266z"/><path fill="#2d374c" d="M840 644.695c-23.687 0-42.89-19.202-42.89-42.889s19.203-42.89 42.89-42.89 42.89 19.203 42.89 42.89-19.203 42.89-42.89 42.89z"/><g transform="translate(1440 240.6)"><ellipse cx="120" cy="120" fill="#f1e3cf" rx="101" ry="101"/><path fill="#d33367" d="M240 0c0 65.948-53.33 119.409-119.115 119.409C120.885 53.46 174.215 0 240 0z"/><path fill="#36868e" d="M119.115 115.93v3.479h-3.469C51.776 119.409 0 67.505 0 3.478V0h3.47c63.869 0 115.645 51.904 115.645 115.93z"/><path fill="#d33367" d="M115.646 120.591h3.47v3.478C119.115 188.096 67.338 240 3.468 240H0v-3.478c0-64.027 51.777-115.93 115.646-115.93z"/><path fill="#36868e" d="M240 236.522V240h-3.47c-63.869 0-115.645-51.904-115.645-115.93v-3.479h3.469c63.87 0 115.646 51.904 115.646 115.931z"/></g><path fill="#ff8b61" d="M661 240.6l-61 61-61-61z"/><path fill="#36868e" d="M720 480.6H480l240-240z"/><path fill="#f1e3cf" d="M720 480.6H480v-240z"/><path fill="#36868e" d="M299 1200.6l61-61 61 61z"/><path fill="#f1e3cf" d="M240 960.6h240l-240 240z"/><path fill="#d33367" d="M240 960.6h240v240z"/><path fill="#ff8b61" d="M1019.6 961l61-61 61 61z"/><path fill="#36868e" d="M960.6 720.6h240l-240 240z"/><path fill="#f1e3cf" d="M960.6 720.6h240v240z"/><path fill="#ff8b61" d="M1141.6 960.6l-61 61-61-61z"/><path fill="#36868e" d="M1200.6 1200.6h-240l240-240z"/><path fill="#f1e3cf" d="M1200.6 1200.6h-240v-240z"/></g></svg>