<svg viewBox="0 0 882 812" fill="none" xmlns="http://www.w3.org/2000/svg"><g opacity=".7"><path d="M209 366l-18 6 17.7-11.2-.5-5.2-9.6 1.9 9-5.6a257 257 0 00-13-47.3l-35.3 13.6 33.8-17.8c-8.9-23-20.7-46.1-33.6-62.1l-19 13.4 15.2-18c-11.7-13-24-19.6-35.6-14.5-14 6.3-18.1 36.4-13.8 72.8l9.5-.2-9.3 1.8c2 16 5.6 33 10.6 49.7l36.3-12.3-34.6 17.5a221.4 221.4 0 0031.4 64.2l14.3-14.2-11.6 17.7a75.5 75.5 0 0038 27.5s20.2-33.9 18.2-77.7z" fill="#03673D"/><path d="M193 443.7s20.1-33.9 18.1-77.7l-18.1 6 17.8-11.2-.5-5.2-9.6 1.9 9-5.6a257 257 0 00-13-47.3l-35.3 13.6 33.8-17.7c-9-23-20.7-46.2-33.6-62.2l-19 13.4 15.2-18c-11.7-13-24-19.6-35.6-14.5 0 0 52.6 125.6 69.8 224.2l1 .3z" fill="#04AD66"/><path d="M181.7 471.3l-13.5 3.1 12.3-6.6c-1.3-3.6-2.8-7.4-4.6-11.3-3.7-8-9-17.3-15.2-26.3l-12 9.2 8.4-14.2c-18.7-25.3-43.3-45.9-55.4-25.9-5 8.2-5.3 21.3-1.9 36l27.5-1-26.5 4.9c2.7 10 7.1 20.6 13 30.8l9.2-4.1-8 6.4a137.1 137.1 0 0022.4 28.7l18.9-20.6-16.3 23a85 85 0 0039.3 21.4s13.3-18.7 2.4-53.5z" fill="#10794D"/><path d="M178.3 524.5l1 .3s13.3-18.7 2.4-53.5l-13.4 3.1 12.2-6.6c-1.3-3.6-2.8-7.4-4.6-11.3-3.7-8-9-17.3-15.2-26.3l-12 9.2 8.4-14.2c-17.6-23.9-40.5-43.5-53.2-29 10.2 13.8 53 73.2 74.4 128.3z" fill="#04AD66"/><path d="M140.3 509.6c-7.4-7-20.8-15.8-36.3-23.7a579.6 579.6 0 00-15.6 23.6l10.7-26.1c-9.4-4.6-19.3-8.8-29-12.3l-5.4 25.3 2.5-26.3c-30.5-10.3-59-12.6-62.6 7.5-1 5.5 1 11.7 5.1 18l28.6-1.7-24.6 7.2a170 170 0 0041 33.5L69.7 506l-12.1 30.4c18.1 11 38.6 20.8 57.5 27.6l2.8-12.2.3 13.3c3.6 1.3 7.2 2.4 10.7 3.5l1.5-6.2 1 7c17.4 4.8 32.1 6.3 40.6 2.8 0 0 6.7-26.4-31.6-62.5z" fill="#007248"/><path d="M245.4 320.6c18.2-45 43.2-54.4 53.4-53.5 17-2.2 17.9 27.3 16.2 42.4h-25.6l25.6 5a236 236 0 01-10 59.6l-31.8-6.2 31.8 10.6c-8 30.3-20.1 58.3-25.1 68.5l-32.3-15 30.6 18.4-3.9 6.7-8.9-1.7 7.8 3.9a79 79 0 01-50.7 41.8c-9.3-11.2-12-32.5-12.2-41.8l16.7-4h-16.7c-1.8-16 3.7-43.7 6.6-55.6l12.9 5.6-12.3-8.4 1.7-5.6 27.3 8.4-25.1-15.6c2.7-15.6 15.6-46.2 21.7-59.6l17.3 2.2-15-6.1z" fill="#096B42"/><path d="M273.5 460.2a82.2 82.2 0 01-50.8 42C239.3 387.8 283.2 298 303 267.4c13.7 2.5 14 29.7 12.5 43l-25.4-1 25.4 4.6c-1.7 27.4-7 51.9-9.4 60.7l-34.2-7.3 32.7 11c-7.9 34-19.9 60-25 68.9l-31.5-15.6 30.6 18.7-4.2 7.2-8.8-2 7.8 4.6z" fill="#0EA867"/><path fill-rule="evenodd" clip-rule="evenodd" d="M205.6 662.2h-.7.7a.7.7 0 01-1.3 0c-2.6-43-19.6-76-41.6-101.1A253.1 253.1 0 0090 507.2a366.7 366.7 0 00-39.5-16.6l-4.7-1.7c-15.2-5-29-8.5-40.6-11v-.3l.1-.5c3.6-19.3 32-17 62.3-7l-2.4 24.6 5.2-23.7c9.8 3.3 19.6 7.4 28.9 11.8l-9.5 22.8 1 .5a980 980 0 0114-20.8 173.4 173.4 0 0136.7 23.4c38.6 35.7 31.9 61.7 31.9 61.7l-1.2.4a164 164 0 0132.5 81.5c.2-5.8.5-14 .6-24.4.2-21.5-.1-51.8-2.5-87-4.8-70.3-17.7-160-50.3-238a.7.7 0 011.2-.5c32.7 78 45.7 168 50.4 238.5a1109.2 1109.2 0 011.4 121V662.2z" fill="#128E5A"/><path d="M131.5 435.1s73.4 102.5 73.4 227C216 444.6 272.4 326 272.4 326" stroke="#014D2D" stroke-miterlimit="10" stroke-linecap="round" stroke-linejoin="round"/><path d="M229 627.7h-59s-15.8 125.5 35.1 140c51 14.6 23.8-140 23.8-140z" fill="#F52D29"/><path d="M239.3 627.7H184s-12.5 125.5 27.6 140c63.9 7.2 27.6-140 27.6-140z" fill="#F80700"/></g><g opacity=".8"><path d="M251.8 40.2h-19V115h19v-75z" fill="#FF1F55"/><path d="M274.3 40.2h-19V115h19v-75z" fill="#FFC702"/><path d="M288.4 41.5l-16.1 10.1 39.9 63.5 16.1-10.1-39.9-63.5z" fill="#3D99EE"/><path d="M437 131.6H231.5a16.5 16.5 0 01-16.5-16.5h238.5a16.5 16.5 0 01-16.5 16.5z" fill="#6F2A1A"/><path d="M440.9 43h-91V115h91V43z" fill="#BDD8F5"/><path d="M434.8 50H356v58h78.8V50z" fill="#FB4C47"/><path d="M395.4 97.6a18.6 18.6 0 100-37.2 18.6 18.6 0 000 37.2z" fill="#FFC700"/><path d="M417.9 108H356V80.2c10.7-.4 26.5 1 41.4 9.5 8 4.6 15 10.8 20.5 18.3z" fill="#1DB776"/><path d="M434.8 69.9V108h-49.6a79.3 79.3 0 0112.2-18.3 58.7 58.7 0 0137.4-19.8z" fill="#11915B"/><path d="M263.2 146h-14.8l2-30.9h10.8l2 30.9zM420 146h-14.7l2-30.9H418l2 30.9z" fill="#592A3C"/><path d="M732 99H520.4V0h211.4v99zm-202.5-9.1H723V9H529.5v80.8z" fill="#925C50"/><path d="M722.9 9H529.5V90H723V9z" fill="#fff"/><path d="M572.5 68.8a30.3 30.3 0 10-13.8-59 30.3 30.3 0 0013.8 59z" fill="#FFC700"/><path d="M529.5 64.3L587 38.7a27.5 27.5 0 0128.2 3.5L676 89.9H529.5V64.3z" fill="#11915B"/><path d="M629.9 53.7l43.3-14.3a27.6 27.6 0 0127.1 5.7l22.5 20.4V90H676l-46.1-36.2z" fill="#1DB776"/></g><path d="M778.3 286.8v412.1" stroke="#925D51" stroke-width="5.8" stroke-miterlimit="10"/><path d="M698 285.3s70.1 29.8 160-3.5l-48.5-110.2-72-1.7L698 285.3z" fill="#AC6352"/><path d="M828.5 214.8c-28.3 32-74.2 45.5-122.3 46.6l-8.2 24s70.1 29.7 160-3.6l-29.5-67z" fill="#984B39"/><rect x="154.7" y="762.3" width="726.4" height="16.9" rx="8.5" fill="#925D51"/><path fill-rule="evenodd" clip-rule="evenodd" d="M518.5 393.7a16 16 0 00-2.4-.2H331.3c-12.7 0-23 0-23 46.8v251c0-6.3 3.2-4.5 8.3-1.7 4 2.2 9.2 5 14.9 5H516c1.7 0 3.5-.3 5.1-.7h180.9a57 57 0 0020.6-5c7.1-2.8 11.7-4.5 11.7 1.7V440.3c0-46.6-14.4-46.6-32.1-46.6H518.5z" fill="#F5C827"/><path d="M323 524.2V691c0-12 9.4 3.4 21 3.4h165.7c8.4 0 15.6-8.1 19-8v4.6c0-2.3.3-3.6.9-4.2.6.6 1 2 1 4.2v-4.5c3.2-.2 10.4 8 18.7 8h164.2c11.4 0 20.6-15.5 20.6-3.5V424.1v-7.6L323 524.2z" fill="#DCB21D" opacity=".7"/><path d="M341.5 648.1c0 17-9.7 30.6-21.6 30.6h-47.5c-12 0-21.6-13.7-21.6-30.6V538c0-17 9.7-30.7 21.6-30.7h47.5c12 0 21.6 13.7 21.6 30.7V648z" fill="#EBAFB2"/><path d="M361.3 660.3c0 18.4-14 33.3-31.4 33.3h-69c-17.2 0-31.3-14.9-31.3-33.3V540.4c0-18.4 14-33.3 31.4-33.3h69c17.2 0 31.3 15 31.3 33.3v120zM845.1 660.6c0 18.5-13.8 33.4-30.9 33.4h-68c-17 0-30.9-15-30.9-33.4V540.3c0-18.4 13.8-33.4 31-33.4h67.9c17 0 30.9 15 30.9 33.4v120.3z" fill="#CAA41E"/><path d="M280.8 801.4c0 5.9-3.8 10.6-8.5 10.6s-8.6-4.7-8.6-10.6v-36.6c0-5.8 3.9-10.6 8.6-10.6 4.7 0 8.5 4.8 8.5 10.6v36.6zM810.1 799.5c0 5.9-3.8 10.6-8.5 10.6s-8.5-4.7-8.5-10.6V763c0-5.8 3.8-10.6 8.5-10.6s8.5 4.8 8.5 10.6v36.6z" fill="#925D51"/><path d="M824.4 507.1h-24c-12 0-21.7 13.7-21.7 30.6V691H293.2V537.7c0-16.9-9.7-30.6-21.7-30.6h-24c-12 0-21.6 13.7-21.6 30.6v210c0 8.8 2.6 16.7 6.9 22.3 4 6 9.6 9.8 15.9 9.8l575.7-1.5c12 0 21.7-13.7 21.7-30.7V537.7c0-16.9-9.7-30.6-21.7-30.6z" fill="#F5C827"/><path d="M417 523.2h-88.5c-3.3 0-6 3.2-6 7.1v103.2c0 3.9 2.7 7 6 7H417c3.3 0 6-3.1 6-7V530.3c0-4-2.7-7.1-6-7.1zM759.1 534.4l-80.4-14c-3-.6-6 2.1-6.8 6l-17.8 101.8c-.6 4 1.3 7.5 4.4 8l80.4 14c3 .6 6-2.1 6.7-6l17.8-101.8c.7-3.9-1.2-7.5-4.3-8z" fill="#fff"/><path fill-rule="evenodd" clip-rule="evenodd" d="M750 714.4c16.3 0 29.5-14.8 29.5-33v-29.7c0-18.2-13.2-33-29.5-33H521.7c-1.7-.7-3.4-1-5.2-1H313.6c-11.6 0-21 15-21 33.3v30c0 18.4 9.4 33.4 21 33.4H750z" fill="#FFE792"/><path d="M465.7 344c-3-.2-5.8-1.6-7.9-3.8-5.4-5.8-13.2-19.4-2-43.3 20.6-44.7 96.3-38 114.3-5.6 12.9 23.1 25.6 27.7 18.7 34.7-6.6 6.7-85.4 21-123 18z" fill="#FF504A"/><path d="M599 612.5h-.2a741 741 0 01-49.6 5.9l-2.8.2a312.4 312.4 0 01-52.8-.3c-5.7-.6-11.4-1.3-17-2.4a23.6 23.6 0 01-19.2-27 411.5 411.5 0 004.4-38.4c.8-12.4 1-23.8 1.2-34.1v-2.6-1.2-1.7-1.2-2.4-7.7c0-7.9 0-15 .4-21.1v-.9l.2-3.8.2-3.6a438 438 0 00.2-17.2l-.2-7.3-.2-2.4a1002.5 1002.5 0 00-.5-6l-.1-1.1v-.3l-.2-1.5a293.3 293.3 0 01-.4-4.1l-1.3-13-.5-4.1a2305.5 2305.5 0 01-1.2-11c-2.5-21.4-4.8-42-4-48.5 1.5-11.2 56.1-41 56.1-41l32.8-1s46 18.5 54.6 29.7l.1.2c2 2.6 3.1 6.3 3.8 10.8.7 4 .9 8.6.8 13.8 0 3.7-.2 7.7-.4 12-.2 4.5-.6 9.2-1 14.2 0 1.5-.2 3-.3 4.4l-.4 4.6a1622.4 1622.4 0 00-.7 11.2l-.2 2.7a119.4 119.4 0 00-.2 3.4l-.1 1.7-.1 1.7-.2 3.3a200.5 200.5 0 00-.2 5V433l-.1 2.8v3a166.8 166.8 0 00-.1 4.4v1.5a468.6 468.6 0 00.1 11.8l.1 3.9a977.4 977.4 0 00.4 9.7v3.3l.3 4.1a131.8 131.8 0 001 13l.4 2.8.2 1.7.2 1.2.5 4.3.1.5.3 2.2.7 4.4.2 1.3 1.3 7.9.2 1.4.6 3.2a1061.9 1061.9 0 006.9 36.3l5.5 26.4c3 13.3-6 26.3-19.5 28.3z" fill="#fff"/><path d="M602.8 352.4a306.8 306.8 0 01-72.8 6.5c-27.2-.8-44.8-4.8-45.6-5l1.3-5.6 1.3-5.6c.4 0 17.7 3.9 43.6 4.6 17.5.5 41.8-.4 68.3-6l.1.3c2 2.6 3.1 6.3 3.8 10.8zM603.6 366.2c0 3.7-.2 7.7-.4 12a304.7 304.7 0 01-120.6.8l2.7-11.2c.1 0 17.5 4 43.5 5 19 .7 45.7 0 74.8-6.6zM602.2 392.4c0 1.5-.2 3-.3 4.4l-.4 4.6-.2 3a303.5 303.5 0 01-75.1 5.5c-27.1-1.3-44.7-5.6-45.4-5.8l2.8-11.2c.1 0 17.4 4.2 43.4 5.5 19 .9 46 .3 75.2-6zM600.4 418.7l-.1 1.7-.1 1.7a306 306 0 00-.4 8.2v.4a302.1 302.1 0 01-75.5 4.7c-27.1-1.6-44.6-6-45.4-6.2l3-11.2s4.5 1.1 12 2.4a294.7 294.7 0 00106.4-1.6zM480.1 443l-1.5 5.7 1.5-5.6zm119.6 10l-.1-8.2c-29.7 6-57 6-76.1 4.6-26-1.8-43-6.3-43.4-6.3l-1.5 5.6-1.5 5.5a313.3 313.3 0 00122.6 2.4V453zM600.8 482.4a297.7 297.7 0 01-80.3 4c-27-2-44.5-6.9-45.2-7l1.5-5.7 1.6-5.5c.3 0 17.4 4.7 43.3 6.8 19.6 1.5 47.8 1.7 78.5-4.3v2.8l.3 4.1.3 4.8zM604 507.7a294.2 294.2 0 01-85.5 4.3c-27-2.4-44.3-7.4-45-7.6l3.2-11.1c.1 0 17.2 4.9 43.2 7.2 20.4 1.8 50.1 2.3 82.4-4.2l.5 4.3.1.5.3 2.2.7 4.4zM608.2 532.9a289.7 289.7 0 01-91.6 4.6 259 259 0 01-45-8l3.3-11.1c.2 0 17.2 5 43.2 7.6 21.6 2.1 53.6 2.9 88-4.5l2.1 11.4zM613.1 557.8c-23 5.3-45 7.1-64 7.1a315.4 315.4 0 01-79.3-10.4l1.7-5.5 1.7-5.5c.3 0 17.2 5.2 43.1 8 23 2.5 57.6 3.6 94.5-5l2.3 11.3z" fill="#1DB776" fill-opacity=".6"/><path d="M524.9 597c1-47.8-7.1-103.4-7-151.1 0-42.9 3.2-85.4 3.1-128.2a55.4 55.4 0 00-14.6 2.5s-9.7 8.4-41.5 18.7c-30 9.8-24.4 120.5-22.6 182.4 1.8 62 1 101.3 60 108.8l16.3 1.9c0-14.2 6-20.9 6.3-35z" fill="#FB4C47"/><path d="M461 471a1.4 1.4 0 01-.3-2.7c.7-.2 18.4-4.2 24.5-25.4a1.4 1.4 0 112.6.8A37.8 37.8 0 01461 471zM512.4 587.5a1 1 0 01-1.1-1c-4.7-85.5-8.5-169-2.7-251.6 0-.6.6-1 1.2-1s1 .6 1 1.2c-5.8 82.3-2 165.8 2.7 251.3a1 1 0 01-1 1.1h-.1z" fill="#B63A37"/><path d="M627.1 382.3c1.5-44.1-19.8-55.8-62.2-62.1l-.5-.1c-.7 7.3-.4 14.7 0 22 .8 11.6 2.2 23.2 2.6 34.8 2 48.6 6.8 81.7 2.9 145.5-3 48 4.7 73.1 6 109.5 24.1-3.7 43-13.5 54.7-33.4 21.9-37.3-4.9-172.1-3.5-216.2z" fill="#FB4C47"/><path d="M622.2 469.5h-.4c-.2 0-28.4-7-33.2-48a1.4 1.4 0 112.7-.3c4.6 39 30.9 45.6 31.2 45.6a1.4 1.4 0 01-.3 2.7zM579.2 579.7a1 1 0 01-1.1-1c-2-12-1.2-44.4-.5-75.7.6-23.8 1.1-46.3.5-59.9-2.1-45.9-8.4-110-8.4-110.6a1 1 0 012.1-.2c0 .6 6.4 64.8 8.4 110.7.7 13.6.1 36.2-.4 60-.8 31.3-1.5 63.5.4 75.4a1 1 0 01-1 1.3z" fill="#B63A37"/><path d="M540.6 219l-20.8 7.6s-6.3 8.6-14.5 6.8c-3.3-.7-6.9-3-10.5-8.4-12.7-18.4 18-44 36.4-39.7 9 2.1 11.4 10.3 11.6 18 .1 8-2.2 15.7-2.2 15.7z" fill="#002014"/><path d="M540.6 219l-20.8 7.6s-6.3 8.6-14.5 6.8c0-9.5 13.4-27 37.5-30 .1 8-2.2 15.6-2.2 15.6z" fill="#FFD339"/><path d="M540.3 182.1c-.4 0-.8 0-1.3.2-1 .2-1.7.7-2.2 1.6-1.8 4 2.1 13.7 5 19.4 1.7-6.3 3.8-16.9.8-20.2a3 3 0 00-2.3-1zm1.8 26c-.5 0-1-.3-1.2-.7-1-1.8-9.6-17.7-6.4-24.6a5.5 5.5 0 014-3.1c3.3-.6 5.1.5 6 1.7 5.2 5.7-.5 23.8-1.2 25.8a1.3 1.3 0 01-1.2.9z" fill="#FFD339"/><path d="M557.9 188.6h-.4c-4.4.6-9.7 10-12.6 15.9 6-2.5 15.2-7.2 16.5-11.5.2-1 0-1.8-.6-2.7-1-1.2-1.9-1.7-2.9-1.7zm-15.5 19.6a1.3 1.3 0 01-1.2-1.8c.9-2 8.3-19.4 16-20.4 1.5-.2 3.6.1 5.6 2.7a5.5 5.5 0 011 5c-2 7.3-19 13.7-21 14.4h-.4z" fill="#FFD339"/><path d="M503.7 236.1c-4.5-.6-9.6-3-12.8-9.8-7.6-15.8 10.5-29.1 10.7-29.3a.8.8 0 011 1.4c-.2 0-17.2 12.6-10.2 27.2 6.2 13 20 8.4 20.5 8.2a.8.8 0 01.5 1.6s-4.5 1.5-9.7.7zM564.1 238.1s8.2 34.2-3.1 56.3c-11.3 22-22.7 28.1-6.4 35 16.2 6.8 34.6-6.2 47 .6 15 8.2-1.8-60.8-9.3-90-7.6-29.8-44-33.1-44-33.1l15.8 31.2z" fill="#002014"/><path d="M585.7 262.6s14.5-33.2-12.8-49c-27.2-15.6-54.8-3.8-62.1 14.3-7.3 18 3.9 29.9 3.9 29.9l71 4.8z" fill="#002014"/><path d="M539 333c7.8 2.1 11-1.4 13.4-4l1.6-14 1-8.3.1-1.2-3.6-.4-26.7-7.7-3.6 17-1.7 8c3.4 3.2 8 7.4 19.4 10.6z" fill="#FBB990"/><path d="M554 315c-8.3 3.7-24.6 2-32.8-.6l3.6-17 26.7 7.7 3.6.4-.2 1.2-1 8.2z" fill="#181818"/><path d="M575.8 262.9s15.8-4.7 12.7 9.3c-3.4 15.5-16 11-18.2 10l5.5-19.3z" fill="#FB9476"/><path d="M564.4 288.5a10.8 10.8 0 1014.7-8.4c-.8.2-1 .8-1 1.4a9 9 0 11-7.6.8c-.5-.4-.9-.8-1.2-1.3l-1.2.9c-2 1.6-3.3 3.9-3.7 6.6z" fill="#fff"/><path d="M577.6 277.7h-.1a.9.9 0 01-.7-1 14 14 0 017-9.3.9.9 0 01.7 1.6c-.1 0-4.4 2.1-6 8-.1.5-.5.8-1 .7z" fill="#FA7764"/><path d="M583.2 274.9a.9.9 0 01-.6-.4s-1-1.8-2.6-1.8a.9.9 0 110-1.7c2.5 0 4 2.5 4 2.6a.9.9 0 01-.8 1.3z" fill="#FA7764"/><path d="M584.5 261a92.3 92.3 0 01-7.2 22.7c-7 15-17 26-25 26.9a32.8 32.8 0 01-34.2-21.3 39.8 39.8 0 01-3.2-11.5c-2-17.2 2.3-41.7 2.3-41.7 10.4-15.5 32.8-11.4 45.8-9.2 13 2.1 26 8.5 21.5 34z" fill="#FFC29C"/><path d="M548.8 301.7c-2.8-.4-4.4-1.7-4.5-1.7a.9.9 0 011-1.4s1.5 1.1 4 1.4a10 10 0 004.1-.3c.5-.1 1 .1 1.1.6.2.4 0 .9-.5 1 0 0-2 .8-5 .4h-.2z" fill="#FB9476"/><path d="M500.4 466.8c-.5 0-1-.4-1.2-1-1.9-5.7-3.2-12.2-3.2-12.5a1.3 1.3 0 012.5-.5s1.4 6.6 3.2 12.2a1.3 1.3 0 01-1.3 1.8zM507.4 464.4c-.5 0-1-.3-1.2-.9-2-5.7-3.3-12.2-3.4-12.4a1.3 1.3 0 012.6-.6s1.4 6.6 3.3 12.2a1.3 1.3 0 01-1.3 1.7zM514.4 462c-.5 0-1-.3-1.2-.8a125 125 0 01-3.6-12.4 1.3 1.3 0 112.6-.6s1.5 6.6 3.4 12.1a1.3 1.3 0 01-1.2 1.8zM521.4 459.7c-.6 0-1-.3-1.2-.8-2.1-5.7-3.7-12.1-3.8-12.4a1.3 1.3 0 112.6-.6s1.6 6.5 3.6 12a1.3 1.3 0 01-1.2 1.8zM528.4 457.4c-.6 0-1-.3-1.3-.9-2.1-5.6-3.8-12-3.8-12.3a1.3 1.3 0 112.5-.6s1.7 6.5 3.8 12a1.3 1.3 0 01-1.2 1.8zM535.3 455c-.5 0-1-.3-1.2-.8-2.2-5.6-4-12-4-12.3a1.3 1.3 0 112.5-.6s1.8 6.5 4 12a1.3 1.3 0 01-1.3 1.7zM542.3 452.7c-.5 0-1-.3-1.2-.8-2.3-5.6-4.1-12-4.2-12.2a1.3 1.3 0 112.5-.7s1.9 6.4 4.1 11.9a1.3 1.3 0 01-1.2 1.8z" fill="#108A57"/><path d="M580 313.3a37.8 37.8 0 01-3.1 12.4 23 23 0 01-8.9 10s-20.3 8.7-44.2-2a66.4 66.4 0 01-7.8-4 31.3 31.3 0 01-15.8-25.3c-.5-5.8.4-11.2 1.6-15.3l.2-.8c1.2-4.2 2.5-7 2.5-7S510 279 517 278c2.7-.4 5.7-.7 8.6-.5 3.4.2 6.8.8 10 2.3 22.7 10.3 34.2 15 40.7 6a75 75 0 003.7 27.5z" fill="#0CAD69"/><path d="M578.9 296.4l-1 1.4c-3 3.6-8.5 7.8-19 7.8h-2c-10.1-.5-18-4.7-25.7-8.8-9.2-4.8-17.8-9.4-29.3-7l-.1-.7-.2-.8h.4c11.8-2.4 20.6 2.3 29.9 7.2 7.5 4 15.3 8 25.1 8.5 8.9.5 15.5-2 19.6-7 .8-1 1.4-2 1.8-2.8l.5 2.2zM577.9 323.3l-1 2.4a38.7 38.7 0 01-13.6 4.5c-3 .4-6.3.7-9.7.7-4.5 0-9.3-.4-14.5-1.2a155.9 155.9 0 01-28.9-7.3l.5-1.4c.2 0 13.3 5 28.7 7.2 12.2 1.8 28 2.2 38.5-4.9z" fill="#108E59"/><path d="M542 443l-46 15-1.5-7.2a503.7 503.7 0 01-6-33 508.4 508.4 0 01-3.5-30.2 249.8 249.8 0 01-.8-15.5 133.4 133.4 0 011.1-18.5 68.6 68.6 0 013.8-14c8.5-21.4 25.2-25.6 25.2-25.6 12.4 1.2 17.9 14.4 17.9 14.4a23 23 0 00-5.8 10l-.9 3.3a60.9 60.9 0 00-1.4 13.4 119.3 119.3 0 00.6 13.8 193.1 193.1 0 004.5 27.8 356.2 356.2 0 0010 37.5 508.9 508.9 0 002.8 8.8z" fill="#0CAD69"/><path d="M526.4 338.4l-.9 3.3c-8.1-1-22.9-2-37.7 1.6.4-1.3.8-2.6 1.3-3.7 7.4-1.6 14.5-2.2 20.3-2.2 7-.1 12.9.4 17 1zM524.2 351.7v3.4c-9.8-.5-25 0-39.6 4.7l.4-3.7a110 110 0 0139.2-4.4zM524.7 368.9c-10.4.2-26 1.5-40.4 6.7v-3.5a122.8 122.8 0 0140.1-6.6l.3 3.4zM526.5 382.8a149 149 0 00-41.2 8.3l-.3-3.5a151 151 0 0141-8.2l.5 3.4zM529.2 396.7a181.2 181.2 0 00-42.3 9.5l-.4-3.4c15-5.6 31.1-8.2 42-9.5l.7 3.4zM532.4 410.4c-11 1.8-28 5-43.3 10.8l-.5-3.4c15.3-5.6 32-8.9 43-10.6l.8 3.2zM536 424a334.4 334.4 0 00-44.4 12l-.6-3.3c16-5.7 33.4-9.7 44.2-12l.9 3.3zM540.1 437.4c-10.4 2.6-28.9 7.5-45.6 13.4l-.7-3.4a574.9 574.9 0 0145.3-13.2l1 3.2z" fill="#108E59"/><path d="M523.8 333.8a5.7 5.7 0 01-4.1-2c-8-8.6-10-42.2-10-42.2s3-7.3 7.2-11.6c2.7-.4 5.7-.7 8.6-.5.6 6.3 2.8 26.5 5.2 32 2.9 6.4 2.5 24.8-7 24.3z" fill="#128E5A"/><path d="M580 313.3c-11.6 9-36.8 3.8-59.8-3a93 93 0 00-19.8-3.7l-.2-2.2c10 .6 23.4 3.4 40 7.2 24.6 5.6 35.8-3.8 39.6-8.3.3 3.2.4 6.6.1 10z" fill="#108E59"/><path d="M563.3 267.7c-.4 2.5.4 4.6 1.7 4.8 1.4.2 2.8-1.6 3.2-4a7 7 0 000-2.6c2.3.4 3.4-1 3.4-1-1.6 0-3.7-.6-4.7-1l-.5-.2c-1.4-.2-2.8 1.6-3.1 4zM566.4 263.7z" fill="#181818"/><path d="M580 277c-.8 2.3-1.7 4.5-2.7 6.7l-3.5-.3c-5.4-.7-9.5-3.1-9.2-5.3.3-2.1 5-3.2 10.3-2.5 2 .3 3.7.8 5.2 1.4zM540.5 274c-.3 2.1-5 3.2-10.4 2.5-5.5-.8-9.7-3.2-9.4-5.4.4-2.1 5-3.3 10.5-2.5 5.4.8 9.6 3.2 9.3 5.3z" fill="#FD9B7E"/><path d="M518 260.2c.3-2-.6-4.1-2.3-5.3-4.1-3-9.7-4.8-12.5.7-5 10.2 4.2 24 12.3 22.1l2.5-17.5z" fill="#FBB990"/><path d="M519.7 277a8.7 8.7 0 01-2 1.4c-.8.5-1.7.9-2.5 1l-.3-1.6a8.5 8.5 0 004-2c.3-.3.7-.3 1 .1.1.4 0 .9-.2 1.2zM511.9 270.6a.9.9 0 01-.8-.8c.2-7-4.2-10.6-4.2-10.6a.9.9 0 011-1.4c.3.2 5.2 4.2 5 12 0 .5-.4.9-1 .8z" fill="#FB9476"/><path d="M506.4 265.8a.9.9 0 01-.4-1.5s2.5-2.1 5.2-1.4c.4.1.7.6.6 1-.1.5-.6.8-1 .6-1.9-.4-3.7 1-3.7 1.1-.2.2-.5.2-.7.2zM557 277zm-4.4 4.3a.9.9 0 01-.7-.8c0-.3.2-.7.5-.9 2.1-1 4.2-2.3 4.5-2.8l-1.8-10.1c-.1-.5.2-1 .6-1 .5 0 1 .2 1 .7l2 10.2c0 .5.3 1.8-5.6 4.6h-.5z" fill="#FB9476"/><path d="M541.7 264.5c-.3 2.4-1.7 4.3-3 4-1.4-.1-2.3-2.3-1.9-4.7.1-1 .4-1.8.8-2.5-2.4-.2-3-1.9-3-1.9 1.5.5 3.7.4 4.7.4h.6c1.3.1 2.2 2.3 1.8 4.7zM539.9 259.7h-.6.6z" fill="#181818"/><path d="M575.7 263.8a17.5 17.5 0 00-4.2-5.4 13 13 0 00-5.7-3 2 2 0 111.3-3.7 16.1 16.1 0 016.3 5 19.3 19.3 0 013.3 6.8.6.6 0 01-1 .4zM529.3 256.5a21 21 0 0110.5-7.6c1.5-.5 3-.7 4.6-.8a2 2 0 110 4h-.2a14.4 14.4 0 00-7.3.9 19.6 19.6 0 00-6.7 4.2.6.6 0 01-.9-.7z" fill="#111"/><path d="M528.4 234.2s16 21.8 53.2 20.7c20-.6 2.6-31.9-27.3-33.7-29.9-1.7-26 13-26 13z" fill="#002014"/><path d="M581.7 251.5s2.2 16.6-1.6 25.5c0 0 7.2-14.9 5-24.3-2.3-9.4-3.4-1.2-3.4-1.2z" fill="#181818"/><path d="M538.4 234.2s-17.8 30.3-13.5 54.8c4.4 24.4 10.7 44-6.8 45.7-17.4 1.8-28.9-5-44.4 1.2l-.5.2-1 .3c-2.8.3-3.3-3.2-2.3-9.2l1.6-7.2a525.3 525.3 0 0139.3-92.1c16-26.3 51.8-19 51.8-19l-24.2 25.3z" fill="#002014"/><path d="M506.8 238c-.2.4-9.2 17-18 34.9-7.1 14.5-14 29.9-15.9 37.9-.8 3.4-1.2 6.5-1.4 9.2a33 33 0 002.2 15.9l-.5.2-1 .3c-.8-1.6-1.9-4.6-2.3-9.2-.4-4.2-.2-9.8 1.4-16.8 4-18 32.8-70.9 34-73.1l.4-.4h.8c.4.3.5.8.3 1.2z" fill="#002014"/><path opacity=".4" d="M559.4 255s-19.3-6-24.8 15.3 13.5 30.9 25.6 28.5c12.1-2.3 20.1-40.2-.8-43.9z" fill="#FFC29C"/><path d="M540.1 252.7a13.1 13.1 0 100 26.3 13.1 13.1 0 000-26.3zm0 28a15 15 0 110-29.9 15 15 0 010 30zM573.2 259.4a13.1 13.1 0 100 26.3 13.1 13.1 0 000-26.3zm0 28a15 15 0 110-29.8 15 15 0 010 29.9z" fill="#fff"/><path d="M559.1 268.6c-1.6-2.4-4.5-1.4-4.6-1.3l-.6-1.7c1.5-.6 4.9-.9 6.8 2l-1.6 1z" fill="#fff"/><path d="M582.9 611.7c-4.2 3-9.9 12-19.8 15.1C507 644.7 454.5 610 454.5 610c-3-15.4-1.2-32.9 4-39.3-1.6-2.2-.5-5-.5-5L433.2 520c.6.4 38.8 24.5 67.1 41.6 8.2 5 15.6 9.3 21 12.3 8.1 4.6 18.6 5 28.9 3.7 20-2.8 39.1-12.7 39.1-12.7s47.9-28.2 60-27.2c9.3.8-24.6 52.5-66.4 74.1z" fill="#108E59"/><path d="M477 658.1l-7.9 1.6-4.6 1a701.6 701.6 0 00-11.9 2.6c-19.7 4.4-45.8 11.3-56.3 18l-2 1.3c-16.1 10.8-19.4 20-22.3 18.2-3.1-2-3.8-10 1.2-15.3 3.5-3.7 6-9 10.7-14.8 1.2-1.6 2.7-3.2 4.3-4.8 7.4-7 19.2-14.4 25.7-20l1.2-1c5.4-5 7.5-15.3 17.4-18.5a30 30 0 0116.2.6 59.7 59.7 0 0112.5 4.6 105 105 0 019 4.8l6.9 21.7z" fill="#fff"/><path d="M448.7 627c-5.9 7.6-19.3 22.2-34.8 18.9l1.2-1c5.4-5 7.5-15.3 17.4-18.5a30 30 0 0116.2.6zM394.2 682.6c-16 10.8-19.3 20-22.2 18.2-3.1-2-3.8-10 1.2-15.3 3.5-3.7 6-9 10.7-14.8 4 2.8 8.1 6.8 10.3 12zM469.1 659.7l-4.6 1c-2.9-5.4-4.4-11.9-4.3-19.3 0-3.7.5-7.1 1-9.8l4.2 2.1c-.4 2.3-.6 5-.7 7.8 0 5.9 1 12.5 4.4 18.2zM455.9 629.3a77 77 0 00-4.3-1.5c-1 2.8-2.3 7.4-2.9 12.8-1 8.8.4 16.5 4 22.7l4.5-1c-7.5-11.5-3.3-27-1.3-33z" fill="#80D7B2"/><path d="M713.2 574.9c-21 25.7-68.5 52-119.2 67.3a725.6 725.6 0 01-45.6 12.3 439 439 0 01-26.5 5.4c-29.1 4.9-39.8 2.8-39.8 2.8s-18-5.8-10.3-35c0 0 34-7.8 60.5-20.8a114.5 114.5 0 0017.9-10.8c24.5-18 45.5-42.4 100.8-64.5 0 0 28.9-17.6 52.1-9.7 3.5 1.2 6.8 2.9 9.8 5.2 16.8 13.3 14.6 30.4.3 47.8z" fill="#0CAD69"/><path d="M610 634.4l-11 1.5-66.7-29a114.8 114.8 0 0017.9-10.8l59.7 38.3zM548.4 654.5c-10.2 2.4-19 4.1-26.5 5.4-21.2-5.8-46.6-16.5-46.6-16.5l1.6-13.2 71.5 24.3zM713.2 574.9c-17.4-23.4-14-43-10-53 3.4 1.2 6.7 2.9 9.7 5.2 16.8 13.3 14.6 30.4.3 47.8z" fill="#108E59"/><path d="M474.7 636.5c17.7-3.5 54.2-18.4 97.5-39.9 32.5-16 70-36.7 75.7-44.2 3-4 3.9-7.4 2.6-10-2-4-8.3-4.6-11.2-4.7a1.3 1.3 0 000 2.6c2.7 0 7.6.7 8.9 3.2 1 2.1-.7 5.2-2.4 7.4-4.6 6-36 24.3-74.7 43.5-33.3 16.4-76.3 35.5-97 39.6l.6 2.5z" fill="#108E59"/><path d="M478.5 624.1a78.7 78.7 0 0013 41s-7.7 5-14.4 1c-5-3.3-14.1-27.9-9.7-40.6 4.5-2.2 8.3-3 11.1-1.4z" fill="#108E59"/><path d="M600.6 664.4a496.8 496.8 0 0024.1 6.7c19.4 5.8 45 14.3 55 21.7l2 1.5c15.3 11.8 18 21.3 21 19.6 3.3-1.8 4.5-9.8-.2-15.4-3.3-3.9-5.4-9.4-9.7-15.5a53.1 53.1 0 00-4-5c-6.9-7.6-18.2-15.6-24.3-21.7l-1.2-1.1c-5-5.3-6.5-15.7-16.1-19.5a30 30 0 00-16.2-.5 58.3 58.3 0 00-12.8 3.8l-4.3 1.8-5 2.4-8.3 21.2z" fill="#fff"/><path d="M631 635.2c5.3 8 17.8 23.4 33.5 21.1l-1.2-1.1c-5-5.3-6.5-15.7-16.1-19.5a30 30 0 00-16.2-.5zM681.7 694.3c15.3 11.8 18 21.3 21 19.6 3.3-1.8 4.5-9.8-.2-15.4-3.3-3.9-5.4-9.4-9.7-15.5a29.2 29.2 0 00-11 11.3zM608.5 666.5l4.5 1.3a38.7 38.7 0 005.5-19c.2-3.7 0-7-.3-9.8l-4.3 1.8c.2 2.3.3 5 .1 7.9a33.7 33.7 0 01-5.5 17.8zM620.2 669.8l4.5 1.3c4-5.9 5.8-13.5 5.4-22.3a61 61 0 00-2-13l-4.4 1.3c1.6 6 4.7 21.7-3.5 32.7z" fill="#80D7B2"/><path d="M606.3 634.9c5.8 29.6-12.6 34.2-12.6 34.2s-27.2 3.3-110.3-27.8c-48-18-92.1-46-112.5-72.2-15-19.3-17.2-37.7 1.4-50.4 4.3-3 9-4.7 14-5.4 23-3.6 50.2 11.8 50.2 11.8 56 26.7 42 35.9 88.6 65.6 26.7 17 81.2 44.2 81.2 44.2z" fill="#0CAD69"/><path d="M386.4 513.3c.9 10 2.4 43.5-15.5 55.8-15-19.3-17.2-37.7 1.4-50.4 4.3-3 9-4.7 14-5.4zM602.8 643.4c-17.4-4.7-52.9-22-94.7-46.2-31.3-18.1-67.4-41.2-72.6-49-2.8-4.3-3.4-7.7-2-10.2 2.3-3.8 8.6-4 11.5-4a1.3 1.3 0 010 2.6c-2.9 0-7.8.3-9.2 2.7-1.2 2 .3 5.2 1.8 7.5 4.2 6.3 34.4 26.6 71.7 48.2 32.2 18.7 73.8 40.5 94.2 45.9l-.7 2.5z" fill="#108E59"/><path d="M599.8 630.8a78.7 78.7 0 01-15.7 40s7.4 5.6 14.3 1.9c5.3-2.8 16-26.8 12.4-39.8-4.3-2.5-8-3.4-11-2.1z" fill="#108E59"/><path d="M683.6 512.7c-6.2 8-14.8 12.4-21.6 17-16.3 10.9-49.5 17.8-47-19.9 2.5-37.6 31-22.3 10-88.4-8.9-28.3-15-86.4-15-86.4s46.7 32.8 74.4 113.7a165 165 0 015 17.3c5.4 23.8 1.3 37.6-5.8 46.7z" fill="#FB4C47"/><path d="M683.6 512.7c-10.2-18.1-1.8-36 5.8-46.7 5.4 23.8 1.3 37.6-5.8 46.7zM615 516.6c-.6 0-1-.4-1.2-1 0-.2-1.6-7.9 1.5-18 2.9-9.4 10.4-22.7 30.2-33a1.1 1.1 0 111 2c-19 9.9-26.3 22.6-29 31.5-3 9.6-1.5 17-1.5 17.1a1.1 1.1 0 01-1 1.4z" fill="#B63A37"/><path d="M632 475.6h-.5c-.6-.3-1-1-.8-1.5 3.7-10.8 6-15.5 6.1-15.6a1.1 1.1 0 112 1s-2.4 4.7-6 15.3c0 .4-.5.7-.9.8z" fill="#B63A37"/><path d="M633.2 470.6c-.6 0-1.1-.5-1.1-1 0-22.1-29.5-72-29.8-72.5a1.1 1.1 0 112-1.1c1.2 2 30 50.9 30 73.5 0 .6-.5 1.1-1.1 1.1z" fill="#B63A37"/><path d="M612.3 414c-.2 0-.4 0-.6-.2a53.9 53.9 0 00-13.6-5.4 1.1 1.1 0 11.6-2.2c.4.2 10.2 2.7 14.3 5.8a1.1 1.1 0 01-.7 2z" fill="#B63A37"/><path d="M598.6 571.3l.6 5.8c.5 3.2 1.2 4.9 2.8 1.9.3-.7.6-1.6.8-2.6 1.4-5.8 1-16 1.6-18.2.7-2.6 3.7-9.8 4-10.2-.2.3-1.6 4.7-1.7 7.4-.2 2.6 0 5.7 0 12 0 2.7 0 5.5.4 7.6.5 2.7 1.3 4 3 2.2.7-1 1.2-2.5 1.6-4.4.8-5 .5-11.9 1-14.1.6-3 3-8 3.2-8.3-1 3.2-1 2.8-1.5 7-.3 2.8-1 10.5-.3 13.9.3 1.5.9 2.2 1.8 1.3 1.5-1.2 2.6-3 3.3-5.2.8-2.4 1.2-5 1.5-7.7.5-4.9 2.5-8 2.5-8a49.8 49.8 0 00-1.4 13.2c.3 2 1 2.5 2.3 1.1 2.5-2.8 5-12 6-15.5v-.3l.1-.3.2-.7c.7-2.9 1.4-5.8 2.4-8.4 1.4-3.8 3.6-7 7.7-8.5 9.4-3.5 6.5-21.3-6.7-22.4-3.8-.3-7.6 1-10.6 3.3L616 519c-.3.3-8.8 10.9-11.5 17.5-2.7 6.7-5 17.3-5.6 20.3a64 64 0 00-.2 14.5z" fill="#FAB893"/><path d="M392 521.5c6.3 8.2 14.9 12.7 21.7 17.4 16.5 11.2 49.8 18.3 47.3-20.3s-31.1-23-10-90.8c9-28.9 10-86.5 10-86.5s-42 31.6-69.8 114.5c-2.2 6.5-3.8 12.4-5 17.8-5.4 24.4-1.3 38.5 5.8 48z" fill="#FB4C47"/><path d="M392.3 523.1c10.2-18.1 1.7-36-5.8-46.8-5.4 24-1.3 37.7 5.8 46.8zM461 527c.5 0 1-.4 1-1 .1-.3 1.7-8-1.4-18.1-2.9-9.3-10.5-22.6-30.2-33a1.1 1.1 0 00-1 2c19 10 26.2 22.6 29 31.5 3 9.7 1.5 17.1 1.5 17.2a1.1 1.1 0 001 1.4z" fill="#B63A37"/><path d="M444 486l.4-.1c.6-.2 1-.8.7-1.4-3.6-10.8-6-15.5-6-15.7-.3-.5-1-.7-1.5-.5-.6.3-.8 1-.5 1.5 0 0 2.3 4.8 6 15.4 0 .4.4.7.9.7z" fill="#B63A37"/><path d="M442.7 481c.6 0 1.1-.5 1.1-1.1 0-22 29.5-72 29.8-72.4a1.1 1.1 0 10-2-1.2c-1.2 2.1-30 51-30 73.6 0 .6.5 1.1 1.1 1.1z" fill="#B63A37"/><path d="M463.5 424.4c.3 0 .5 0 .7-.2a54 54 0 0113.5-5.4 1.1 1.1 0 10-.5-2.2c-.4.1-10.2 2.7-14.3 5.8a1.1 1.1 0 00.6 2z" fill="#B63A37"/><path d="M477.3 581.7l-.6 5.8c-.5 3.1-1.2 4.9-2.8 1.9-.4-.7-.6-1.6-.9-2.6-1.3-5.8-.9-16-1.5-18.3a112 112 0 00-4-10.1c.2.3 1.5 4.7 1.7 7.4v12c0 2.7-.1 5.5-.5 7.6-.4 2.6-1.3 4-2.9 2.2-.7-1-1.2-2.6-1.6-4.4-.8-5-.5-11.9-1-14.1-.6-3-3-8-3.2-8.3 1 3.1 1 2.8 1.4 7 .4 2.8 1 10.4.4 13.9-.3 1.4-.9 2.1-1.8 1.3a11.7 11.7 0 01-3.3-5.2c-.8-2.4-1.3-5-1.5-7.7-.6-5-2.5-8-2.5-8a49.8 49.8 0 011.3 13.2c-.2 1.9-.9 2.5-2.2 1-2.5-2.7-5-12-6-15.4v-.3l-.1-.3-.2-.7c-.7-3-1.4-5.8-2.4-8.4-1.4-3.8-3.6-7-7.7-8.5-9.4-3.5-6.5-21.4 6.6-22.4 3.9-.3 7.7 1 10.7 3.3l7.3 5.8c.3.3 8.8 10.9 11.5 17.5 2.7 6.7 5 17.2 5.5 20.3.6 3 .8 8.8.3 14.5z" fill="#FAB893"/></svg>