<svg xmlns="http://www.w3.org/2000/svg" fill="none" viewBox="0 0 681.4 638"><g opacity=".6"><path d="M414.3 771c-37.6 16-76 25-118 19.8-46.9-5.8-89.6-42.8-114.8-80.7-9.4-14.1-17.1-30-17.4-47-.5-39.1 36-45.9 67.7-41.6a203 203 0 0151.1 16.3c27.4 11.6 59 16 84 33 8.4 5.6 15 12.7 24.5 16.6 15 6 31.6 8.3 46.9 13.7 13 4.6 27.7 12.7 28.6 26.5 1 14.2-13.2 24.1-25.8 30.6-9 4.6-17.8 8.9-26.8 12.7z" fill="url(#paint0_linear)" transform="translate(-150.9 -154.2)"/><path d="M239.7 277.3c57-97 185-143 293.1-114.9 52.1 13.6 97.1 45.9 139 79.8 36.8 29.8 72.7 62.3 99.2 102a388 388 0 0142 91.3c15.4 46.4 8.2 108-53.1 107.5-14.4 0-27.2-4.4-40.9-8-11-3-21.5-.1-32.9-1.2A304.1 304.1 0 01603 512c-54.2-21.5-104.5-52.2-160-70.5a375.5 375.5 0 00-141.2-18c-20.2 1.2-41.3 4-60-3.8C196 400.3 212 339 226.5 304.2c3.8-9.2 8.2-18.2 13.3-26.9z" fill="url(#paint1_linear)" transform="translate(-150.9 -154.2)"/><path d="M735.3 259c11 8.8 53.5 31.8 52.3 1.6a31.3 31.3 0 00-9.1-19.8c-5.8-6-12-8.8-16.6-16a182 182 0 00-18.9-23.7c-14-15.2-30.3-29-49.3-34.4-13.2-3.8-35.2-1.2-40.2 15.9-7.4 24.8 31.3 26.7 43.6 34.8 11.6 7.6 18.9 21.5 28.4 32.4 3 3.4 6.3 6.5 9.8 9.3z" fill="url(#paint2_linear)" transform="translate(-150.9 -154.2)"/><path d="M541.3 242.1c22.9 11.6 40.6 29.9 61.7 44.2 35.1 23.8 81.2 26.1 120.7 41.7 40.3 15.9 71.6 42.6 87.7 83a314.5 314.5 0 0115.4 171.4c-12.2 61.3-47.4 103.9-101 134.2-53.6 30.4-114 46.8-175 53.4a500 500 0 01-17.6 1.6c-132.7 9.4-312.4-25.8-367-165.4l-1.4-3.9a207.9 207.9 0 01-11.3-48.2 463.9 463.9 0 0116.3-180.2c11.4-37.9 39.1-71 69-95.4 42-34.2 95.3-45.7 148.6-53 39.5-5.3 84-9.3 122.4 3.4a223 223 0 0131.5 13.2z" fill="url(#paint3_linear)" transform="translate(-150.9 -154.2)"/></g><path d="M316.3 301.4c1.6 3.8 6 5.6 9.8 4l15.7-6.6a56 56 0 0125.3-4.2 15 15 0 0015-19.8 15 15 0 00-25.3-5 58 58 0 01-21 15.2l-15.6 6.6a7.5 7.5 0 00-4 9.8z" fill="#fb4c47"/><path d="M241.6 385.5a6.2 6.2 0 00-8 3.4l-5.4 13a45.8 45.8 0 01-12.3 17.3 12.3 12.3 0 002.7 20.4 12.4 12.4 0 0017.8-12 48 48 0 013.3-21l5.3-13a6.2 6.2 0 00-3.4-8.1zm48-117.5c3.3 1.4 7-.2 8.4-3.5l5.6-13.7a48 48 0 0113-18 13 13 0 10-21.6-9 49 49 0 01-3.4 22l-5.6 13.8c-1.3 3.3.3 7 3.6 8.4z" fill="#c63f3b"/><path d="M288.1 370.6a7.5 7.5 0 00-4 9.8l6.5 15.7c3.4 8 5 16.6 4.3 25.3a15 15 0 1024.8-10.2 58 58 0 01-15.3-21l-6.6-15.6a7.5 7.5 0 00-9.8-4z" fill="#fb4c47"/><path d="M319.7 411.2a58 58 0 01-15.3-21l-6.6-15.6a7.5 7.5 0 00-13.8 5.8l6.6 15.7A58 58 0 00306 417a14.9 14.9 0 012 20.2 15 15 0 0011.8-26z" fill="#c63f3b"/><path d="M204.1 315a24.4 24.4 0 10-19-45 24.4 24.4 0 0019 45z" fill="#ff8f8c"/><path d="M185.2 269.9c-2.4 1-4.6 2.4-6.4 4a24.5 24.5 0 0118 43 24.4 24.4 0 10-11.6-47z" fill="#fb4c47"/><path d="M298.5 395.5a79.8 79.8 0 10-61.8-147.2 79.8 79.8 0 0061.8 147.2z" fill="#fb4c47"/><path d="M236.7 248.3a81 81 0 00-6.8 3.2A79.8 79.8 0 01291.5 398a79.8 79.8 0 10-54.8-149.7z" fill="#c63f3b"/><path d="M291 300a16.3 16.3 0 10-12.7-30 16.3 16.3 0 0012.6 30z" fill="#c63f3b"/><path d="M278.3 270.2c-2.5 1-4.5 2.6-6.2 4.6a16.2 16.2 0 0111.2 26.5 16.2 16.2 0 10-5-31.1zm-20.7 101.6a11 11 0 10-8.5-20.2 11 11 0 008.5 20.2z" fill="#fff"/><path d="M346.4 369.2a15 15 0 10-11.6-27.6 15 15 0 0011.6 27.6z" fill="#fb4c47"/><path d="M334.8 341.6c-2.5 1-4.6 2.7-6 4.8a15 15 0 0110 23.9 15 15 0 10-4-28.6zm-115.9.7a7.5 7.5 0 01-4 9.8l-15.8 6.7c-8 3.4-15 8.5-20.7 15a15 15 0 01-24.8-3 15 15 0 0114.2-21.5 58 58 0 0025.5-4.3l15.7-6.6c3.8-1.6 8.2.2 9.8 4z" fill="#c63f3b"/><path d="M247.1 273.2c3.8-1.6 5.6-6 4-9.8l-6.6-15.7a56 56 0 01-4.2-25.3 15 15 0 10-24.8 10.2 58 58 0 0115.2 20.9l6.6 15.7c1.6 3.8 6 5.6 9.8 4z" fill="#fb4c47"/><path d="M238.7 214.7a15 15 0 00-25.3-2.3 15 15 0 0113.1 15.8 56 56 0 004.2 25.3l6.6 15.7a7.5 7.5 0 1013.8-5.8l-6.6-15.7a56 56 0 01-4.2-25.3 15 15 0 00-1.6-7.7zm125.1 51.6c-2 .8-4 2-5.4 3.7l-.8.9a15 15 0 019.6 24h1a15 15 0 10-4.4-28.6z" fill="#c63f3b"/><g opacity=".6"><path d="M423 440.8a3.8 3.8 0 005.3 1l7-5a29 29 0 0112.2-5 7.6 7.6 0 005.3-11.5 7.6 7.6 0 00-13 .3 32.1 32.1 0 01-8.8 10l-7 5a3.8 3.8 0 00-1 5.2z" fill="#ffc700"/><path d="M389.3 481.7c-1.7-.3-3.4.8-3.6 2.5l-1.3 7c-.6 3.7-2 7-4.2 10a6.3 6.3 0 003.6 9.9 6.3 6.3 0 007.6-8c-1-3.4-1.4-7.1-.7-10.8l1.2-7c.3-1.7-.9-3.4-2.6-3.6zm10.8-63.7c2 .3 3.6-1 4-2.7l1.1-7.4a26 26 0 014.4-10.4 6.6 6.6 0 10-11.6-2c1 3.6 1.4 7.5.7 11.3l-1.2 7.4c-.3 1.8 1 3.5 2.7 3.8z" fill="#d09700"/><path d="M410.7 469a3.8 3.8 0 00-.9 5.4l5 7c2.6 3.7 4.3 7.8 5 12.2a7.6 7.6 0 1011.1-7.8c-3.9-2.2-7.3-5-9.9-8.7l-5-7a3.8 3.8 0 00-5.3-1z" fill="#ffc700"/><path d="M431 485.8c-4-2.2-7.4-5-10-8.7l-5-7a3.8 3.8 0 10-6.2 4.3l5 7a30 30 0 0010 8.8 7.6 7.6 0 013.1 9.8c1.2 0 2.3-.4 3.3-1a7.6 7.6 0 00-.3-13.2zm-68-35a12.4 12.4 0 10-14.5-20.3 12.4 12.4 0 0014.4 20.3z" fill="#d09700"/><path d="M348.5 430.5c-1 .7-2 1.6-2.8 2.7a12.4 12.4 0 0113.7 19.3 12.4 12.4 0 10-10.9-22z" fill="#ffc700"/><path d="M418.7 480.3a40.6 40.6 0 10-47-66.3 40.6 40.6 0 0047 66.3z" fill="#ffc700"/><path d="M371.7 414l-3 2.4a40.6 40.6 0 0146.8 66l3.2-2a40.7 40.7 0 10-47-66.4z" fill="#d09700"/><path d="M399.8 436.6a3 3 0 10-3.5-5 3 3 0 003.5 5zm-4 36.5a5.6 5.6 0 10-6.5-9.1 5.6 5.6 0 006.4 9zM378 449.6a8.6 8.6 0 10-9.9-14 8.6 8.6 0 0010 14z" fill="#fff"/><path d="M439.5 462a7.6 7.6 0 10-8.8-12.4 7.6 7.6 0 008.8 12.4z" fill="#ffc700"/><path d="M430.7 449.6a8 8 0 00-2.5 3 7.6 7.6 0 017.6 10.8 7.6 7.6 0 10-5-13.8zm-57.5 13.2c1.3 1.6.8 4-.9 5.2l-7 5a28.2 28.2 0 00-8.7 9.8A7.6 7.6 0 01344 484a7.6 7.6 0 014.6-12.4c4.4-.7 8.6-2.3 12.3-5l7-5a3.8 3.8 0 015.3 1z" fill="#d09700"/><path d="M379.6 425.2a3.8 3.8 0 001-5.3l-5-7a28.2 28.2 0 01-5-12.1 7.6 7.6 0 10-11.2 7.8c4 2 7.3 5 10 8.7l5 7a3.8 3.8 0 005.2 1z" fill="#ffc700"/><path d="M369.1 397a7.6 7.6 0 00-13 1.7 7.6 7.6 0 018.3 6.5c.7 4.3 2.4 8.5 5 12l5 7a3.8 3.8 0 106.1-4.3l-5-7a28.2 28.2 0 01-4.9-12.1 7.6 7.6 0 00-1.6-3.7z" fill="#d09700"/></g><path d="M474.3 357.2c-2.4-.6-4.7.9-5.3 3.3l-2.3 9.7c-1 5-3.4 9.5-6.6 13.4a8.8 8.8 0 1015.2 3.7 34 34 0 010-15.1l2.2-9.7c.6-2.4-.9-4.8-3.2-5.3z" fill="#1db776"/><path d="M460.1 292.8c1.7-1 2.2-3.2 1.1-5l-4.3-7a26.8 26.8 0 01-4-11.7 7.2 7.2 0 00-10.6-5.7 7.2 7.2 0 00-.5 12.5 28 28 0 019 8.8l4.3 7c1 1.7 3.3 2.2 5 1.2zm39.2 63.2a3.8 3.8 0 00-1.2 5.2l4.5 7.4a28 28 0 014.2 12.3 7.6 7.6 0 0011 6 7.6 7.6 0 00.6-13.1c-3.8-2.4-7-5.5-9.3-9.2l-4.6-7.4a3.8 3.8 0 00-5.2-1.2z" fill="#128e5a"/><path d="M451.1 320c.6-2.3-.8-4.7-3.2-5.2l-9.7-2.3c-5-1.2-9.6-3.4-13.4-6.7a8.7 8.7 0 00-14 4.2 8.8 8.8 0 0010.2 11 34 34 0 0115.2 0l9.7 2.3c2.4.6 4.7-1 5.3-3.3z" fill="#1db776"/><path d="M421.1 321a34 34 0 0115.1 0l9.7 2.3a4.4 4.4 0 002-8.5l-9.7-2.3a34 34 0 00-15.2 0 8.7 8.7 0 01-10.3-6A8.8 8.8 0 00421 321zm85.3-21.7a14.3 14.3 0 1028 6.5 14.4 14.4 0 00-28-6.5z" fill="#128e5a"/><path d="M534.3 305.8c.3-1.4.4-3 .3-4.4a14.3 14.3 0 01-26.6-6.2 14.3 14.3 0 009 21.3c7.8 1.8 15.5-3 17.3-10.7z" fill="#1db776"/><path d="M435.8 316.4a46.8 46.8 0 1091 21.3 46.8 46.8 0 00-91-21.3z" fill="#1db776"/><path d="M526.8 337.7c.4-1.4.6-3 .8-4.3a46.8 46.8 0 01-90.6-21.2 46.7 46.7 0 1090 25.5z" fill="#128e5a"/><path d="M483.6 345.6a9.5 9.5 0 1018.5 4.3 9.5 9.5 0 00-18.5-4.3z" fill="#128e5a"/><path d="M502.1 349.9c.4-1.5.4-3 0-4.5a9.5 9.5 0 01-16.4-3.8 9.5 9.5 0 005 15.4 9.5 9.5 0 0011.4-7zm-41-44.7a6.4 6.4 0 1012.5 2.9 6.4 6.4 0 00-12.5-3z" fill="#fff"/><path d="M431.8 348.2a8.8 8.8 0 1017 4 8.8 8.8 0 00-17-4z" fill="#1db776"/><path d="M448.8 352c.4-1.4.3-3 0-4.4a8.8 8.8 0 01-14.9-3.4c-1 1-1.8 2.4-2 4a8.8 8.8 0 0017 4zm39.5-55.1a4.3 4.3 0 01-3.2-5.2l2.2-9.7c1.2-5 1.2-10.1 0-15a8.7 8.7 0 0110-10.7 8.8 8.8 0 015.4 14A34 34 0 00496 284l-2.3 9.7a4.3 4.3 0 01-5.3 3.2z" fill="#128e5a"/><path d="M511.4 334c-.5 2.5 1 4.8 3.3 5.4l9.7 2.2c5 1.2 9.6 3.5 13.5 6.7a8.7 8.7 0 0014-4.2 8.8 8.8 0 00-10.3-11 34 34 0 01-15.2 0l-9.7-2.3c-2.4-.5-4.7 1-5.3 3.3z" fill="#1db776"/><path d="M542.1 350.2A8.8 8.8 0 00552 339a8.8 8.8 0 01-12 .8 32.5 32.5 0 00-13.5-6.7l-9.7-2.3a4.4 4.4 0 00-2 8.6l9.7 2.2c5 1.2 9.6 3.5 13.5 6.7 1.1 1 2.6 1.7 4.2 2zm-66.8 41c.3-1.3.3-2.6 0-4v-.5a8.8 8.8 0 01-14.9-3.5l-.3.4a8.7 8.7 0 1015.2 7.6z" fill="#128e5a"/><defs id="defs112"><linearGradient gradientUnits="userSpaceOnUse" y2="804.8" x2="210.1" y1="668.7" x1="161.1" id="paint0_linear"><stop id="stop92" stop-color="#FFD8D8"/><stop id="stop94" stop-color="#FFF8F8" offset="1"/></linearGradient><linearGradient gradientUnits="userSpaceOnUse" y2="86.3" x2="370.9" y1="323.7" x1="807.5" id="paint1_linear"><stop id="stop97" stop-color="#FFF8F8"/><stop id="stop99" stop-color="#FFCFCF" offset="1"/></linearGradient><linearGradient gradientUnits="userSpaceOnUse" y2="204.5" x2="630.9" y1="260" x1="788.7" id="paint2_linear"><stop id="stop102" stop-color="#FFD7D7"/><stop id="stop104" stop-color="#FFF9F9" offset="1"/></linearGradient><linearGradient gradientUnits="userSpaceOnUse" y2="377.5" x2="142.1" y1="694.5" x1="782.2" id="paint3_linear"><stop id="stop107" stop-color="#FFCFCF"/><stop id="stop109" stop-color="#FFF8F8" offset="1"/></linearGradient></defs></svg>