<svg xmlns="http://www.w3.org/2000/svg" viewBox="0 0 1600 1200"><g fill="none" fill-rule="evenodd"><path fill="#FF6242" d="M0 200h200v200H0z"/><path fill="#E4E7EB" d="M1400 800h200v200h-200z"/><path fill="#FFDC09" d="M1400 800l200 200h-200zM499 826c41.421 0 75 33.579 75 75s-33.579 75-75 75-75-33.579-75-75 33.579-75 75-75z"/><path fill="#FFF" d="M200 800h199.377L600 1000H200z"/><path fill="#00C9F2" d="M400 800l-200 200h200z"/><path fill="#26468B" d="M299 856h1c24.853 0 45 20.147 45 45s-20.147 45-45 45h-1c-24.853 0-45-20.147-45-45s20.147-45 45-45z"/><path fill="#E4E7EB" d="M1299 26c41.421 0 75 33.579 75 75s-33.579 75-75 75-75-33.579-75-75 33.579-75 75-75z"/><path fill="#00C9F2" d="M1000 0h199.377L1400 200h-400z"/><path fill="#FFF" d="M1200 0l-200 200h200z"/><path fill="#26468B" d="M1099 56h1c24.853 0 45 20.147 45 45s-20.147 45-45 45h-1c-24.853 0-45-20.147-45-45s20.147-45 45-45z"/><path fill="#00C9F2" d="M600 800h200v400H600z"/><path fill="#3C61AF" d="M700 900h100v100.251H700z"/><path fill="#26468B" d="M600 1000h100v100.251H600z"/><path fill="#3C61AF" d="M1600 200v200h-200V200z"/><path fill="#FF6242" d="M1500 300v100h-100V300z"/><path fill="#FFF" d="M0 800h200v200H0z"/><path fill="#FFDC09" d="M100 833l43.067 15.675 22.915 39.691-7.958 45.134-35.109 29.459h-45.83L41.976 933.5l-7.958-45.134 22.915-39.691z"/><path fill="#26468B" d="M1400 1000h200v200h-200z"/><path fill="#00C9F2" d="M1500 1033l43.067 15.675 22.915 39.691-7.958 45.134-35.109 29.459h-45.83l-35.109-29.459-7.958-45.134 22.915-39.691z"/><path fill="#FFF" d="M800 0h200v200H800z"/><path fill="#26468B" d="M900 33l43.067 15.675 22.915 39.691-7.958 45.134-35.109 29.459h-45.83L841.976 133.5l-7.958-45.134 22.915-39.691z"/><path fill="#3C61AF" d="M800 1000V800h200v200z"/><path fill="#FF6242" d="M800 1000V900h200v100z"/><path fill="#FFDC09" d="M600 0h200v200H600zM1000 800h200v200h-200z"/><path fill="#E4E7EB" d="M1200 800l-200 200h200z"/><path fill="#3C61AF" d="M400 400h200v200H400z"/><path fill="#FF6242" d="M400 400h101v200H400z"/><path fill="#FFDC09" d="M400 1000h200v200H400z"/><path fill="#FFF" d="M1000 400h200v200h-200z"/><path fill="#FF6242" d="M1050 500c27.614 0 50 22.386 50 50s-22.386 50-50 50-50-22.386-50-50 22.386-50 50-50z"/><path fill="#00C9F2" d="M1100 400h100v100h-100z"/><path fill="#FFF" d="M800 600h200v200H800z"/><path fill="#E4E7EB" d="M900 655c24.853 0 45 20.147 45 45s-20.147 45-45 45-45-20.147-45-45 20.147-45 45-45z"/><path fill="#00C9F2" d="M1000 600h200v200h-200z"/><path fill="#FFF" d="M1030 630h140v140h-140z"/><path fill="#26468B" d="M1100 700l-100-100h100z"/><path fill="#00C9F2" d="M0 600V400h200v200z"/><path fill="#FFF" d="M30 570V430h140v140z"/><path fill="#26468B" d="M100 500L0 600V500z"/><path fill="#00C9F2" d="M600 0v200H400V0z"/><path fill="#FFF" d="M570 30v140H430V30z"/><path fill="#26468B" d="M500 100L600 0v100z"/><path fill="#3C61AF" d="M1400 600v200h-200V600z"/><path fill="#FF6242" d="M1200 800l200-200v200z"/><path fill="#FFF" d="M1375 702c0 41.421-33.579 75-75 75s-75-33.579-75-75 33.579-75 75-75 75 33.579 75 75z"/><g><path fill="#FFF" d="M0 600h200v200H0z"/><path fill="#E4E7EB" d="M200 600L0 800h200z"/></g><g><path fill="#26468B" d="M200 400l200 200H200z"/><path fill="#00C9F2" d="M300 400h100v100H300z"/></g><g fill="#26468B"><path d="M400 200l200 200H400z"/></g><g fill="#FF6242"><path d="M200 600l200 200H200z"/></g><g><path fill="#FFDC09" d="M1000 600L800 400h200z"/><path fill="#00C9F2" d="M800 500h100v100H800z"/><path fill="#E4E7EB" d="M1000 500L900 400h100z"/></g><g><path fill="#FFDC09" d="M400 0L200 200V0z"/><path fill="#E4E7EB" d="M300 200V100h100v100zM300 0L200 100V0z"/></g><g><path fill="#FFDC09" d="M1600 600l-200 200V600z"/><path fill="#00C9F2" d="M1500 800V700h100v100z"/><path fill="#E4E7EB" d="M1500 600l-100 100V600z"/></g><g><path fill="#E4E7EB" d="M800 400L600 600h200z"/><path fill="#FFDC09" d="M600 400h100v100H600z"/></g><g><path fill="#FFDC09" d="M1400 1000l-200 200h200z"/><path fill="#26468B" d="M1200 1000h100v100h-100z"/></g><g fill="#3C61AF"><path d="M1400 1000l-200-200h200z"/></g><g fill="#3C61AF"><path d="M200 200L0 0h200z"/></g><g><path fill="#3C61AF" d="M800 800H600V600h200z"/><path fill="#FFF" d="M700.5 735.327L632 600h137z"/><path fill="#FF6242" d="M750 689.554L700 600h100zM650 689.554L600 600h100z"/></g><g><path fill="#26468B" d="M200 1000v200H0v-200z"/><path fill="#00C9F2" d="M135 1099.5L0 1168v-137z"/><path fill="#E4E7EB" d="M90 1050l-90 50v-100z"/><path fill="#E4E7EB" d="M90 1149l-90 50v-100z"/></g><g><path fill="#26468B" d="M1400 200V0h200.005v200z"/><path fill="#00C9F2" d="M1464.498 100.002l136.004-68.5v137z"/><g fill="#E4E7EB"><path d="M1510 150l90.002-50v100zM1510 50l90.002-50v100z"/></g></g><g><path fill="#E4E7EB" d="M400 400H200V200h200z"/><path fill="#FFDC09" d="M300.5 336.683L232 200h137z"/></g><g fill="#FFDC09"><path d="M900 1000l100 200H800z"/></g><g><path fill="#E4E7EB" d="M1300 400c55.228 0 100 44.772 100 100s-44.772 100-100 100-100-44.772-100-100 44.772-100 100-100z"/><path fill="#FFF" d="M1300 450c27.614 0 50 22.386 50 50s-22.386 50-50 50-50-22.386-50-50 22.386-50 50-50z"/></g><g><path fill="#FF6242" d="M700 200c55.228 0 100 44.772 100 100s-44.772 100-100 100-100-44.772-100-100 44.772-100 100-100z"/><path fill="#3C61AF" d="M700 250c27.614 0 50 22.386 50 50s-22.386 50-50 50-50-22.386-50-50 22.386-50 50-50z"/></g><g fill="#00C9F2"><path d="M1100 1000c55.228 0 100 44.772 100 100s-44.772 100-100 100-100-44.772-100-100 44.772-100 100-100z"/></g><g><path fill="#FFDC09" d="M1100 200c55.228 0 100 44.772 100 100s-44.772 100-100 100-100-44.772-100-100 44.772-100 100-100z"/><path fill="#FFF" d="M1100 300h100v100h-100z"/></g><g><path fill="#E4E7EB" d="M300 1000c55.228 0 100 44.772 100 100s-44.772 100-100 100-100-44.772-100-100 44.772-100 100-100z"/><path fill="#3C61AF" d="M300 1100h100v100H300z"/></g><g fill="#FF6242"><path d="M900 300L800 200h100zM900 300l100 100H900zM900 300L800 400V300zM900 300l100-100v100z"/></g><g fill="#00C9F2"><path d="M1500 500l-100-100h100zM1500 500l100 100h-100zM1500 500l-100 100V500zM1500 500l100-100v100z"/></g><g fill="#FFDC09"><path d="M500 700L400 600h100z"/><path d="M500 600L400 700V600zM600 700L500 800V700z"/><path d="M600 800L500 700h100z"/></g><g><path fill="#FFDC09" d="M1300 300l-100-100h100z"/><path fill="#FFDC09" d="M1300 200l-100 100V200z"/><path fill="#00C9F2" d="M1400 300l-100 100V300z"/><path fill="#00C9F2" d="M1400 400l-100-100h100z"/></g></g></svg>