<svg xmlns="http://www.w3.org/2000/svg" viewBox="0 0 1590 1200"><g fill="none" fill-rule="nonzero"><path fill="#94C0D4" d="M217.461 322.986a109.29 109.29 0 00-8.276-41.726 109.074 109.074 0 00-23.571-35.374 108.726 108.726 0 00-35.274-23.637 108.463 108.463 0 00-41.61-8.3c-14.278 0-28.417 2.82-41.608 8.3a108.726 108.726 0 00-35.275 23.637 109.074 109.074 0 00-23.57 35.374A109.29 109.29 0 000 322.986h217.461z"/><path fill="#F45B0F" d="M0 218.075a109.27 109.27 0 0041.722-8.278 109.051 109.051 0 0035.37-23.572 108.734 108.734 0 0023.634-35.279 108.488 108.488 0 000-83.228 108.731 108.731 0 00-23.634-35.279 109.05 109.05 0 00-35.37-23.572A109.268 109.268 0 000 .589v217.486z"/><path fill="#161616" d="M239.266 588.802a109 109 0 01-77.092-31.937 109.054 109.054 0 01-31.933-77.1h109.025v109.037z"/><path fill="#F45B0F" d="M0 348.33a109 109 0 0177.092 31.937 109.054 109.054 0 0131.933 77.1H0V348.33z"/><path fill="#FFD726" d="M130.24 110.216A109.037 109.037 0 01239.267 1.18v109.037H130.241zM0 534.283c0-30.11 24.406-54.519 54.513-54.519h54.512v109.038H54.513C24.406 588.802 0 564.392 0 534.282z"/><path fill="#048ECB" d="M130.24 403.438c0 30.11 24.407 54.519 54.514 54.519h54.512V348.919h-54.512c-30.107 0-54.513 24.41-54.513 54.52z"/><ellipse cx="195.951" cy="174.754" fill="#FFD726" rx="43.315" ry="43.32"/><path fill="#94C0D4" d="M1587.643 218.075a109.037 109.037 0 00-109.026-109.038v109.038h109.026zM1239.351 110.216c7.12 0 14.17-1.41 20.749-4.15a54.204 54.204 0 0017.59-11.818 54.542 54.542 0 0011.752-17.687 54.78 54.78 0 004.127-20.864 54.78 54.78 0 00-4.127-20.863 54.54 54.54 0 00-11.753-17.687 54.201 54.201 0 00-17.59-11.818 53.959 53.959 0 00-20.748-4.15V110.217z"/><path fill="#F45B0F" d="M1457.402.59a109.272 109.272 0 00-41.722 8.277 109.043 109.043 0 00-35.37 23.572 108.723 108.723 0 00-23.634 35.279 108.5 108.5 0 00-8.3 41.614 108.5 108.5 0 008.3 41.614 108.725 108.725 0 0023.633 35.279 109.045 109.045 0 0035.37 23.572 109.273 109.273 0 0041.723 8.278V.589z"/><path fill="#161616" d="M1348.377 479.175a109.046 109.046 0 0131.932-77.1 109.004 109.004 0 0177.092-31.937v109.037h-109.024z"/><path fill="#94C0D4" d="M1478.617 587.623c14.318 0 28.495-2.812 41.722-8.278a109.06 109.06 0 0035.37-23.573 108.74 108.74 0 0023.635-35.278 108.484 108.484 0 000-83.227 108.74 108.74 0 00-23.635-35.279 109.06 109.06 0 00-35.37-23.573 109.257 109.257 0 00-41.722-8.277v217.485z"/><path fill="#E6E6E6" d="M1239.351 240.472a109.26 109.26 0 0141.723 8.277 109.052 109.052 0 0135.37 23.573 108.728 108.728 0 0123.634 35.279 108.496 108.496 0 010 83.227 108.73 108.73 0 01-23.634 35.278 109.055 109.055 0 01-35.37 23.573 109.26 109.26 0 01-41.723 8.278V240.472z"/><path fill="#94C0D4" d="M1369.592 239.882c0 14.319 2.813 28.498 8.277 41.727a109.065 109.065 0 0023.57 35.373 108.72 108.72 0 0035.274 23.638 108.455 108.455 0 0083.219 0 108.726 108.726 0 0035.274-23.638 109.074 109.074 0 0023.57-35.373 109.29 109.29 0 008.277-41.727h-217.46z"/><path fill="#F45B0F" d="M1348.377 534.283c0 30.11-24.407 54.519-54.513 54.519h-54.513V479.764h54.513c30.106 0 54.513 24.41 54.513 54.519z"/><ellipse cx="1521.933" cy="44.499" fill="#FFD726" rx="43.315" ry="43.32"/><ellipse cx="1282.667" cy="174.754" fill="#F45B0F" rx="43.315" ry="43.32"/><ellipse cx="1412.908" cy="545.481" fill="#FFD726" rx="43.315" ry="43.32"/><path fill="#FFD726" d="M608.773 370.138a109.037 109.037 0 01-109.025 109.037V370.138h109.025z"/><path fill="#161616" d="M957.064 500.982c-7.12 0-14.17-1.41-20.748-4.15a54.222 54.222 0 01-17.59-11.818 54.543 54.543 0 01-11.752-17.687 54.797 54.797 0 010-41.727 54.543 54.543 0 0111.752-17.687 54.222 54.222 0 0117.59-11.818 53.955 53.955 0 0120.748-4.15v109.037z"/><path fill="#F45B0F" d="M717.798 109.037c-7.12 0-14.17-1.41-20.748-4.15a54.22 54.22 0 01-17.59-11.817 54.56 54.56 0 01-11.753-17.688 54.795 54.795 0 010-41.727 54.56 54.56 0 0111.753-17.688A54.22 54.22 0 01697.05 4.15 53.972 53.972 0 01717.798 0v109.037z"/><path fill="#94C0D4" d="M260.482 478.585c7.12 0 14.17 1.41 20.748 4.15a54.204 54.204 0 0117.59 11.819 54.542 54.542 0 0111.753 17.687 54.78 54.78 0 014.127 20.863 54.78 54.78 0 01-4.127 20.864 54.54 54.54 0 01-11.753 17.687 54.201 54.201 0 01-17.59 11.818 53.959 53.959 0 01-20.748 4.15V478.585zM478.532 587.623a109.272 109.272 0 01-41.722-8.278 109.043 109.043 0 01-35.37-23.572 108.723 108.723 0 01-23.634-35.279 108.5 108.5 0 01-8.299-41.614 108.5 108.5 0 018.299-41.614 108.725 108.725 0 0123.634-35.278 109.045 109.045 0 0135.37-23.573 109.273 109.273 0 0141.722-8.277v217.485z"/><path fill="#F45B0F" d="M369.507 109.037h109.025v109.038a109.004 109.004 0 01-77.092-31.937 109.045 109.045 0 01-31.933-77.1z"/><path fill="#FFD726" d="M499.748.59c14.317 0 28.495 2.811 41.722 8.277a109.06 109.06 0 0135.37 23.573 108.74 108.74 0 0123.634 35.278 108.484 108.484 0 010 83.228 108.74 108.74 0 01-23.634 35.278 109.06 109.06 0 01-35.37 23.573 109.257 109.257 0 01-41.722 8.278V.589z"/><path fill="#048ECB" d="M739.603 587.623c0-14.32 2.812-28.498 8.277-41.727a109.066 109.066 0 0123.57-35.374 108.717 108.717 0 0135.275-23.637c13.191-5.48 27.33-8.3 41.609-8.3 14.278 0 28.418 2.82 41.609 8.3a108.717 108.717 0 0135.274 23.637 109.066 109.066 0 0123.57 35.374 109.294 109.294 0 018.277 41.727h-217.46z"/><path fill="#FFD726" d="M1195.741 265.226a109.29 109.29 0 01-8.276 41.726 109.074 109.074 0 01-23.57 35.374 108.726 108.726 0 01-35.275 23.637 108.463 108.463 0 01-83.218 0 108.726 108.726 0 01-35.275-23.637 109.074 109.074 0 01-23.57-35.374 109.29 109.29 0 01-8.277-41.726h217.461z"/><path fill="#F45B0F" d="M978.28 370.138a109.27 109.27 0 0141.722 8.277 109.051 109.051 0 0135.37 23.573 108.734 108.734 0 0123.634 35.278 108.488 108.488 0 010 83.228 108.731 108.731 0 01-23.634 35.279 109.05 109.05 0 01-35.37 23.572 109.268 109.268 0 01-41.722 8.278V370.138z"/><path fill="#048ECB" d="M869.844 239.293a109.29 109.29 0 018.277-41.727 109.074 109.074 0 0123.57-35.374 108.726 108.726 0 0135.275-23.637 108.45 108.45 0 0183.218 0 108.726 108.726 0 0135.274 23.637 109.074 109.074 0 0123.57 35.374 109.29 109.29 0 018.277 41.727h-217.46z"/><path fill="#FFD726" d="M957.064 0a109.29 109.29 0 01-8.276 41.726 109.074 109.074 0 01-23.57 35.374 108.726 108.726 0 01-35.275 23.637 108.45 108.45 0 01-83.218 0A108.726 108.726 0 01771.45 77.1a109.074 109.074 0 01-23.571-35.374A109.29 109.29 0 01739.603 0h217.461z"/><path fill="#94C0D4" d="M717.798 347.74a109.257 109.257 0 01-41.721-8.277 109.06 109.06 0 01-35.37-23.573 108.74 108.74 0 01-23.635-35.278 108.484 108.484 0 010-83.228 108.74 108.74 0 0123.635-35.278 109.06 109.06 0 0135.37-23.573 109.257 109.257 0 0141.721-8.278v217.486z"/><path fill="#FFD726" d="M260.482 347.74V130.256a109.26 109.26 0 0141.722 8.278 109.055 109.055 0 0135.37 23.573 108.73 108.73 0 0123.634 35.278 108.496 108.496 0 010 83.228 108.728 108.728 0 01-23.634 35.278 109.052 109.052 0 01-35.37 23.573 109.26 109.26 0 01-41.722 8.278z"/><path fill="#F45B0F" d="M390.723 348.33c0-14.319 2.812-28.498 8.276-41.726a109.065 109.065 0 0123.57-35.374 108.72 108.72 0 0135.275-23.637 108.455 108.455 0 0183.218 0 108.726 108.726 0 0135.275 23.637 109.074 109.074 0 0123.57 35.374 109.29 109.29 0 018.277 41.726H390.723zM848.04 370.138c0 14.319-2.812 28.497-8.277 41.726a109.066 109.066 0 01-23.57 35.374 108.717 108.717 0 01-35.275 23.637 108.463 108.463 0 01-41.61 8.3c-14.278 0-28.417-2.82-41.608-8.3a108.717 108.717 0 01-35.275-23.637 109.066 109.066 0 01-23.57-35.374 109.294 109.294 0 01-8.277-41.726H848.04z"/><path fill="#161616" d="M848.04 239.293H739.013V130.255a109 109 0 0177.092 31.937 109.054 109.054 0 0131.933 77.1zM1217.546 0v109.037h-109.025a109.034 109.034 0 0131.934-77.1A109 109 0 011217.547 0z"/><path fill="#F45B0F" d="M848.04 261.1h109.024v109.038a109 109 0 01-77.091-31.938 109.054 109.054 0 01-31.934-77.1z"/><path fill="#E6E6E6" d="M1108.521 478.585h109.025v109.038a109.011 109.011 0 01-77.091-31.937 109.045 109.045 0 01-31.934-77.1zM663.286 478.585c30.106 0 54.512 24.41 54.512 54.52v54.518H608.773v-54.519c0-30.11 24.407-54.519 54.513-54.519z"/><path fill="#048ECB" d="M369.507 54.519c0 30.11-24.406 54.518-54.513 54.518h-54.512V0h54.512c30.107 0 54.513 24.41 54.513 54.519zM978.28 54.519c0-30.11 24.407-54.519 54.513-54.519h54.512v109.037h-54.512c-30.106 0-54.513-24.409-54.513-54.518z"/><path fill="#94C0D4" d="M1108.521 184.774c0-30.11 24.407-54.519 54.513-54.519h54.512v109.038h-54.512c-30.106 0-54.513-24.41-54.513-54.519z"/><path fill="#F45B0F" d="M543.063 500.982c23.923 0 43.316 19.395 43.316 43.32 0 23.926-19.393 43.32-43.316 43.32-23.922 0-43.315-19.394-43.315-43.32 0-23.925 19.393-43.32 43.315-43.32z"/><path fill="#E6E6E6" d="M303.797 370.727c23.923 0 43.316 19.395 43.316 43.32s-19.393 43.32-43.316 43.32c-23.922 0-43.315-19.395-43.315-43.32s19.393-43.32 43.315-43.32z"/><path fill="#161616" d="M434.038 0c23.923 0 43.316 19.395 43.316 43.32s-19.393 43.32-43.316 43.32c-23.922 0-43.315-19.395-43.315-43.32S410.116 0 434.038 0z"/><path fill="#94C0D4" d="M782.919 261.69c23.922 0 43.315 19.395 43.315 43.32s-19.393 43.32-43.315 43.32c-23.923 0-43.316-19.395-43.316-43.32s19.393-43.32 43.316-43.32z"/><path fill="#FFD726" d="M1174.23 370.727c23.923 0 43.316 19.395 43.316 43.32s-19.393 43.32-43.315 43.32c-23.923 0-43.316-19.395-43.316-43.32s19.393-43.32 43.316-43.32z"/><path fill="#94C0D4" d="M348.291 982.515a109.037 109.037 0 01-109.025 109.037V982.515h109.025z"/><path fill="#FFD726" d="M696.583 1113.36c-7.12 0-14.17-1.41-20.748-4.15a54.222 54.222 0 01-17.59-11.819 54.543 54.543 0 01-11.753-17.687 54.797 54.797 0 010-41.727 54.543 54.543 0 0111.752-17.687 54.222 54.222 0 0117.59-11.818 53.955 53.955 0 0120.749-4.15v109.038z"/><path fill="#161616" d="M457.317 721.415c-7.12 0-14.17-1.411-20.749-4.15a54.22 54.22 0 01-17.59-11.818 54.56 54.56 0 01-11.752-17.688 54.795 54.795 0 010-41.726 54.56 54.56 0 0111.752-17.688 54.22 54.22 0 0117.59-11.818 53.972 53.972 0 0120.749-4.15v109.038zM0 1090.963c7.12 0 14.17 1.41 20.748 4.15a54.204 54.204 0 0117.59 11.818 54.542 54.542 0 0111.753 17.687 54.78 54.78 0 014.127 20.863 54.78 54.78 0 01-4.127 20.864 54.54 54.54 0 01-11.753 17.687 54.201 54.201 0 01-17.59 11.818A53.959 53.959 0 010 1200v-109.037z"/><path fill="#FFD726" d="M218.05 1200a109.272 109.272 0 01-41.722-8.278 109.043 109.043 0 01-35.37-23.572 108.723 108.723 0 01-23.634-35.279 108.5 108.5 0 01-8.299-41.614 108.5 108.5 0 018.3-41.614 108.725 108.725 0 0123.633-35.278 109.045 109.045 0 0135.37-23.573 109.273 109.273 0 0141.722-8.277V1200z"/><path fill="#F45B0F" d="M109.025 720.825H218.05v109.037a109.004 109.004 0 01-77.092-31.937 109.045 109.045 0 01-31.933-77.1zM239.266 612.377c14.317 0 28.495 2.812 41.722 8.278a109.06 109.06 0 0135.37 23.573 108.74 108.74 0 0123.634 35.278 108.484 108.484 0 010 83.227 108.74 108.74 0 01-23.634 35.279 109.06 109.06 0 01-35.37 23.573 109.257 109.257 0 01-41.722 8.277V612.377z"/><path fill="#94C0D4" d="M479.122 1200c0-14.319 2.811-28.498 8.276-41.727a109.066 109.066 0 0123.57-35.374 108.717 108.717 0 0135.275-23.636 108.463 108.463 0 0183.218 0 108.717 108.717 0 0135.274 23.636 109.066 109.066 0 0123.571 35.374 109.294 109.294 0 018.277 41.727H479.122z"/><path fill="#FFD726" d="M935.26 878.193a109.29 109.29 0 01-8.277 41.726 109.074 109.074 0 01-23.57 35.374 108.726 108.726 0 01-35.275 23.637 108.463 108.463 0 01-41.61 8.3c-14.278 0-28.417-2.82-41.608-8.3a108.726 108.726 0 01-35.274-23.637 109.074 109.074 0 01-23.571-35.374 109.29 109.29 0 01-8.277-41.726H935.26z"/><path fill="#048ECB" d="M717.798 982.515a109.27 109.27 0 0141.722 8.277 109.051 109.051 0 0135.37 23.573 108.734 108.734 0 0123.635 35.278 108.488 108.488 0 010 83.228 108.732 108.732 0 01-23.635 35.279 109.05 109.05 0 01-35.37 23.572 109.268 109.268 0 01-41.722 8.278V982.515z"/><path fill="#F45B0F" d="M609.362 851.67a109.29 109.29 0 018.277-41.726 109.074 109.074 0 0123.57-35.374 108.726 108.726 0 0135.275-23.637 108.45 108.45 0 0183.218 0 108.726 108.726 0 0135.274 23.637 109.074 109.074 0 0123.571 35.374 109.29 109.29 0 018.277 41.726H609.362zM696.583 612.377a109.29 109.29 0 01-8.277 41.727 109.074 109.074 0 01-23.57 35.374 108.726 108.726 0 01-35.275 23.637 108.45 108.45 0 01-83.218 0 108.726 108.726 0 01-35.274-23.637 109.074 109.074 0 01-23.57-35.374 109.29 109.29 0 01-8.277-41.727h217.46z"/><path fill="#94C0D4" d="M457.317 960.707a109.257 109.257 0 01-41.722-8.277 109.06 109.06 0 01-35.37-23.573 108.74 108.74 0 01-23.635-35.279 108.484 108.484 0 010-83.227 108.74 108.74 0 0123.635-35.278 109.06 109.06 0 0135.37-23.574 109.257 109.257 0 0141.722-8.277v217.485z"/><path fill="#F45B0F" d="M0 960.707V743.222a109.26 109.26 0 0141.722 8.277 109.055 109.055 0 0135.37 23.574 108.73 108.73 0 0123.634 35.278 108.496 108.496 0 010 83.227 108.728 108.728 0 01-23.634 35.279 109.052 109.052 0 01-35.37 23.573A109.26 109.26 0 010 960.707z"/><path fill="#048ECB" d="M130.24 960.707c0-14.319 2.813-28.498 8.277-41.726a109.065 109.065 0 0123.57-35.374 108.72 108.72 0 0135.275-23.637 108.455 108.455 0 0183.218 0 108.726 108.726 0 0135.275 23.637 109.074 109.074 0 0123.57 35.374 109.29 109.29 0 018.277 41.726H130.241z"/><path fill="#F45B0F" d="M587.557 982.515c0 14.319-2.811 28.498-8.276 41.727a109.065 109.065 0 01-23.57 35.374 108.717 108.717 0 01-35.275 23.636 108.463 108.463 0 01-41.61 8.3c-14.278 0-28.417-2.82-41.608-8.3a108.717 108.717 0 01-35.274-23.636 109.065 109.065 0 01-23.571-35.374 109.294 109.294 0 01-8.277-41.727h217.461z"/><path fill="#94C0D4" d="M587.557 851.67H478.532V742.633a109 109 0 0177.092 31.937 109.054 109.054 0 0131.933 77.1z"/><path fill="#161616" d="M957.064 612.377v109.038H848.04a109.034 109.034 0 0131.934-77.1 109 109 0 0177.092-31.937z"/><path fill="#FFD726" d="M587.557 873.477h109.026v109.038a109 109 0 01-77.092-31.937 109.054 109.054 0 01-31.934-77.1z"/><path fill="#F45B0F" d="M848.04 1090.963h109.024V1200a109.011 109.011 0 01-77.091-31.936 109.045 109.045 0 01-31.934-77.101z"/><path fill="#048ECB" d="M402.804 1090.963c30.106 0 54.513 24.409 54.513 54.518V1200H348.29v-54.519c0-30.11 24.407-54.518 54.513-54.518zM109.025 666.896c0 30.11-24.406 54.519-54.512 54.519H0V612.377h54.513c30.106 0 54.512 24.41 54.512 54.519z"/><path fill="#FFD726" d="M717.798 666.896c0-30.11 24.407-54.519 54.513-54.519h54.513v109.038H772.31c-30.106 0-54.513-24.41-54.513-54.52z"/><path fill="#E6E6E6" d="M848.04 797.151c0-30.11 24.406-54.518 54.512-54.518h54.512V851.67h-54.512c-30.106 0-54.513-24.41-54.513-54.519zM282.582 1113.36c23.922 0 43.315 19.395 43.315 43.32S306.504 1200 282.582 1200c-23.923 0-43.316-19.395-43.316-43.32s19.393-43.32 43.316-43.32z"/><path fill="#048ECB" d="M43.315 983.104c23.923 0 43.316 19.395 43.316 43.32s-19.393 43.32-43.316 43.32c-23.922 0-43.315-19.395-43.315-43.32s19.393-43.32 43.315-43.32z"/><path fill="#161616" d="M173.556 612.377c23.923 0 43.316 19.395 43.316 43.32 0 23.926-19.393 43.32-43.316 43.32-23.922 0-43.315-19.394-43.315-43.32 0-23.925 19.393-43.32 43.315-43.32zM522.437 874.067c23.922 0 43.315 19.395 43.315 43.32s-19.393 43.32-43.315 43.32c-23.922 0-43.315-19.395-43.315-43.32s19.393-43.32 43.315-43.32zM913.75 983.104c23.922 0 43.314 19.395 43.314 43.32s-19.392 43.32-43.315 43.32c-23.922 0-43.315-19.395-43.315-43.32s19.393-43.32 43.315-43.32zM1241.12 699.018c7.12 0 14.17 1.41 20.747 4.15a54.222 54.222 0 0117.59 11.818 54.543 54.543 0 0111.753 17.687 54.797 54.797 0 010 41.727 54.543 54.543 0 01-11.752 17.687 54.222 54.222 0 01-17.59 11.818 53.955 53.955 0 01-20.749 4.15V699.018zM1480.975 1090.963c7.12 0 14.17 1.41 20.748 4.15a54.22 54.22 0 0117.59 11.817 54.56 54.56 0 0111.753 17.688 54.795 54.795 0 010 41.727 54.56 54.56 0 01-11.753 17.688 54.22 54.22 0 01-17.59 11.817 53.972 53.972 0 01-20.748 4.15v-109.037z"/><path fill="#94C0D4" d="M1458.58 612.377c0 14.32-2.811 28.498-8.276 41.727a109.066 109.066 0 01-23.57 35.374 108.717 108.717 0 01-35.275 23.637 108.463 108.463 0 01-83.218 0 108.717 108.717 0 01-35.274-23.637 109.066 109.066 0 01-23.571-35.374 109.294 109.294 0 01-8.277-41.727h217.461zM1002.443 934.774a109.29 109.29 0 018.276-41.726 109.074 109.074 0 0123.57-35.374 108.726 108.726 0 0135.275-23.637 108.463 108.463 0 0183.218 0 108.726 108.726 0 0135.274 23.637 109.074 109.074 0 0123.571 35.374 109.29 109.29 0 018.277 41.726h-217.461z"/><path fill="#048ECB" d="M1219.904 829.862a109.27 109.27 0 01-41.722-8.277 109.051 109.051 0 01-35.37-23.573 108.734 108.734 0 01-23.635-35.278 108.488 108.488 0 010-83.228 108.731 108.731 0 0123.635-35.279 109.05 109.05 0 0135.37-23.572 109.268 109.268 0 0141.722-8.278v217.485z"/><path fill="#F45B0F" d="M1328.34 960.707a109.29 109.29 0 01-8.277 41.727 109.074 109.074 0 01-23.57 35.374 108.726 108.726 0 01-35.275 23.637 108.451 108.451 0 01-83.218 0 108.726 108.726 0 01-35.274-23.637 109.074 109.074 0 01-23.571-35.374 109.29 109.29 0 01-8.277-41.727h217.462z"/><path fill="#FFD726" d="M1241.12 1200a109.29 109.29 0 018.276-41.726 109.074 109.074 0 0123.57-35.374 108.726 108.726 0 0135.275-23.637 108.45 108.45 0 0183.218 0 108.726 108.726 0 0135.274 23.637 109.074 109.074 0 0123.57 35.374 109.29 109.29 0 018.277 41.726h-217.46z"/><path fill="#048ECB" d="M1480.975 852.26c14.317 0 28.495 2.811 41.722 8.277a109.06 109.06 0 0135.37 23.573 108.74 108.74 0 0123.634 35.278 108.484 108.484 0 010 83.228 108.74 108.74 0 01-23.634 35.278 109.06 109.06 0 01-35.37 23.573 109.257 109.257 0 01-41.722 8.278V852.259z"/><path fill="#F45B0F" d="M1350.145 829.862c0-14.319 2.811-28.497 8.276-41.726a109.066 109.066 0 0123.57-35.374 108.717 108.717 0 0135.275-23.637 108.463 108.463 0 0183.218 0 108.717 108.717 0 0135.274 23.637 109.066 109.066 0 0123.571 35.374 109.294 109.294 0 018.277 41.726h-217.461z"/><path fill="#048ECB" d="M1350.734 960.707h109.025v109.038a109 109 0 01-77.092-31.937 109.053 109.053 0 01-31.933-77.1z"/><path fill="#F45B0F" d="M980.638 1200v-109.037h109.025a109.034 109.034 0 01-31.934 77.1A109 109 0 01980.637 1200zM1350.145 938.9h-109.026V829.862a109 109 0 0177.092 31.938 109.054 109.054 0 0131.934 77.1z"/><path fill="#E6E6E6" d="M1089.663 721.415H980.638V612.377a109.011 109.011 0 0177.091 31.937 109.045 109.045 0 0131.934 77.1z"/><path fill="#048ECB" d="M1535.487 721.415c-30.106 0-54.512-24.41-54.512-54.52v-54.518H1590v54.519c0 30.11-24.406 54.519-54.513 54.519z"/><path fill="#E6E6E6" d="M1219.904 1145.481c0 30.11-24.407 54.519-54.513 54.519h-54.513v-109.037h54.513c30.106 0 54.513 24.409 54.513 54.518z"/><path fill="#048ECB" d="M1089.663 1015.226c0 30.11-24.407 54.519-54.513 54.519h-54.512V960.707h54.512c30.106 0 54.513 24.41 54.513 54.519z"/><path fill="#FFD726" d="M1415.854 938.31c-23.922 0-43.315-19.395-43.315-43.32s19.393-43.32 43.315-43.32c23.923 0 43.316 19.395 43.316 43.32s-19.393 43.32-43.316 43.32zM1023.953 829.273c-23.923 0-43.315-19.395-43.315-43.32s19.392-43.32 43.315-43.32c23.922 0 43.315 19.395 43.315 43.32s-19.393 43.32-43.315 43.32z"/></g></svg>