<svg xmlns="http://www.w3.org/2000/svg" viewBox="0 0 1600 1200"><g fill="none" fill-rule="evenodd"><path fill="#ECECF4" d="M0 0h1600v1200H0z"/><path fill="#111747" d="M800 0h200v200H800zM600 0h200v200H600zM300 400h100v200H300c-55.228 0-100-44.772-100-100s44.772-100 100-100zM600 400h200v200H600z"/><path fill="#FFC641" d="M600 600h200v200H600z"/><path fill="#06818E" d="M1000 400h200v200h-200zM800 400h200v200H800z"/><path fill="#FFC641" d="M600 1000h200v200H600z"/><path fill="#111747" d="M400 400h200v200H400z"/><path fill="#FFF" d="M600 800h200v200H600z"/><path fill="#16A3B2" d="M600 200h200v200H600z"/><path fill="#111747" d="M800 400h100c55.228 0 100 44.772 100 100s-44.772 100-100 100H800V400z"/><path fill="#FE5E33" d="M800 1000h100c55.228 0 100 44.772 100 100s-44.772 100-100 100H800v-200z"/><path fill="#16A3B2" d="M800 800h100c55.228 0 100 44.772 100 100s-44.772 100-100 100H800V800zM700 0c55.228 0 100 44.772 100 100v100H600V100C600 44.772 644.772 0 700 0z"/><path fill="#FE5E33" d="M1300 200c55.228 0 100 44.772 100 100v100h-200V300c0-55.228 44.772-100 100-100zM900 200c55.228 0 100 44.772 100 100v100H800V300c0-55.228 44.772-100 100-100z"/><path fill="#FF87A2" d="M500 200c55.228 0 100 44.772 100 100v100H500c-55.228 0-100-44.772-100-100s44.772-100 100-100zM500 1000c55.228 0 100 44.772 100 100v100H400v-100c0-55.228 44.772-100 100-100z"/><path fill="#16A3B2" d="M700-100h200v200H700z"/><path fill="#06818E" d="M600 400h200c0 55.228-44.772 100-100 100s-100-44.772-100-100zM1000 200h200c0 55.228-44.772 100-100 100s-100-44.772-100-100z"/><path fill="#FFC641" d="M1200 300h200c0 55.228-44.772 100-100 100s-100-44.772-100-100z"/><path fill="#16A3B2" d="M900 600c55.228 0 100 44.772 100 100s-44.772 100-100 100H800V700c0-55.228 44.772-100 100-100zM300 600h100v100c0 55.228-44.772 100-100 100s-100-44.772-100-100 44.772-100 100-100z"/><path fill="#06818E" d="M800 800H600c0-55.228 44.772-100 100-100s100 44.772 100 100z"/><path fill="#16A3B2" d="M1600 400h-200c0-55.228 44.772-100 100-100s100 44.772 100 100z"/><path fill="#FE5E33" d="M600 600H400c0-55.228 44.772-100 100-100s100 44.772 100 100z"/><path fill="#FFF" d="M1200 800h200v200h-200z"/><path fill="#FE5E33" d="M1200 1000h200v200h-200z"/><path fill="#FFC641" d="M400 600h200v200H400zM400 800h200v100c0 55.228-44.772 100-100 100s-100-44.772-100-100V800z"/><path fill="#06818E" d="M800-100C800-44.772 755.228 0 700 0c0-55.228 44.772-100 100-100zM600 100C600 44.772 644.772 0 700 0c0 55.228-44.772 100-100 100zM700 0c-55.228 0-100-44.772-100-100 55.228 0 100 44.772 100 100zm0 0c55.228 0 100 44.772 100 100-55.228 0-100-44.772-100-100z"/><path fill="#FE5E33" d="M1200 400h200v200h-200z"/><path fill="#111747" d="M0 1000h200v200H0z"/><path fill="#FE5E33" d="M1200 0h200v200h-200z"/><path fill="#16A3B2" d="M0 200h200v200H0zM1400 400h200v200h-200z"/><path fill="#06818E" d="M1000 0h200v200h-200z"/><path fill="#FE5E33" d="M0 600h200v200H0zM1200 600h200v200h-200z"/><path fill="#111747" d="M1200 600h100c55.228 0 100 44.772 100 100s-44.772 100-100 100-100-44.772-100-100V600z"/><path fill="#16A3B2" d="M1200 600c-55.228 0-100-44.772-100-100s44.772-100 100-100v200zM1200 600V400c55.228 0 100 44.772 100 100s-44.772 100-100 100zM1400 800h100c55.228 0 100 44.772 100 100s-44.772 100-100 100h-100V800zM1400 1000c-55.228 0-100-44.772-100-100s44.772-100 100-100v200z"/><path fill="#FF87A2" d="M0 400h200v200H0z"/><path fill="#FFC641" d="M1000 800h200v200h-200z"/><path fill="#FF87A2" d="M1400 600h200v200h-200zM1100 600h100v200h-100c-55.228 0-100-44.772-100-100s44.772-100 100-100zM200 400h200c0 55.228-44.772 100-100 100s-100-44.772-100-100z"/><path fill="#FE5E33" d="M800 400h200c0 55.228-44.772 100-100 100s-100-44.772-100-100z"/><path fill="#FF87A2" d="M200 200h200v200H200zM400 200H200c0-55.228 44.772-100 100-100s100 44.772 100 100z"/><path fill="#06818E" d="M400 0c0 55.228-44.772 100-100 100C300 44.772 344.772 0 400 0z"/><path fill="#111747" d="M200 200c0-55.228 44.772-100 100-100 0 55.228-44.772 100-100 100z"/><path fill="#FFF" d="M350 386.577c-29.89-17.29-50-49.608-50-86.622s20.11-69.331 50-86.622c29.89 17.29 50 49.608 50 86.622s-20.11 69.331-50 86.622z"/><path fill="#111747" d="M800 200c0 55.228-44.772 100-100 100 0-55.228 44.772-100 100-100z"/><path fill="#16A3B2" d="M1000 400c55.228 0 100 44.772 100 100-55.228 0-100-44.772-100-100z"/><path fill="#FFC641" d="M1400 600c0 55.228-44.772 100-100 100 0-55.228 44.772-100 100-100zM200 200c0 55.228-44.772 100-100 100 0-55.228 44.772-100 100-100z"/><path fill="#FE5E33" d="M200 800V600c55.228 0 100 44.772 100 100s-44.772 100-100 100z"/><path fill="#16A3B2" d="M0 800c0-55.228 44.772-100 100-100 0 55.228-44.772 100-100 100z"/><path fill="#06818E" d="M0 0h200v200H0z"/><path fill="#16A3B2" d="M1186.577 250c-17.29 29.89-49.608 50-86.622 50s-69.331-20.11-86.622-50c17.29-29.89 49.608-50 86.622-50s69.331 20.11 86.622 50z"/><path fill="#06818E" d="M0 400c0-55.228 44.772-100 100-100 0 55.228-44.772 100-100 100z"/><path fill="#FFF" d="M600 600c0-55.228 44.772-100 100-100 0 55.228-44.772 100-100 100z"/><path fill="#16A3B2" d="M150 986.577c-29.89-17.29-50-49.608-50-86.622s20.11-69.331 50-86.622c29.89 17.29 50 49.608 50 86.622s-20.11 69.331-50 86.622zm-100 0c-29.89-17.29-50-49.608-50-86.622s20.11-69.331 50-86.622c29.89 17.29 50 49.608 50 86.622s-20.11 69.331-50 86.622z"/><path fill="#111747" d="M950 986.577c-29.89-17.29-50-49.608-50-86.622s20.11-69.331 50-86.622c29.89 17.29 50 49.608 50 86.622s-20.11 69.331-50 86.622zM1400 400h200v200h-200z"/><path fill="#16A3B2" d="M400 800h200v200H400z"/><path fill="#FFF" d="M300 700h200v200H300z"/><path fill="#FE5E33" d="M400 600h200v200H400z"/><path fill="#FFC641" d="M1500 450c27.614 0 50 22.386 50 50s-22.386 50-50 50-50-22.386-50-50 22.386-50 50-50zM500 450c27.614 0 50 22.386 50 50s-22.386 50-50 50-50-22.386-50-50 22.386-50 50-50z"/><path fill="#111747" d="M100 450c27.614 0 50 22.386 50 50s-22.386 50-50 50-50-22.386-50-50 22.386-50 50-50z"/><path fill="#FE5E33" d="M700 850c27.614 0 50 22.386 50 50s-22.386 50-50 50-50-22.386-50-50 22.386-50 50-50zM900 650c27.614 0 50 22.386 50 50s-22.386 50-50 50-50-22.386-50-50 22.386-50 50-50z"/><path fill="#16A3B2" d="M300 850c27.614 0 50 22.386 50 50s-22.386 50-50 50-50-22.386-50-50 22.386-50 50-50zM1100 650c27.614 0 50 22.386 50 50s-22.386 50-50 50-50-22.386-50-50 22.386-50 50-50z"/><path fill="#FE5E33" d="M100 850c27.614 0 50 22.386 50 50s-22.386 50-50 50-50-22.386-50-50 22.386-50 50-50z"/><path fill="#FFC641" d="M900 250c27.614 0 50 22.386 50 50s-22.386 50-50 50-50-22.386-50-50 22.386-50 50-50z"/><path fill="#111747" d="M300 650c27.614 0 50 22.386 50 50s-22.386 50-50 50-50-22.386-50-50 22.386-50 50-50z"/><path fill="#FE5E33" d="M700 350c27.614 0 50 22.386 50 50s-22.386 50-50 50-50-22.386-50-50 22.386-50 50-50zM1500 850c27.614 0 50 22.386 50 50s-22.386 50-50 50-50-22.386-50-50 22.386-50 50-50z"/><path fill="#111747" d="M1400 100c0 55.228-44.772 100-100 100 0-55.228 44.772-100 100-100zm-200 200c0-55.228 44.772-100 100-100 0 55.228-44.772 100-100 100zm100-100c-55.228 0-100-44.772-100-100 55.228 0 100 44.772 100 100zm0 0c55.228 0 100 44.772 100 100-55.228 0-100-44.772-100-100zM1100 1100c0-55.228 44.772-100 100-100 0 55.228-44.772 100-100 100z"/><path fill="#06818E" d="M400 0h200v100c0 55.228-44.772 100-100 100s-100-44.772-100-100V0z"/><path fill="#FE5E33" d="M500 100C500 44.772 544.772 0 600 0c0 55.228-44.772 100-100 100z"/><path fill="#111747" d="M200 1000h200v200H200z"/><path fill="#FE5E33" d="M400 1000H200c0-55.228 44.772-100 100-100s100 44.772 100 100z"/><path fill="#111747" d="M1500 0h100v200h-100c-55.228 0-100-44.772-100-100S1444.772 0 1500 0z"/><path fill="#FFF" d="M1500 50c27.614 0 50 22.386 50 50s-22.386 50-50 50-50-22.386-50-50 22.386-50 50-50z"/><path fill="#16A3B2" d="M100 1100c0-55.228 44.772-100 100-100 0 55.228-44.772 100-100 100zM1600 1000c0 55.228-44.772 100-100 100 0-55.228 44.772-100 100-100zm-200 200c0-55.228 44.772-100 100-100 0 55.228-44.772 100-100 100zm100-100c-55.228 0-100-44.772-100-100 55.228 0 100 44.772 100 100zm0 0c55.228 0 100 44.772 100 100-55.228 0-100-44.772-100-100z"/><path fill="#FFC641" d="M1586.577 250c-17.29 29.89-49.608 50-86.622 50s-69.331-20.11-86.622-50c17.29-29.89 49.608-50 86.622-50s69.331 20.11 86.622 50z"/><path fill="#06818E" d="M900 700c0 55.228-44.772 100-100 100 0-55.228 44.772-100 100-100z"/><path fill="#111747" d="M200-100C200-44.772 155.228 0 100 0c0-55.228 44.772-100 100-100zM0 100C0 44.772 44.772 0 100 0c0 55.228-44.772 100-100 100zM100 0C44.772 0 0-44.772 0-100c55.228 0 100 44.772 100 100zm0 0c55.228 0 100 44.772 100 100-55.228 0-100-44.772-100-100z"/><path fill="#16A3B2" d="M600 700c0 55.228-44.772 100-100 100 0-55.228 44.772-100 100-100zM400 900c0-55.228 44.772-100 100-100 0 55.228-44.772 100-100 100zm100-100c-55.228 0-100-44.772-100-100 55.228 0 100 44.772 100 100zm0 0c55.228 0 100 44.772 100 100-55.228 0-100-44.772-100-100z"/></g></svg>