<svg xmlns="http://www.w3.org/2000/svg" fill="none" viewBox="0 0 207.1 162.7"><path fill="url(#cloud1_linear)" d="M158 1c-32-3-62 0-91 15-33 15-55 53-64 87-3 12-5 26-1 38 10 29 38 24 60 13 12-6 23-15 33-24 17-15 39-26 53-45 5-6 8-13 14-18 9-8 21-14 30-21s17-17 15-27c-3-10-16-14-27-16l-22-2z"/><defs><linearGradient id="cloud1_linear" x1="159.1" x2="49.5" y1="8.8" y2="117.2" gradientTransform="translate(-17 -11)" gradientUnits="userSpaceOnUse"><stop offset="1" stop-color="#FFD3D2"/><stop offset="1" stop-color="snow"/></linearGradient></defs></svg>