<svg xmlns="http://www.w3.org/2000/svg" fill="none" viewBox="0 0 258.4 238.5"><path fill="url(#contagion30_linear)" d="M104.3 240.7a85 85 0 01-45.2 4.6C41.5 242 26.2 227 17.6 212a33.9 33.9 0 01-5.4-18.2c.7-14.9 14.8-16.5 26.7-14.1a77 77 0 0119 7.4c10 5 21.9 7.6 31 14.6 3 2.3 5.3 5.2 8.8 6.9 5.5 2.7 11.8 4 17.4 6.3 4.8 2.1 10.2 5.6 10.2 10.8 0 5.4-5.6 8.8-10.5 11-3.5 1.5-7 2.9-10.5 4.1z" transform="translate(-10.7 -8.2)"/><path fill="url(#contagion31_linear)" d="M50.4 49.4C74.4 14 124-.2 164.3 13c19.4 6.4 35.6 19.8 50.6 33.6C228.1 59 241 72.1 250 88a147.4 147.4 0 0113.7 35.6c4.7 18 .4 41.1-22.8 39.4-5.5-.4-10.2-2.3-15.3-4-4.1-1.5-8.2-.6-12.4-1.3a115.5 115.5 0 01-31-10.3c-20-9.5-38.3-22.4-58.9-30.7a142.6 142.6 0 00-53-10.3c-7.7 0-15.8.5-22.7-3-16.9-8.4-9.3-31.2-3-44 1.7-3.5 3.6-6.8 5.8-10z" transform="translate(-10.7 -8.2)"/><path fill="url(#contagion32_linear)" d="M238.6 54.7c4 3.6 19.5 13.4 19.8 1.9 0-2.9-1.2-5.6-3-7.7-2-2.4-4.3-3.7-5.9-6.5-2-3.4-4.1-6.6-6.5-9.5A43.1 43.1 0 00225 18.7c-4.9-1.8-13.3-1.3-15.6 5C206 32.9 220.7 34.6 225 38c4.3 3.1 6.7 8.6 10 13 1 1.3 2.3 2.6 3.5 3.7z" transform="translate(-10.7 -8.2)"/><path fill="url(#contagion33_linear)" d="M165.5 43.5c8.4 5 14.7 12.3 22.3 18.2 12.7 10 30.1 12 44.7 18.8a56 56 0 0131.2 33.7c6.5 20.3 7.1 44.4 1.6 65.3a72.7 72.7 0 01-41.6 48.4 172 172 0 01-74.4 16c-50.5.3-117.7-17.5-135-71.7 0-.5-.2-1-.4-1.5a79 79 0 01-3-18.6c-1.2-22.3 2.8-47 10.6-67.9 5.2-14 16.6-26 28.5-34.4 16.8-12 37.2-15 57.6-16.4 15-1 32-1.5 46.3 4.3 4 1.6 7.9 3.6 11.6 5.8z" transform="translate(-10.7 -8.2)"/><path fill="#fb4c47" d="M177.2 90.8l-1.6 23.1-2.6 36.4-.7 9.2a6735.1 6735.1 0 01-3 41.3c-.6 3.3-10 9.5-32 9.5-21.9 0-34.6.4-38.9-4.9-.6-.8-1.4-3.9-2.2-8.6-1.9-10.3-4-28.1-6-46.2-1.3-11.2-2.4-22.4-3.4-32l-2.5-25.4 26.6-.7 33.9-.9z"/><path fill="#d9423d" d="M175.6 114l-2.6 36.3c-8.5 2.3-33.6 7-82.8.3-1.3-11.2-2.4-22.4-3.4-32 13 1.5 55 5.2 88.8-4.7zM169.9 193l-.7 7.8c-.5 3.3-10 9.5-31.9 9.5s-34.6.4-38.9-4.9c-.6-.8-1.4-3.9-2.2-8.6 11.5 2 44 6.4 73.7-3.7z"/><path fill="#ff807c" d="M180.1 92c-1.5 1.7-13.9 7.5-47.7 9.2l-9.1.2c-25.5.2-40.2-4.4-40.5-5.3-.3-1-1-7.8-.1-8.7.8-.7 10.5 4.3 38.4 3.5l11.1-.6c32.9-2.4 43.4-7.5 46-7.6l.7.1c1.2 1.2 2.7 7.5 1.2 9.2z"/><path fill="#c63f3b" d="M178.2 83.5c-1.1 4.4-35.5 12.6-52.3 12.2l-4.2-.1c-17-.8-41-4.3-39-8.2.2-.3 7-10.3 34-13l5.2-.5 2.9-.1h.5a97.6 97.6 0 016.5-.2c32.6-.2 46 5 46.5 9v.9z"/><path fill="#f5c827" d="M140 94.6c-.6.9-3.5 1.6-6.8 2-3.2.4-7 .5-9.2-.2-1.1-.2-1.9-.6-2.2-1.2a240.3 240.3 0 01-3.2-11.5l-.3-1.3-1.7-7.2-1.1-4.5a374.2 374.2 0 00-2.7-10.7 37.9 37.9 0 00-2.3-6.6l-.5-.1a50 50 0 00-7.7.3c-7 .5-16 1.3-16.9-.4-.5-1-.8-3.3-1-5.8-.1-3.9.3-8.4 2-9.4a61 61 0 0115.4-2c3.9-.1 8-.2 11.5 0 4.4.1 8 .6 9.3 1.5.6.4 1.3 1.7 2.2 3.5 1.2 2.6 2.6 6.5 4.1 11a558.6 558.6 0 015.4 17.4l.3 1.4.5 1.7a753.7 753.7 0 014 16c.8 3.4 1 5.7.8 6z"/><path fill="#ffae00" d="M139 88.3l-7.7 1.8-10.7 2.5-2.4-8.9 10.4-3 7.8-2.3c1 3.8 2 7.2 2.5 9.9zM134.6 70.5l-7.9 2-10 2.6-1.2-4.7-.6-2.6 9.3-4.4 7.4-3.5a409.8 409.8 0 013 10.6zM129.1 52l-7.4 3.6-9.1 4.3a36 36 0 00-2-6l8-7 6.3-5.6c1.2 2.6 2.7 6.4 4.2 10.8zM112.8 36l-1.5 8.4-1.6 8.7c-1.2-.2-4 0-7.3.2L102 45l-.2-9c3.7-.1 7.5-.2 10.9 0z"/><path fill="#fff" d="M139.6 81c8.2.3 16.3 1.2 24.3 2.7 2.6.4 3.7-3.5 1.1-4a185 185 0 00-25.4-2.9c-2.7 0-2.7 4 0 4.1z" opacity=".3"/><g opacity=".3"><path fill="#ffc7d3" d="M165 111.6c-.5 14.8-1.4 29.7-2.8 44.5-.3 2.6 3.8 2.6 4 0 1.5-14.8 2.4-29.7 2.9-44.5 0-2.7-4-2.7-4.1 0zM164 167.4c2.7 0 2.7-4 0-4-2.6 0-2.6 4 0 4z" opacity=".3"/></g><defs id="defs66"><linearGradient id="contagion30_linear" x1="10.9" x2="26.1" y1="195.7" y2="248.5" gradientUnits="userSpaceOnUse"><stop offset="1" id="stop46" stop-color="#FFD0D0"/><stop id="stop48" offset="1" stop-color="#FFF7F7"/></linearGradient><linearGradient id="contagion31_linear" x1="294.9" x2="124.7" y1="54.5" y2="15.2" gradientUnits="userSpaceOnUse"><stop offset="1" id="stop51" stop-color="#FFF7F7"/><stop id="stop53" offset="1" stop-color="#FFD0D0"/></linearGradient><linearGradient id="contagion32_linear" x1="258.8" x2="200.4" y1="56.4" y2="31.4" gradientUnits="userSpaceOnUse"><stop offset="1" id="stop56" stop-color="#FFD0D0"/><stop id="stop58" offset="1" stop-color="#FFFBFC"/></linearGradient><linearGradient id="contagion33_linear" x1="245.6" x2="10.9" y1="220.9" y2="84.9" gradientUnits="userSpaceOnUse"><stop offset="1" id="stop61" stop-color="#FFCFCF"/><stop id="stop63" offset="1" stop-color="#FFF8F8"/></linearGradient></defs></svg>