<svg xmlns="http://www.w3.org/2000/svg" fill="none" viewBox="0 0 253.4 233.9"><path fill="url(#contagion1_linear)" d="M102.3 236a83.3 83.3 0 01-44.4 4.6c-17.2-3.3-32.2-18-40.6-32.8a33.2 33.2 0 01-5.4-17.9c.8-14.5 14.5-16.1 26.2-13.8a75.7 75.7 0 0118.6 7.3c10 5 21.5 7.4 30.4 14.3 3 2.3 5.2 5 8.7 6.8 5.4 2.6 11.6 3.8 17 6.2 4.8 2 10.1 5.4 10.1 10.6 0 5.2-5.5 8.6-10.3 10.7-3.5 1.5-6.9 2.9-10.3 4z" transform="translate(-10.4 -8)"/><path fill="url(#contagion11_linear)" d="M49.4 48.4C72.9 13.7 121.6-.2 161 12.8c19 6.3 35 19.4 49.7 33 13 12 25.5 25 34.4 40.4 6 10.5 10.4 23.1 13.4 34.9 4.6 17.6.4 40.3-22.4 38.7-5.3-.4-10-2.3-15-4-4-1.4-8-.6-12.1-1.2a113.3 113.3 0 01-30.4-10.2c-19.7-9.3-37.6-21.9-57.8-30a139.8 139.8 0 00-52-10.2c-7.6 0-15.5.5-22.2-2.8-16.6-8.3-9.1-30.7-3-43.3 1.7-3.4 3.6-6.6 5.7-9.7z" transform="translate(-10.4 -8)"/><path fill="url(#contagion12_linear)" d="M234 53.6c3.9 3.6 19.1 13.1 19.4 1.9 0-2.8-1.2-5.5-3-7.6-1.9-2.3-4.1-3.6-5.7-6.3a65 65 0 00-6.4-9.3 42.3 42.3 0 00-17.5-14c-4.8-1.7-13-1.3-15.4 5-3.3 9 11 10.6 15.4 14 4.2 3 6.5 8.4 9.8 12.7a28 28 0 003.4 3.6z" transform="translate(-10.4 -8)"/><path fill="url(#contagion13_linear)" d="M162.3 42.6c8.2 4.9 14.4 12.1 21.9 18 12.4 9.6 29.5 11.6 43.8 18.4a55 55 0 0130.6 33c6.4 19.9 7 43.5 1.6 64a71.3 71.3 0 01-40.8 47.5 168.6 168.6 0 01-73 15.7C97 239.5 31 222.1 14.2 168.8l-.4-1.4c-1.8-6-2.8-12-3-18.2-1.1-22 2.7-46 10.4-66.6a76.7 76.7 0 0128-33.8c16.4-11.7 36.5-14.7 56.4-16 14.8-1.1 31.5-1.5 45.4 4.2a85 85 0 0111.4 5.6z" transform="translate(-10.4 -8)"/><path fill="#fb4c47" d="M183.5 225.1c-63.5 18.5-113.5 2-132-9.2l-17.2-13.2 6-9.8 37-3.3 61.5-3.3 49.6 9.9 9.5-4.9 1.7 17.5c2.2 13.6.5 10.2-16 16.3z"/><path fill="#fb4c47" d="M65.5 217.3h108.7s9.7-81.1-4.6-89c-14.4-8-81.3-6.3-96.1.4-14.9 6.8-8 88.6-8 88.6z"/><path fill="#000c3e" d="M70.5 111.2c-.2 0-.5-.1-.6-.3-.1 0-9.5-9.2-3-25.3C69 80 71.1 76 73 72.6a49 49 0 006.9-21c0-.4.5-.8 1-.7.5 0 .8.5.8 1-1.2 10.3-3.8 15.3-7.1 21.5a123 123 0 00-6.2 12.9c-6 15 2.5 23.2 2.6 23.3.4.3.4 1 0 1.3-.1.2-.4.3-.6.3zM130.9 15.7a12.4 12.4 0 11-24.9-1 12.4 12.4 0 0124.9 1z"/><path fill="#000c3e" d="M69.6 106.3s3.1 7.8 17.8 11.5c14.7 3.7 26.7-.8 37.9 4.2 11.1 5 28 .7 31.7-3.9 3.6-4.6 6.8-58-1.6-67.6C147 40.9 100 30 89 39.8c-11 9.7-25.5 60-19.5 66.5z"/><path fill="#000c3e" d="M161.8 67.3a41 41 0 01-42.5 39.4c-22.6-.8-43.6-20.9-42.7-43.5.8-22.6 20-39 42.6-38.2 22.6.9 43.4 19.7 42.6 42.3z"/><path fill="#ffceb0" d="M137.6 101.6s2.7 31.9 0 35.4c-2.6 3.6-19.4 1-23.9 0-4.4-.8-6.2-35.4-3.5-35.4 2.6 0 27-7.2 27.4 0z"/><path fill="#ffceb0" d="M87.4 64.2s1.7 49.8 35.3 52c33.6 2 33.6-68 21.4-74.7C132 34.8 81.2 36 87.4 64.2z"/><path fill="#ee9b68" d="M127.3 74.9s6.5 15.3 4.8 16.3c-1.6 1-6.5.8-7.8-.3-1.3-1.1.4-17.7 3-16z"/><path fill="#000c3e" d="M113.9 37.7s-12 5.8-14.4 16.8c-2.3 11-1 39-13.8 37.7 0 0-24.8-55.5 28.2-54.5zM120.2 38c-1 .7 12.4.7 20.2 10 7.7 9.4 9.5 32.9 10.7 33.3 1.2.4 6-29-2.5-37.9-8.4-8.9-22.2-10-28.4-5.5z"/><path fill="#ee9b68" d="M110.6 111.6s13.1 7.4 26.7.5c0 0 1 8.3 0 10.3-1 1.9-22.6 3.3-26.8-6.2 0 0-1-5 .1-4.6z"/><path fill="#ffceb0" d="M148 83.3s2.6-12.5 7-8.1.3 17.4-4.1 18.7c-4.4 1.2-5.4-4.2-3-10.6zM95.2 81.3S93 68.6 87 72.6c-5.9 4-1.8 17.4 3.6 19 5.5 1.6 7.2-3.7 4.6-10.3z"/><path fill="#41294a" d="M134.4 67.9s5.6-3.8 9.7.3c3.6 3.6-4 1.2-6.7 2-2.6.8-6.2 1-3-2.3zM119.7 68.8s-5.4-4.1-9.7-.3c-3.9 3.4 4 1.4 6.5 2.4 2.6 1 6.2 1.3 3.2-2.1z"/><path fill="#fffcf6" d="M113.9 72.8a9.7 9.7 0 00-.4 19.4h.4a9.6 9.6 0 007-16.3 9.6 9.6 0 00-6.7-3zm0 20.6h-.4a11 11 0 11.4 0z"/><path fill="#fffcf6" d="M103.6 82.8h-.2l-9.1-3.9a.6.6 0 01-.4-.8c.2-.3.5-.4.8-.3l9.1 3.8a.6.6 0 01-.2 1.2z"/><path fill="#000c3e" d="M124.7 42.3s-1.3 19.3 6.1 21.8c7.4 2.4 21.8 2.2 22.7-.8.8-3-14.2-26.7-25-30.5-19-6.7-36.2 21.3-34 28.7 2.1 7.4 24.7 4.4 28.2 3.4 3.4-1 1.3-17.3 2-22.6z"/><path fill="#fffcf6" d="M124.7 83a.6.6 0 010-1.3l6.1-.4c.4 0 .6.2.7.5 0 .4-.3.7-.6.7l-6.1.4z"/><path fill="#000c3e" d="M110.7 27.6l-.4-.1c-3.6-1.9-5.8-4.5-6.4-7.7-1.4-7.2 5-14.9 5.4-15.2a1 1 0 011.3 1.2s-6.2 7.3-5 13.6c.6 2.7 2.4 4.9 5.5 6.5a.9.9 0 01-.4 1.7zM125 29.8a1 1 0 01-.6-1.6c.1 0 7.4-6.2 7.2-12.7 0-2.7-1.5-5.1-4.3-7.2a.9.9 0 011-1.5c3.3 2.5 5 5.4 5.1 8.7.2 7.3-7.5 13.8-7.8 14a1 1 0 01-.6.3zM153.9 116.3a.9.9 0 01-.5-1.7c.3-.2 8.8-6 7.5-17-.5-4.3-1.7-9-3-14.1-2-8.8-4.3-18-3.7-26.5 0-.5.4-.9 1-.8.4 0 .8.4.8 1a88.7 88.7 0 003.7 25.9c1.3 5 2.5 9.9 3 14.3 1.5 12-8 18.5-8.3 18.7l-.5.2z"/><path fill="#000c3e" d="M161.7 71.4h-.1a.9.9 0 01-.8-1c2-14-2-25.1-11.7-33-7.3-6-15.2-7.8-15.3-7.8a.9.9 0 11.4-1.7c.3 0 33.3 7.7 28.4 42.8 0 .4-.5.7-1 .7z"/><path fill="#ee9b68" d="M129 106.9c-1.8 0-3.2-.6-3.3-.6a.9.9 0 01.7-1.7s2.7 1.1 5.1 0c.5-.3 1-.1 1.2.3.2.5 0 1-.4 1.3-1.1.5-2.3.7-3.3.7zM91.8 88.4a.9.9 0 01-.9-1.1c1.9-6-2.5-10-2.5-10a.9.9 0 011.2-1.4c.2.2 5.2 4.8 3 11.9 0 .4-.4.6-.8.6zM151 88.6h-.2a.9.9 0 01-.8-1c.4-5.7 4-8.7 4.2-8.8.4-.3 1-.2 1.2.1.4.4.3 1-.1 1.3 0 0-3.1 2.6-3.5 7.6 0 .4-.4.8-.9.8z"/><path fill="#ffceb0" d="M90.6 131.5s31.1 27.6 48.5 20.4c17.3-7.2 22.4-24 13.7-26.7-8.7-2.6-75.8-4.5-62.2 6.3z"/><path fill="#ee9b68" d="M130.8 103.7h-.3c-2.8-1.1-4.2-2.4-4.3-4 0-2.5 3.8-4.2 4.2-4.4a.9.9 0 11.8 1.6c-1.3.6-3.2 1.9-3.2 2.8 0 .7 1.2 1.5 3.1 2.2a1 1 0 01-.3 1.8z"/><path fill="#41294a" d="M116.5 85c-.3 0-.6 0-.8-.3-4-3.5-6.8-2.6-7-2.6-.6.3-1.3 0-1.5-.7-.2-.6 0-1.3.7-1.5.2 0 4.2-1.6 9.4 3a1.2 1.2 0 01-.8 2.1zM137.8 85.3a1.2 1.2 0 01-.8-2.1c5.2-4.7 9.2-3.2 9.4-3a1.2 1.2 0 01-.9 2.2c-.1 0-3-1-7 2.6-.2.2-.4.3-.7.3z"/><path fill="#000c3e" d="M213.1 104.3l-22.8-6.6-6.7 8.6-16.2-1.7 19 9.3 6.7-10.8zM193.3 87.6l-14.4.3-2.4 6.2-9.7 1.8 12.7 2 2-7.4z"/><path fill="#fffcf6" d="M141 71.3a9.7 9.7 0 00-.4 19.4h.5a9.7 9.7 0 00.4-19.4zm.1 20.6h-.4a11 11 0 11.4 0z"/><path fill="#ffbd96" d="M106 174s18.3-21.6 34.3-51c6.3-11.6 18-14.4 18.4-12.7.5 1.6-6.8 8.3-6.8 8.3s9.7-7.1 11.2-4.8c1.6 2.3-6.3 9.4-6.3 9.4s7-4 10-2.4c3 1.7-8.3 4-8 9.8C162 222 119 214.8 119 214.8z"/><path fill="#ee9b68" d="M124.3 153.3a.9.9 0 01-.8-1.3c10.5-25.8 17-29.5 17.3-29.7a1 1 0 01.8 1.6s-6.3 4-16.4 28.8a1 1 0 01-.9.6z"/><path fill="#fb4c47" d="M96.4 190.2l-62 5s-2.2-29.8 6.8-45.1c9-15.4 34-22.3 38-23.2 4.3-.9 17.2 63.3 17.2 63.3z"/><path fill="#d9423d" d="M167.8 127.4s22.4 4.8 26.7 28.5c2.7 15.1 6.6 63.4 6.6 63.4l-10 3.9-9.2 2.7-19.3 4.4zM103.6 170.1s26.5 43.5 17.3 44.7c-9.2 1.2-56.2 4.9-68.8 0-12.7-4.8-19.1-10.7-17.5-24-1.4-20.7 5.3-46 8.7-40.2 17.1 29 60.3 19.5 60.3 19.5z"/><path fill="#b43936" d="M101 171.3c-17.6 0-33.5-17.4-34.1-18.1a1.2 1.2 0 011.7-1.6c.2.1 15.9 17.3 32.3 17.3a1.2 1.2 0 010 2.4zM171.3 214.4c-.7 0-1.2-.6-1.2-1.3 0-.3.8-31 0-44.7-.6-12.9-4-15.8-4-15.8-.5-.4-.6-1.2-.2-1.7.4-.5 1.1-.6 1.6-.2.5.3 4.3 3.5 5 17.6.8 13.9 0 44.6 0 44.9 0 .6-.5 1.2-1.2 1.2z"/><path fill="#ffd310" d="M122 5.2l-1 .1c-.9.2-1.5.6-1.8 1.4-1.6 3.4 1.7 11.5 4 16.3 1.6-5.3 3.3-14.2.8-17-.4-.5-1.1-.8-2-.8zm1.6 21.8c-.4 0-.8-.2-1-.5-.8-1.5-8.1-14.9-5.4-20.7a4.6 4.6 0 013.4-2.6c2.7-.6 4.3.4 5 1.3 4.4 5-.4 20-1 21.8a1.1 1.1 0 01-1 .7z"/><path fill="#ffd310" d="M136.9 10.6h-.3c-3.7.5-8.2 8.4-10.6 13.4 5-2 12.8-6 13.8-9.7.2-.8 0-1.5-.5-2.2-.8-1-1.6-1.5-2.4-1.5zm-13 16.5a1.1 1.1 0 01-1-1.5c.7-1.7 7-16.3 13.4-17.1 1.2-.2 3 0 4.7 2.2 1 1.3 1.3 2.8 1 4.2-1.9 6.2-16.1 11.6-17.7 12.2h-.4z"/><path stroke="#ffd310" stroke-width="1.6" d="M103.2 23.2a27.1 27.1 0 0027.1 0"/><defs id="defs118"><linearGradient id="contagion1_linear" x1="10.7" x2="25.6" y1="191.9" y2="243.7" gradientUnits="userSpaceOnUse"><stop offset="1" id="stop98" stop-color="#FFD8D8"/><stop id="stop100" offset="1" stop-color="#FFF8F8"/></linearGradient><linearGradient id="contagion11_linear" x1="259.3" x2="102.8" y1="79.4" y2="-19.4" gradientUnits="userSpaceOnUse"><stop offset="1" id="stop103" stop-color="#FFF8F8"/><stop id="stop105" offset="1" stop-color="#FFCFCF"/></linearGradient><linearGradient id="contagion12_linear" x1="253.8" x2="196.5" y1="55.3" y2="30.8" gradientUnits="userSpaceOnUse"><stop offset="1" id="stop108" stop-color="#FFD7D7"/><stop id="stop110" offset="1" stop-color="#FFF9F9"/></linearGradient><linearGradient id="contagion13_linear" x1="240.9" x2="10.7" y1="216.6" y2="83.3" gradientUnits="userSpaceOnUse"><stop offset="1" id="stop113" stop-color="#FFCFCF"/><stop id="stop115" offset="1" stop-color="#FFF8F8"/></linearGradient></defs></svg>