<svg xmlns="http://www.w3.org/2000/svg" fill="none" viewBox="0 0 267 246.4"><path fill="url(#paint0_linear)" d="M107.8 280.3A87.8 87.8 0 0161 285c-18.1-3.5-34-19-42.8-34.5a35 35 0 01-5.6-18.9c.8-15.3 15.3-17 27.6-14.5 6.9 1.4 13.3 4.5 19.5 7.7 10.5 5.2 22.7 7.8 32.1 15 3.2 2.4 5.5 5.4 9.2 7.1 5.6 2.8 12.1 4.1 18 6.6 5 2.2 10.5 5.7 10.5 11.1 0 5.6-5.8 9.2-10.9 11.4a159 159 0 01-10.8 4.3z" transform="translate(-11 -40)"/><path fill="url(#paint1_linear)" d="M52 82.5C77 45.9 128.3 31.2 169.9 45c20 6.6 36.8 20.4 52.3 34.8 13.7 12.6 27 26.2 36.3 42.5 6.3 11 11 24.4 14.1 36.8 4.8 18.6.5 42.5-23.5 40.7-5.7-.4-10.6-2.4-15.8-4.2-4.3-1.4-8.5-.5-12.9-1.2a119.3 119.3 0 01-32-10.7c-20.7-9.8-39.6-23.1-60.9-31.7-17.4-7-36-10.7-54.8-10.7-8 0-16.3.5-23.4-3-17.5-8.8-9.6-32.3-3-45.6A83 83 0 0152 82.5z" transform="translate(-11 -40)"/><path fill="url(#paint2_linear)" d="M246.6 88c4 3.7 20.1 13.8 20.4 2 .1-3-1.2-5.9-3-8-2.1-2.5-4.5-3.8-6.1-6.7-2-3.5-4.3-6.8-6.8-9.8a44.6 44.6 0 00-18.4-14.7c-5.1-1.8-13.8-1.4-16.2 5.2-3.5 9.5 11.6 11.2 16.2 14.7 4.4 3.3 6.8 9 10.3 13.4 1 1.4 2.3 2.7 3.6 4z" transform="translate(-11 -40)"/><path fill="url(#paint3_linear)" d="M171 76.4c8.7 5.1 15.2 12.7 23 18.9 13.2 10.2 31.2 12.3 46.3 19.4a57.9 57.9 0 0132.2 34.8c6.8 21 7.4 45.9 1.7 67.5a75.2 75.2 0 01-43 50 177.7 177.7 0 01-76.9 16.6c-52.2.3-121.6-18.1-139.4-74.2l-.5-1.5c-1.8-6.3-3-12.7-3.2-19.2a182 182 0 0111-70.2A80.8 80.8 0 0151.7 83C69 70.6 90.2 67.5 111.2 66c15.6-1 33.1-1.4 47.9 4.6 4.1 1.6 8.1 3.6 12 6z" transform="translate(-11 -40)"/><path fill="#e27b5a" d="M62.4 71.8s53 71 66.3 76.8c13.3 5.8 30 4.5 31.4 11.3 1.5 6.8-27.9-4.7-23.2 5.8 4.7 10.5 23 22.5 23 33 .1 10.6-29-22.6-29-22.6s27.4 30.4 18.3 31.1c-9 .7-32.5-29-32.5-29s26.2 39 17.5 35.4c-8.7-3.5-89.4-96.9-101.9-106.8-12.4-9.9 30-35 30-35z"/><path fill="#ffceb0" d="M216.8 89s-60.6 64.6-74.4 69c-13.8 4.4-30.2 1.2-32.4 7.8-2.2 6.6 28.2-1.6 22.4 8.3-5.8 10-25.3 19.8-26.5 30.3-1.3 10.5 31.3-19.3 31.3-19.3s-30.6 27.2-21.6 29c9 1.6 35.5-25.3 35.5-25.3s-30.4 35.9-21.3 33.3c9-2.6 99.5-86.5 113-95 13.4-8.4-26-38-26-38z"/><path fill="#fb4c47" d="M165.2 133.9s18.7 35.3 35.8 39c17 3.8 54-29.7 62.1-46.3 8.1-16.6-31.2-66.7-39.7-74-12.1-1.4-66.8 49.9-58.2 81.3z"/><path fill="#128e5a" d="M49.7 37.6S111 98 108 113.6c-2.9 15.7-26.2 34.5-45 40.7-19 6.1-60.2-18.6-60.2-36.7-3-30.7 12.6-62.5 47-80z"/><defs id="defs38"><linearGradient id="paint0_linear" x1="11.2" x2="27" y1="233.7" y2="288.3" gradientUnits="userSpaceOnUse"><stop id="stop18" stop-color="#FFD0D0"/><stop id="stop20" offset="1" stop-color="#FFF8F8"/></linearGradient><linearGradient id="paint1_linear" x1="304.8" x2="128.9" y1="87.8" y2="47.2" gradientUnits="userSpaceOnUse"><stop id="stop23" stop-color="#FFF8F8"/><stop id="stop25" offset="1" stop-color="#FFD0D0"/></linearGradient><linearGradient id="paint2_linear" x1="267.5" x2="207.1" y1="89.8" y2="64" gradientUnits="userSpaceOnUse"><stop id="stop28" stop-color="#FFD0D0"/><stop id="stop30" offset="1" stop-color="#FFF7F7"/></linearGradient><linearGradient id="paint3_linear" x1="253.8" x2="11.2" y1="259.7" y2="119.2" gradientUnits="userSpaceOnUse"><stop id="stop33" stop-color="#FFCFCF"/><stop id="stop35" offset="1" stop-color="#FFF8F8"/></linearGradient></defs></svg>