<svg xmlns="http://www.w3.org/2000/svg" fill="none" viewBox="0 0 49 35"><mask id="a" width="49" height="35" x="0" y="0" maskUnits="userSpaceOnUse"><rect width="49" height="35" fill="#fff" rx="2.6"/></mask><g mask="url(#a)"><path fill="#D02F44" fill-rule="evenodd" d="M49 0H0v2.3h49V0zm0 4.7H0V7h49V4.7zM0 9.3h49v2.4H0V9.3zM49 14H0v2.3h49V14zM0 18.7h49V21H0v-2.3zm49 4.6H0v2.4h49v-2.4zM0 28h49v2.3H0V28zm49 4.7H0V35h49v-2.3z"/><path fill="#46467F" d="M0 0h21v16.3H0z"/><path fill="#fff" fill-rule="evenodd" d="M9.3 3.5a1.2 1.2 0 11-2.3 0 1.2 1.2 0 012.3 0zm-4.6 0a1.2 1.2 0 11-2.4 0 1.2 1.2 0 012.4 0zm8.1 1.2a1.2 1.2 0 100-2.4 1.2 1.2 0 000 2.4zm5.9-1.2a1.2 1.2 0 11-2.4 0 1.2 1.2 0 012.4 0zM5.8 7a1.2 1.2 0 100-2.3 1.2 1.2 0 000 2.3zm5.9-1.2a1.2 1.2 0 11-2.4 0 1.2 1.2 0 012.4 0zM15.2 7a1.2 1.2 0 100-2.3 1.2 1.2 0 000 2.3zm3.5 1.2a1.2 1.2 0 11-2.4 0 1.2 1.2 0 012.4 0zm-5.9 1.1a1.2 1.2 0 100-2.3 1.2 1.2 0 000 2.3zM9.3 8.2a1.2 1.2 0 11-2.3 0 1.2 1.2 0 012.3 0zM3.5 9.3a1.2 1.2 0 100-2.3 1.2 1.2 0 000 2.3zM7 10.5a1.2 1.2 0 11-2.3 0 1.2 1.2 0 012.3 0zm3.5 1.2a1.2 1.2 0 100-2.4 1.2 1.2 0 000 2.4zm5.8-1.2a1.2 1.2 0 11-2.3 0 1.2 1.2 0 012.3 0zm1.2 3.5a1.2 1.2 0 100-2.3 1.2 1.2 0 000 2.3zM14 12.8a1.2 1.2 0 11-2.3 0 1.2 1.2 0 012.3 0zM8.2 14a1.2 1.2 0 100-2.3 1.2 1.2 0 000 2.3zm-3.5-1.2a1.2 1.2 0 11-2.4 0 1.2 1.2 0 012.4 0z"/></g></svg>