<svg xmlns="http://www.w3.org/2000/svg" fill="none" viewBox="0 0 49 35"><mask id="country_china" width="49" height="35" x="0" y="0" maskUnits="userSpaceOnUse"><rect width="49" height="35" fill="#fff" rx="2.6"/></mask><g mask="url(#country_china)"><path fill="#F1361D" d="M0 0h49v35H0z"/><path fill="#FFDC42" fill-rule="evenodd" d="M17.6 10.4l1.7.3 1.3 1.2.3-1.7L22 8.9l-1.6-.3L19 7.5l-.3 1.7-1.2 1.2zm4.6 6l1.4-1 1.8.1-1-1.5.1-1.7-1.5.9h-1.7l1 1.4-.1 1.8zm-2 9.5l-1.5 1v-1.7l-1-1.5h1.8l1.4-1v1.8l1 1.4h-1.7zm1.2-4.4l1.7-.2 1.6.8-.2-1.7.7-1.6-1.7.2-1.5-.7.2 1.7-.8 1.5zM11.7 19.4l-4.1 3L9 17.4l-4-3h5l1.6-4.8 1.6 4.8h5l-4 3 1.5 4.8-4.1-2.9z"/></g></svg>