<svg xmlns="http://www.w3.org/2000/svg" fill="none" viewBox="0 0 49 35"><mask id="a" width="49" height="35" x="0" y="0" maskUnits="userSpaceOnUse"><rect width="49" height="35" fill="#fff" rx="2.6"/></mask><g mask="url(#a)"><path fill="#DD172C" fill-rule="evenodd" d="M0 9.3h49V0H0v9.3zM0 35h49v-9.3H0V35z"/><path fill="#FFD133" fill-rule="evenodd" d="M0 25.7h49V9.3H0v16.4z"/><path fill="#FFEDB1" fill-rule="evenodd" d="M12.8 16.3h2.4v1.2h-2.4v-1.2z"/><path stroke="#A41517" stroke-width=".9" d="M10.4 16c0-.2.2-.4.5-.4h3.9c.2 0 .5.2.4.5l-.3 4.4c-.1.7-.7 1.2-1.4 1.2h-1.4c-.7 0-1.2-.5-1.3-1.2l-.4-4.4z"/><path fill="#A41517" fill-rule="evenodd" d="M10.5 17.5h4.7v1.2H14L12.8 21l-1.1-2.3h-1.2v-1.2z"/><rect width="2.3" height="8.2" x="7" y="14" fill="#A41517" rx=".9"/><rect width="2.3" height="8.2" x="16.3" y="14" fill="#A41517" rx=".9"/><path fill="#A41517" d="M10.5 13.4c0-1 .8-1.7 1.8-1.7h1.1c1 0 1.8.8 1.8 1.7v.2c0 .2-.2.4-.5.4H11a.4.4 0 01-.4-.4v-.2z"/></g></svg>