<svg xmlns="http://www.w3.org/2000/svg" fill="none" viewBox="0 0 49 35"><mask id="a" width="49" height="35" x="0" y="0" maskUnits="userSpaceOnUse"><rect width="49" height="35" fill="#fff" rx="2.6"/></mask><g mask="url(#a)"><path fill="#38BB56" fill-rule="evenodd" d="M0 11.7h49V0H0v11.7z"/><path fill="#DE1B27" fill-rule="evenodd" d="M0 35h49V23.3H0V35z"/><path fill="#fff" fill-opacity=".5" fill-rule="evenodd" d="M2.8 9.3c-.3 0-.5.2-.5.5v1.4c0 .3.2.5.5.5h1.4c.3 0 .5-.2.5-.5V9.8c0-.3-.2-.5-.5-.5H2.8zm4.6 0c-.2 0-.4.2-.4.5v1.4c0 .3.2.5.4.5H9c.2 0 .4-.2.4-.5V9.8c0-.3-.2-.5-.4-.5H7.4zm4.3.5c0-.3.2-.5.4-.5h1.5c.2 0 .4.2.4.5v1.4c0 .3-.2.5-.4.5H12a.4.4 0 01-.4-.5V9.8zm5-.5c-.2 0-.4.2-.4.5v1.4c0 .3.2.5.5.5h1.4c.3 0 .5-.2.5-.5V9.8c0-.3-.2-.5-.5-.5h-1.4zm4.3.5c0-.3.2-.5.4-.5H23c.2 0 .4.2.4.5v1.4c0 .3-.2.5-.4.5h-1.5a.4.4 0 01-.4-.5V9.8zm5.1-.5c-.2 0-.4.2-.4.5v1.4c0 .3.2.5.4.5h1.5c.2 0 .4-.2.4-.5V9.8c0-.3-.2-.5-.4-.5H26zm4.2.5c0-.3.2-.5.5-.5h1.4c.3 0 .5.2.5.5v1.4c0 .3-.2.5-.5.5h-1.4a.4.4 0 01-.5-.5V9.8zm5.1-.5c-.2 0-.4.2-.4.5v1.4c0 .3.2.5.4.5H37c.2 0 .4-.2.4-.5V9.8c0-.3-.2-.5-.4-.5h-1.5zm4.3.5c0-.3.2-.5.4-.5h1.4c.3 0 .5.2.5.5v1.4c0 .3-.2.5-.5.5h-1.4a.4.4 0 01-.4-.5V9.8zm5-.5c-.2 0-.4.2-.4.5v1.4c0 .3.2.5.5.5h1.4c.3 0 .5-.2.5-.5V9.8c0-.3-.2-.5-.5-.5h-1.4zM2.4 23.8c0-.3.2-.5.5-.5h1.4c.3 0 .5.2.5.5v1.4c0 .3-.2.5-.5.5H2.8a.4.4 0 01-.5-.5v-1.4zm5.1-.5c-.2 0-.4.2-.4.5v1.4c0 .3.2.5.4.5H9c.2 0 .4-.2.4-.5v-1.4c0-.3-.2-.5-.4-.5H7.4zm4.3.5c0-.3.2-.5.4-.5h1.5c.2 0 .4.2.4.5v1.4c0 .3-.2.5-.4.5H12a.4.4 0 01-.4-.5v-1.4zm5-.5c-.2 0-.4.2-.4.5v1.4c0 .3.2.5.5.5h1.4c.3 0 .5-.2.5-.5v-1.4c0-.3-.2-.5-.5-.5h-1.4zm4.3.5c0-.3.2-.5.4-.5H23c.2 0 .4.2.4.5v1.4c0 .3-.2.5-.4.5h-1.5a.4.4 0 01-.4-.5v-1.4zm5.1-.5c-.2 0-.4.2-.4.5v1.4c0 .3.2.5.4.5h1.5c.2 0 .4-.2.4-.5v-1.4c0-.3-.2-.5-.4-.5H26zm4.2.5c0-.3.2-.5.5-.5h1.4c.3 0 .5.2.5.5v1.4c0 .3-.2.5-.5.5h-1.4a.4.4 0 01-.5-.5v-1.4zm5.1-.5c-.2 0-.4.2-.4.5v1.4c0 .3.2.5.4.5H37c.2 0 .4-.2.4-.5v-1.4c0-.3-.2-.5-.4-.5h-1.5zm4.3.5c0-.3.2-.5.4-.5h1.4c.3 0 .5.2.5.5v1.4c0 .3-.2.5-.5.5h-1.4a.4.4 0 01-.4-.5v-1.4zm5-.5c-.2 0-.4.2-.4.5v1.4c0 .3.2.5.5.5h1.4c.3 0 .5-.2.5-.5v-1.4c0-.3-.2-.5-.5-.5h-1.4z"/><mask id="b" fill="#fff"><path fill-rule="evenodd" d="M22.1 15a3.5 3.5 0 002.4 6 3.5 3.5 0 002.4-6" clip-rule="evenodd"/></mask><path fill="#D80915" d="M21.5 14.2c-.8.9-1.4 2-1.4 3.3h1.8c0-.8.3-1.4.8-2l-1.2-1.3zm-1.4 3.3c0 2.4 2 4.4 4.4 4.4v-1.8a2.6 2.6 0 01-2.6-2.6h-1.8zm4.4 4.4c2.4 0 4.4-2 4.4-4.4h-1.8c0 1.4-1.2 2.6-2.6 2.6v1.8zm4.4-4.4c0-1.3-.5-2.4-1.4-3.2l-1.2 1.3c.5.5.8 1.2.8 1.9h1.8z" mask="url(#b)"/><rect width="2.3" height="4.7" x="23.3" y="16.3" fill="#D80915" rx=".9"/></g></svg>