<svg viewBox="0 0 63 63" fill="none" xmlns="http://www.w3.org/2000/svg"><path d="M44.92 31.5c0 1.05.852 1.901 1.902 1.901h4.324c2.202 0 4.376.505 6.342 1.496a3.794 3.794 0 001.97.397 3.818 3.818 0 003.534-3.545 3.803 3.803 0 00-5.445-3.676c-2.003.967-4.178 1.525-6.402 1.525h-4.323c-1.05 0-1.902.852-1.902 1.902zM19.154 43.845a1.572 1.572 0 00-2.223 0l-2.528 2.528a11.637 11.637 0 01-4.582 2.832c-.516.17-.996.477-1.384.92a3.157 3.157 0 00.006 4.138 3.144 3.144 0 005.333-1.033c.605-1.736 1.55-3.334 2.85-4.634l2.528-2.528a1.572 1.572 0 000-2.223zM41.957 21.043a1.645 1.645 0 002.326 0l2.646-2.645a12.178 12.178 0 014.794-2.964 3.283 3.283 0 001.448-.963 3.303 3.303 0 00-.006-4.33 3.29 3.29 0 00-5.58 1.082c-.634 1.816-1.623 3.488-2.983 4.849l-2.645 2.645a1.645 1.645 0 000 2.326z" fill="#FB4C47"/><path d="M31.499 44.92c-1.05 0-1.901.851-1.901 1.901v4.325c0 2.201-.505 4.376-1.497 6.341a3.794 3.794 0 00-.396 1.97 3.818 3.818 0 003.544 3.534 3.803 3.803 0 003.677-5.444c-.967-2.003-1.526-4.178-1.526-6.402V46.82c0-1.05-.851-1.901-1.901-1.901z" fill="#FFA2A1"/><path d="M34.928 57.547c-.966-2.003-1.525-4.178-1.525-6.402v-4.324a1.901 1.901 0 00-3.803 0v4.324c0 2.224.559 4.399 1.526 6.402a3.8 3.8 0 01-1.523 4.941 3.75 3.75 0 001.649.504 3.803 3.803 0 003.677-5.445z" fill="#FB4C47"/><path d="M17.31 23.647a6.211 6.211 0 100-12.422 6.211 6.211 0 000 12.422z" fill="#FF807E"/><path d="M17.308 11.225c-.663 0-1.302.105-1.901.297a6.213 6.213 0 010 11.827 6.211 6.211 0 101.901-12.125z" fill="#FB4C47"/><path d="M31.5 51.781c11.201 0 20.282-9.08 20.282-20.281 0-11.201-9.08-20.282-20.282-20.282-11.2 0-20.281 9.08-20.281 20.282 0 11.2 9.08 20.281 20.281 20.281z" fill="#FFBFBE"/><path d="M31.502 11.218a20.5 20.5 0 00-1.902.09c10.31.959 18.38 9.632 18.38 20.192S39.91 50.733 29.6 51.692c.626.058 1.26.09 1.902.09 11.2 0 20.281-9.081 20.281-20.282s-9.08-20.282-20.282-20.282z" fill="#FFA2A2"/><path d="M39.104 28.687a4.12 4.12 0 100-8.24 4.12 4.12 0 000 8.24z" fill="#FFA2A1"/><path d="M39.106 20.447a4.1 4.1 0 00-1.9.466 4.118 4.118 0 010 7.308 4.12 4.12 0 101.901-7.774zM24.248 42.211a2.789 2.789 0 100-5.577 2.789 2.789 0 000 5.577z" fill="#FF807E"/><path d="M45.297 50.344a3.803 3.803 0 100-7.605 3.803 3.803 0 000 7.605z" fill="#FB4C47"/><path d="M45.298 42.739c-.693 0-1.342.186-1.902.51a3.8 3.8 0 010 6.585 3.803 3.803 0 101.901-7.096z" fill="#FF807E"/><path d="M18.08 31.5c0 1.05-.852 1.901-1.902 1.901h-4.324c-2.202 0-4.377.505-6.342 1.496a3.794 3.794 0 01-1.97.397 3.818 3.818 0 01-3.534-3.545 3.803 3.803 0 015.445-3.676c2.003.967 4.178 1.525 6.401 1.525h4.324c1.05 0 1.901.852 1.901 1.902z" fill="#FB4C47"/><path d="M31.499 18.08c1.05 0 1.901-.852 1.901-1.902v-4.324c0-2.202.505-4.377 1.496-6.342a3.794 3.794 0 00.397-1.97A3.818 3.818 0 0031.748.008a3.803 3.803 0 00-3.676 5.445c.967 2.003 1.526 4.178 1.526 6.401v4.324c0 1.05.85 1.901 1.9 1.901z" fill="#FFA2A1"/><path d="M35.294 3.542A3.818 3.818 0 0031.749.008a3.792 3.792 0 00-2.153.503 3.816 3.816 0 011.895 3.03c.047.712-.1 1.385-.396 1.971a14.075 14.075 0 00-1.497 6.342v4.324a1.901 1.901 0 103.803 0v-4.324c0-2.202.505-4.377 1.496-6.342a3.792 3.792 0 00.397-1.97z" fill="#FB4C47"/><path d="M59.2 27.7c-.59 0-1.15.134-1.649.375-.088.043-.177.083-.266.124a3.8 3.8 0 011.908 3.55 3.814 3.814 0 01-1.906 3.047c.069.033.137.065.205.1a3.793 3.793 0 001.97.396 3.816 3.816 0 003.531-3.543 3.8 3.8 0 00-3.792-4.05z" fill="#FF807E"/></svg>