<svg xmlns="http://www.w3.org/2000/svg" fill="none" viewBox="0 0 522.5 561.5"><path fill="url(#paint0_linear)" d="M211 548.4c-29.7 10.5-59.6 15.3-91.6 9.2C84 551 53 520.4 35.6 490.1a68.5 68.5 0 01-11-36.9c1.6-30 30-33.3 54-28.5 13.5 2.7 26 9 38.3 15.1 20.4 10.2 44.4 15.2 62.7 29.4 6.2 4.8 10.8 10.5 18 14 11 5.4 23.7 8 35.2 12.8 9.7 4.3 20.6 11.2 20.6 21.8 0 10.9-11.4 17.8-21.3 22.2-7 3-14.1 5.9-21.2 8.4z" transform="translate(-21.5)"/><path fill="url(#paint1_linear)" d="M101.8 161.4c48.6-71.5 149-100.2 230.3-73.3 39.3 13 72.2 40 102.5 68 26.7 24.7 52.7 51.4 71 83.2a298 298 0 0127.6 72c9.4 36.3.9 83.2-46.1 79.7-11-.8-20.6-4.7-30.9-8.2-8.3-2.8-16.5-1.1-25.2-2.5a233.6 233.6 0 01-62.6-20.9c-40.5-19.2-77.5-45.2-119-62a288.3 288.3 0 00-107.4-21c-15.5 0-31.8 1.1-45.7-5.8-34.2-17.1-18.8-63.3-6-89.2 3.3-7 7.2-13.6 11.5-20z" transform="translate(-21.5)"/><path fill="url(#paint2_linear)" d="M482.5 172.2c8 7.3 39.4 27 40 3.8a24 24 0 00-6-15.6c-4.2-4.8-8.8-7.4-12-13a134 134 0 00-13.2-19.2c-10-12.4-21.8-23.8-36-28.8-10-3.6-27-2.7-31.7 10.1-7 18.7 22.6 22 31.6 28.9 8.6 6.4 13.5 17.4 20.2 26.2 2.2 2.8 4.5 5.3 7 7.6z" transform="translate(-21.5)"/><path fill="url(#paint3_linear)" d="M334.7 149.6c17 10 29.6 24.8 45 36.9 25.7 20 61 24 90.4 38 30 14.1 52.8 36.2 63 68 13.3 41 14.5 89.8 3.3 132-12.4 46.4-41.5 77.3-84.1 97.8A347.6 347.6 0 01302 554.8c-102.2.6-238.1-35.4-272.9-145l-1-3.1a159.6 159.6 0 01-6.2-37.6A356.2 356.2 0 0143.4 232c10.7-28.5 33.6-52.6 57.7-69.7 34-24.1 75.3-30.3 116.5-33.2 30.5-2.1 64.8-2.9 93.6 8.8 8.1 3.3 16 7.2 23.5 11.6z" transform="translate(-21.5)"/><path fill="#fb4c47" d="M384.3 545c-131 38.1-240 1.4-278.2-21.7l-35.5-27.2L83 475.7l76.4-6.8 126.8-6.8 102.3 20.4 106.3-35.3h11c-16.4 55.4-87.8 88.3-121.4 97.8z"/><path fill="#fb4c47" d="M116.4 492.9H442s11.4-187.2-30-214.6c-41.5-27.4-235.5-21.7-278.5 1.7s-17 212.9-17 212.9z"/><path fill="#000c3e" d="M170.6 238.8a2 2 0 01-1.3-.4c-.9-.8-21.8-18.3-10.3-53.8 4-12.3 7.9-21.1 11.3-28.9 6.2-13.9 10.7-24 11.6-45.5 0-1.2 1.2-2 2.2-2 1.1 0 2 1 2 2.2-.9 22.3-5.8 33.2-12 47-3.3 7.7-7.2 16.4-11.1 28.5-10.5 32.6 8.2 48.5 9 49.2a2.1 2.1 0 01-1.4 3.7zM286.2 27.6a26.6 26.6 0 11-53.2-2 26.6 26.6 0 0153.2 2z"/><path fill="#000c3e" d="M168.3 228.5s7.8 16.1 39.7 21.8c31.9 5.6 57-5.9 81.5 3 24.7 9 60.2-2.7 67.3-13 7-10.4 5.6-125-13.8-144.2C323.5 77 221.8 61 199.7 83.4c-22 22.4-45.4 132.2-31.4 145.1z"/><path fill="#000c3e" d="M352.4 138a87.7 87.7 0 11-175.3-6.5 87.7 87.7 0 01175.3 6.6z"/><path fill="#ffceb0" d="M300.7 211.5s5.7 68.3 0 75.9c-5.7 7.6-41.7 1.9-51.2 0-9.5-2-13.3-76-7.6-76 5.7 0 57.8-15.2 58.8 0z"/><path fill="#ffceb0" d="M193.1 131.5s3.6 106.5 75.6 111.1c72 4.6 72-145.4 46-159.7-26.2-14.3-134.9-11.6-121.6 48.6z"/><path fill="#ee9b68" d="M267 154.3s13.8 32.8 10.3 35c-3.6 2.1-14 1.8-16.7-.7-2.8-2.4.8-38 6.4-34.3z"/><path fill="#41294a" d="M245.5 165.3a6.8 6.8 0 11-13.5-.7 6.8 6.8 0 0113.5.7zM303.6 162.1a6.8 6.8 0 11-13.5-.7 6.8 6.8 0 0113.5.7z"/><path fill="#000c3e" d="M249.8 74.7s-25.8 12.5-30.7 36c-5 23.4-2.4 83.4-29.8 80.6 0 0-53-118.7 60.5-116.6zM263.4 75.2C261.1 77 290 76.8 306.6 97c16.6 20 20.5 70.3 23 71.2 2.6 1 12.8-62.2-5.3-81.1-18.2-19-47.6-21.3-60.9-11.8z"/><path fill="#ee9b68" d="M242.9 233s28 15.8 57.1 1c0 0 2.3 17.8 0 22-2.3 4-48.3 7-57.4-13.3 0 0-2.3-10.7.3-9.8z"/><path fill="#ffceb0" d="M323.4 172.4s7-26.7 19-17.2 1.1 37.3-10.8 39.9c-11.9 2.5-14.7-9-8.2-22.7zM209.9 168.1s-5-27.1-17.6-18.5c-12.7 8.5-4 37.1 7.7 40.5 11.7 3.4 15.4-7.8 9.9-22z"/><path fill="#41294a" d="M294.1 138s12.9-6.4 20.5 3.4c6.7 8.7-8.9 1.4-14.7 2.4-5.8 1-13.5.3-5.8-5.8zM243.5 139.2s-13-6.3-20.5 3.5c-6.7 8.7 8.9 1.4 14.7 2.3 5.8 1 13.5.3 5.8-5.8z"/><path fill="#fffcf6" d="M238.2 150.1a20.5 20.5 0 00-15.1 34.7c3.7 4 8.8 6.3 14.3 6.5h.8a20.5 20.5 0 0015-34.6c-3.7-4-8.7-6.4-14.2-6.6zm0 44h-.9a23.3 23.3 0 01-22.6-24.2 23.4 23.4 0 0123.5-22.6h.9a23.3 23.3 0 0122.5 24.3 23.4 23.4 0 01-23.4 22.6zM296.7 146.8a20.5 20.5 0 00-15.1 34.7c3.7 4 8.8 6.3 14.3 6.6h.8a20.5 20.5 0 0015.1-34.7c-3.7-4-8.8-6.3-14.3-6.6zm0 44.1h-.9a23.3 23.3 0 01-22.6-24.3 23.4 23.4 0 0123.5-22.6h.9a23.3 23.3 0 0122.5 24.3 23.4 23.4 0 01-23.4 22.6z"/><path fill="#fffcf6" d="M216.8 166.6h-.5l-8.5-3.5c-.8-.2-1.1-1-.8-1.8.2-.7 1-1 1.8-.8l8.6 3.4a1.4 1.4 0 01-.6 2.7zM317.9 162.9a1.4 1.4 0 01-.4-2.8l12-3.4c.6-.2 1.4.2 1.7 1 .2.7-.3 1.5-1 1.7l-12 3.4h-.3z"/><path fill="#000c3e" d="M258.5 69.1s3.3 57.8 19.2 63c16 5.2 55 3.8 57-2.5 1.8-6.3-30.4-57.1-53.5-65.3-40.6-14.3-75.6 51.7-71 67.5 4.7 16 39.5 2 47 0 7.4-2-.1-51.3 1.3-62.7z"/><path fill="#db5c5d" d="M219 189.8s36.8-20 52.7-16.8c15.9 3.4 43.9 4.5 45 10.2 1.1 5.8-35.6 2.3-47 3.2-11.3.8-55 12.8-50.8 3.4z" opacity=".2"/><path fill="#ee9b68" d="M239.6 177a2.1 2.1 0 01-.7-4c3.3-1.3 4-2.3 4-2.3.4-1.1 1.6-1.6 2.7-1.1 1 .4 1.6 1.7 1.2 2.8-.4 1-1.6 2.7-6.4 4.5l-.8.2zM295.3 175.5c-1.2 0-3.2-.4-6.2-2a2.1 2.1 0 112-3.7c3 1.6 4.3 1.5 4.3 1.5 1.1-.4 2.2.1 2.6 1.2.5 1.1-.2 2.4-1.3 2.8l-1.4.2z"/><path fill="#fffcf6" d="M260.2 171.7a1.4 1.4 0 01-.1-2.8l14.5-1.1c.8-.1 1.5.5 1.5 1.3s-.5 1.4-1.3 1.5l-14.5 1.1h-.1z"/><path fill="#000c3e" d="M243 53.3c-.4 0-.7-.1-1-.3-7.8-4-12.4-9.6-13.8-16.6-3-15.4 11-32 11.6-32.7a2.1 2.1 0 013.2 2.8c-.1.2-13.2 15.7-10.6 29 1 5.8 5 10.4 11.5 13.8a2.1 2.1 0 01-1 4zM273.7 58a2.1 2.1 0 01-1.4-3.7c.2-.2 15.7-13.3 15.3-27-.1-5.8-3.2-11-9.2-15.4a2.1 2.1 0 112.6-3.4c7 5.3 10.7 11.6 10.9 18.7.4 15.7-16.2 29.7-16.9 30.3-.3.4-.8.5-1.3.5zM349.7 237a2.1 2.1 0 01-1.3-3.7c.8-.6 18-14.3 13.4-37.4-1.7-9-5-19-8.4-29.6-6-18.5-12-37.6-12.2-56 0-1.2 1-2.2 2.1-2.2 1.2 0 2.1 1 2.1 2.1.1 17.8 6.2 36.6 12 54.8 3.5 10.7 6.8 20.8 8.6 30a43.6 43.6 0 01-15 41.6c-.4.3-.8.5-1.3.5z"/><path fill="#000c3e" d="M356.8 140.3a2.1 2.1 0 01-2.1-2.4c2.9-23.3-1.6-42.4-13.2-56.7-18.8-23-50.1-25.9-50.5-26-1.1 0-2-1-2-2.2.2-1.2 1.2-2 2.4-2 1.3.2 33.5 3 53.4 27.5 12.4 15.2 17.1 35.4 14.1 60-.1 1-1 1.8-2.1 1.8z"/><path fill="#db5c5d" d="M270.6 222.7l-6.8-.1a2.8 2.8 0 01-2.7-3c0-1.5 1.5-2.6 3-2.7 4.7.2 10.5.3 11.6 0 1.5-.6 3 .2 3.6 1.7.5 1.4-.3 3-1.7 3.6-1.1.4-3.8.5-7 .5z"/><path fill="#ee9b68" d="M202.5 183.5a2.1 2.1 0 01-2-2.7 21.2 21.2 0 00-5.5-21.2c-.8-.8-.9-2.1-.1-3 .8-.9 2.1-1 3-.2.4.4 11.3 10.4 6.7 25.6-.3 1-1.1 1.5-2 1.5zM328.3 189.7h-.1c-1.2 0-2-1.1-2-2.3a42.4 42.4 0 019.7-24.6 2.1 2.1 0 013 3s-7.2 7.7-8.4 22c-.1 1.1-1 2-2.2 2z"/><path fill="#fffcf6" d="M210.5 169.9s18.4 15.4 19.9 17.7c1.4 2.3.9 32.3-2 32-3-.4-20.5-29-22.4-29-2 .1-1 3.2-1 3.2s15 25 24 32 65.5 7.3 77 .8 21.3-30.9 20.4-31.4c-.9-.5-3-2.5-3.4-1.6-.3.7-16 28.5-17.9 27.6-2-.9.2-31.7 0-34.7-.2-2.9 22.6-25 22.6-25l1.7-2.8-2.3-.6s-22.4 22.3-28 22.2c-5.6-.2-64.4 4-67.1 3.1-2.8-1-21-20.7-23.2-19.9-2.3.8 1 4.6 1.7 6.4z"/><path fill="#ffceb0" d="M203.1 284.3s48.2 57.6 85.4 42.2c37.1-15.4 72-57.2 53.2-62.7-18.6-5.6-167.8-2.7-138.6 20.5z"/><path fill="#ffc4a0" d="M436.2 250.2s-6.5-50.8-8.7-54.1c-2.2-3.3-18.8 21.7-14.3 35.9 4.5 14.1-57.4 14.5-52.6 35.2 4.8 20.7 1.9 48.6 27.6 50 25.6 1.5 54.9-5.5 61-15 6-9.5-13-52-13-52z" transform="translate(-21.5)"/><path fill="#d9423d" d="M453.2 296s71.6 83.6 57.6 138.5c-14 55-82 64-96 56.8-14-7.1-8.7-243 38.4-195.3zM122.1 285.5S35.3 378.7 41 462c4.7 68.7 110.2 58.2 123.1 51.7 13-6.4 2-271.6-41.9-228.2z"/><path fill="#ffceb0" d="M419.6 262.3s87.2 172.3 63.2 201.8-66.5 33-83.4 8.4c-10-14.2 3.9-140.5-10.8-156-14.6-15.4 26.4-62.4 31-54.2zM285.5 440s59.3 22.3 68.8 41.2c9.5 18.8-25.7-4.2-34-7.6-8.3-3.4 21.6 20.3 22.5 25.8.9 5.5-33.2-16.2-33.2-16.2s23.7 25 21.3 30.3c-2.3 5.2-29.4-16.3-29.4-16.3s14 22.3 9.5 25.4c-4.6 3.2-35.2-33.7-60.4-32.2-25.2 1.5-120.7 56.9-157 1.3-36.3-55.7-5.7-82.1 64.6-81.4 70.4.8 107.8 21.5 127.3 29.7z"/><path fill="#ffd310" d="M267.8 9.2c-.6 0-1.3 0-2 .2-1.9.4-3 1.3-3.8 2.8-3.1 6.8 3.5 23 8.3 32.6 3-10.6 6.4-28.4 1.5-34a5 5 0 00-4-1.6zm3 43.6c-.8 0-1.5-.4-1.9-1-1.7-3.1-16.2-29.8-10.9-41.5a9.2 9.2 0 016.9-5.2c5.4-1 8.5 1 10.1 2.8 8.7 9.7-1 40-2 43.4a2.2 2.2 0 01-2.2 1.5z"/><path fill="#ffd310" d="M297.4 20h-.6c-7.4 1-16.4 16.8-21.1 26.8 9.8-4.2 25.5-12.1 27.5-19.3.5-1.7.2-3.1-1-4.6-1.5-2-3-2.9-4.8-2.9zm-26 33a2.2 2.2 0 01-2-3c1.4-3.4 14-32.6 26.8-34.3 2.5-.3 6.1.2 9.5 4.5 2 2.6 2.6 5.5 1.8 8.5-3.6 12.3-32 23-35.3 24.1l-.8.2z"/><path stroke="#ffd310" stroke-width="3.9" d="M230.2 45.2a54.2 54.2 0 0054.1 0"/><defs><linearGradient id="paint0_linear" x1="41" x2="130" y1="428" y2="582.8" gradientUnits="userSpaceOnUse"><stop stop-color="#FFC5C6"/><stop offset="1" stop-color="#FFF6F6"/></linearGradient><linearGradient id="paint1_linear" x1="540" x2="181.3" y1="252" y2="18.7" gradientUnits="userSpaceOnUse"><stop stop-color="#fff"/><stop offset="1" stop-color="#FFD7D7"/></linearGradient><linearGradient id="paint2_linear" x1="523.3" x2="405.2" y1="175.6" y2="125.2" gradientUnits="userSpaceOnUse"><stop stop-color="#FFBEBF"/><stop offset="1" stop-color="#FFFBFC"/></linearGradient><linearGradient id="paint3_linear" x1="555" x2="43" y1="429" y2="225" gradientUnits="userSpaceOnUse"><stop stop-color="#FFD7D7"/><stop offset="1" stop-color="#FFF8F8"/></linearGradient></defs></svg>