<svg xmlns="http://www.w3.org/2000/svg" fill="none" viewBox="0 0 539 553.1"><path fill="url(#paint0_linear)" d="M218 539.5c-30.5 10.8-61.4 15.8-94.3 9.6-36.7-7-68.5-38.4-86.5-69.7a70.7 70.7 0 01-11.3-38c1.6-31 30.8-34.4 55.6-29.4 14 2.8 26.9 9.2 39.6 15.5 21 10.6 45.8 15.8 64.7 30.4 6.3 4.9 11 10.8 18.4 14.4 11.5 5.5 24.6 8.2 36.4 13.2 10 4.4 21.3 11.5 21.3 22.5 0 11.2-11.7 18.4-22 22.9a321 321 0 01-21.9 8.6z" transform="translate(-22.7)"/><path fill="url(#paint1_linear)" d="M105.5 140.4c50.1-73.8 153.7-103.5 237.6-75.7 40.5 13.4 74.4 41.2 105.7 70.2 27.6 25.5 54.3 53 73.2 85.8 12.8 22.4 22 49.2 28.5 74.2 9.7 37.5 1 85.9-47.6 82.3-11.3-.8-21.2-4.9-31.8-8.5-8.6-2.9-17-1.1-26-2.6a241 241 0 01-64.6-21.5c-41.8-19.8-80-46.6-122.8-64A297.4 297.4 0 00147 259c-16 0-32.9 1.1-47.2-6-35.3-17.7-19.4-65.3-6.2-92 3.5-7.2 7.5-14 12-20.6z" transform="translate(-22.7)"/><path fill="url(#paint2_linear)" d="M498.2 151.5c8.2 7.5 40.6 27.9 41.2 4 .2-6-2.5-11.8-6.2-16.2-4.2-5-9-7.6-12.3-13.5-4-7-8.6-13.6-13.6-19.7-10.4-12.8-22.5-24.5-37.2-29.8-10.3-3.6-27.8-2.7-32.7 10.5-7.1 19.2 23.4 22.8 32.7 29.8 8.8 6.6 13.8 18 20.8 27 2.2 3 4.7 5.5 7.3 7.9z" transform="translate(-22.7)"/><path fill="url(#paint3_linear)" d="M345.7 128.1c17.5 10.3 30.6 25.7 46.5 38 26.5 20.7 62.9 25 93.3 39.3 31 14.6 54.4 37.4 65 70.2 13.6 42.3 15 92.6 3.3 136.1-12.8 48-42.8 79.8-86.8 101a358.6 358.6 0 01-155 33.5c-105.4.6-245.6-36.5-281.5-149.7l-1-3.1a164.6 164.6 0 01-6.4-38.8 367.4 367.4 0 0122.2-141.5c11-29.4 34.6-54.2 59.5-71.9 35-24.8 77.6-31.2 120.1-34.2 31.5-2.2 66.9-3 96.6 9 8.4 3.5 16.5 7.5 24.2 12.1z" transform="translate(-22.7)"/><path fill="#fb4c47" d="M396.4 536.1c-135 39.3-247.6 1.4-287-22.4l-36.5-28 12.6-21.1 78.8-7 130.8-7 105.5 21 109.8-36.5h11.2c-16.9 57.3-90.5 91.2-125.2 101z"/><path fill="#fb4c47" d="M103 504.6h333.3S447.9 313 405.5 285c-42.5-28-232-18.4-273.3 9.9C27.3 366.5 103 504.6 103 504.6z"/><path fill="#000c3e" d="M158.4 244.5c-.5 0-1-.1-1.4-.4-.9-.8-22.3-18.8-10.6-55 4.1-12.7 8.1-21.7 11.7-29.6a107 107 0 0011.8-46.7c0-1.2 1-2 2.3-2 1.2 0 2 1 2 2.2-.9 22.9-5.9 34-12.2 48.2-3.5 7.9-7.4 16.7-11.4 29.2-10.8 33.3 8.4 49.6 9.2 50.3a2.2 2.2 0 01-1.4 3.8zM276.7 28.3a27.3 27.3 0 11-54.4-2 27.3 27.3 0 0154.4 2z"/><path fill="#000c3e" d="M156 234s8 16.5 40.6 22.2c32.7 5.9 58.3-6 83.5 3.2 25.2 9.1 61.7-2.8 68.9-13.4 7.2-10.6 5.7-127.9-14.2-147.6-19.9-19.7-124-36-146.6-13-22.6 23-46.5 135.3-32.2 148.6z"/><path fill="#000c3e" d="M344.5 141.4a89.8 89.8 0 11-179.5-6.7 89.8 89.8 0 01179.5 6.7z"/><path fill="#ffceb0" d="M291.6 216.5s5.9 70 0 77.7c-5.8 7.8-42.7 2-52.5 0-9.7-1.9-13.6-77.7-7.7-77.7 5.8 0 59.1-15.6 60.2 0z"/><path fill="#ffceb0" d="M181.4 134.7s3.7 109 77.4 113.7c73.8 4.7 73.7-149 47-163.5-26.7-14.7-138-12-124.4 49.8z"/><path fill="#ee9b68" d="M257.1 158s14.1 33.6 10.5 35.8c-3.7 2.2-14.3 1.8-17.1-.7-2.9-2.4.9-38.9 6.6-35.1z"/><path fill="#000c3e" d="M239.5 76.5S213 89.3 208 113.3c-5 24-2.4 85.4-30.4 82.6 0 0-54.3-121.6 61.9-119.4zM253.4 77c-2.4 1.7 27.3 1.7 44.2 22.2 17 20.6 21 72 23.6 72.9 2.6 1 13.1-63.7-5.5-83-18.6-19.5-48.7-21.9-62.3-12z"/><path fill="#ee9b68" d="M232.4 238.5s28.7 16.3 58.5 1c0 0 2.3 18.3 0 22.6-2.4 4.2-49.5 7.2-58.8-13.6 0 0-2.4-11 .3-10z"/><path fill="#ffceb0" d="M314.9 176.5s7-27.3 19.3-17.6 1.2 38.2-11 40.8c-12.1 2.6-15-9.1-8.3-23.2zM198.6 172.1s-5-27.7-18-19c-13 8.8-4 38 7.9 41.6 12 3.5 15.7-8 10-22.6z"/><path fill="#41294a" d="M284.5 142.7s12.2-8.3 21.2.7c8 8-8.8 2.6-14.6 4.4-5.8 1.7-13.6 2-6.6-5.1zM233.4 144.6s-11.7-9-21.2-.5c-8.4 7.4 8.6 3.1 14.3 5.2 5.7 2 13.5 2.9 7-4.7z"/><path fill="#fffcf6" d="M227.5 153.7a21.1 21.1 0 00-.8 42.2h.9a21.1 21.1 0 00.8-42.2zm0 45.1h-.8a24 24 0 01.8-48h1a24 24 0 01-1 48zM287.4 150.3a21 21 0 00-15.4 35.5 21 21 0 0014.7 6.7h.8a21 21 0 0015.4-35.4 21 21 0 00-14.7-6.7zm0 45.2h-.8a23.9 23.9 0 01-23.1-25 24 24 0 0124-23h.9a23.9 23.9 0 0123 24.8 24 24 0 01-24 23.2z"/><path fill="#fffcf6" d="M205.7 170.6l-.5-.1-8.8-3.5a1.4 1.4 0 111-2.7l8.8 3.5c.8.3 1.2 1.1.9 1.9-.3.6-.8 1-1.4 1zM309.2 166.8a1.4 1.4 0 01-.4-2.9l12.2-3.5c.8-.2 1.5.3 1.8 1 .2.8-.3 1.6-1 1.8l-12.2 3.5h-.4z"/><path fill="#000c3e" d="M248.4 70.8s3.3 59 19.6 64.4c16.3 5.4 56.4 4 58.3-2.5 2-6.5-31-58.5-54.7-66.9-41.6-14.6-77.4 53-72.7 69.2 4.8 16.3 40.5 2 48 0 7.7-2.2 0-52.5 1.5-64.2z"/><path fill="#fffcf6" d="M250.1 175.8a1.4 1.4 0 01-.1-2.9l14.9-1.1c.8-.2 1.4.5 1.5 1.3 0 .8-.5 1.5-1.3 1.6l-14.9 1.1z"/><path fill="#000c3e" d="M232.5 54.5c-.4 0-.7 0-1-.2-8-4.1-12.7-9.8-14.2-17-3-15.8 11.3-32.8 12-33.5.7-.9 2-1 3-.2.9.8 1 2.2.2 3-.1.2-13.6 16.1-10.9 29.8 1.2 5.9 5.1 10.6 11.9 14a2.2 2.2 0 01-1 4.1zM264 59.4c-.7 0-1.3-.3-1.8-.8-.7-.9-.6-2.3.3-3 .2-.2 16-13.7 15.7-27.6-.2-6-3.4-11.2-9.4-15.8a2.2 2.2 0 112.6-3.5c7.2 5.4 11 11.8 11.1 19.2.5 16-16.5 30.4-17.2 31-.4.3-.9.5-1.4.5zM341.8 242.7c-.7 0-1.3-.3-1.8-.8-.7-1-.5-2.3.4-3 .8-.7 18.4-14.7 13.8-38.3-1.8-9.3-5.1-19.5-8.6-30.4-6.1-18.9-12.4-38.4-12.6-57.3 0-1.2 1-2.2 2.2-2.2 1.2 0 2.2 1 2.2 2.2 0 18.2 6.3 37.4 12.3 56 3.5 11 6.9 21.3 8.7 30.8a44.6 44.6 0 01-15.3 42.6c-.4.3-.9.4-1.3.4z"/><path fill="#000c3e" d="M349 143.6h-.3c-1.1-.1-2-1.2-1.8-2.4 2.9-23.9-1.7-43.4-13.6-58-19.2-23.6-51.3-26.6-51.6-26.6-1.2 0-2.1-1.1-2-2.3 0-1.2 1.1-2.1 2.3-2 1.4 0 34.3 3 54.7 28 12.7 15.7 17.5 36.3 14.5 61.4-.2 1.1-1.1 2-2.2 2z"/><path fill="#ee9b68" d="M260.5 228.4c-4 0-7.2-1.3-7.4-1.4a2.2 2.2 0 01-1.2-2.8 2.2 2.2 0 012.9-1.2s6 2.4 11.1-.1a2.2 2.2 0 012 3.8c-2.5 1.3-5.1 1.7-7.4 1.7zM191 187.9a2.2 2.2 0 01-2-2.8c4-13-5.5-21.6-5.6-21.7a2.2 2.2 0 012.9-3.2c.5.4 11.6 10.6 6.8 26.2-.2.9-1.1 1.5-2 1.5zM319.9 194.3h-.2c-1.2-.2-2.1-1.2-2-2.4a43.3 43.3 0 019.9-25.2 2.2 2.2 0 013.1 3s-7.4 8-8.7 22.6c0 1.1-1 2-2.1 2z"/><path fill="#ffceb0" d="M193.3 291.2s49.3 59 87.4 43.2c38-15.8 73.6-58.6 54.5-64.3-19.1-5.6-171.8-2.6-141.9 21z"/><path fill="#fff" d="M325.7 211.7s14.8 107.9 1 120c-14 12.2-31.6 1.6-55.2 9.7-23.6 8-24.4-24.8-22.8-41.6 1.6-16.8 9.3-123.6 77-88z"/><path fill="#128e5a" d="M61.8 378.6l-29.2 86.2 212.7 72s32.6-82.5 28.5-84c-4.1-1.3-212-74.2-212-74.2z"/><path fill="#ffc6a6" d="M103.9 482.9s36.3-25.1 35-18.8c-1.2 6.4-15.3 18.8-15.3 18.8s25.6-19.8 27.2-9.9c1.7 9.9-7.3 19.3-7.3 19.3s18-14.4 21-7c2.8 7.5-20.4 40.2-40.9 39.3-20.5-1-29.8-35-19.7-41.7z"/><path fill="#fff" d="M117.3 434.4L197 467s13.9-42.2 11.3-47c-2.6-5-31.3-6.7-39.2-14.5-7.9-7.7-5-17.2-18.2-15.5-13.1 1.6-33.5 44.5-33.5 44.5z"/><path fill="#ee9b68" d="M262.5 221.3l-.8-.1c-6.3-2.3-9.4-5.1-9.5-8.6-.2-5.6 7.8-9.4 9.4-10a2.2 2.2 0 111.7 4c-2.9 1.2-6.8 4-6.8 5.9 0 .5.6 2.4 6.7 4.6a2.2 2.2 0 01-.7 4.2z"/><path fill="#41294a" d="M236.3 179.8c-.5 0-1-.2-1.4-.5-9.1-8-15.5-5.9-15.8-5.8-1 .4-2.3-.2-2.8-1.3-.4-1.1.2-2.3 1.3-2.8.3-.1 8.9-3.3 20.1 6.6a2.2 2.2 0 01-1.4 3.8zM281 180.3c-.7 0-1.3-.2-1.7-.7-.8-1-.7-2.3.2-3 11.2-10 19.8-6.8 20.1-6.7 1.2.4 1.7 1.7 1.3 2.8a2.2 2.2 0 01-2.8 1.3c-.3-.1-6.7-2.2-15.7 5.8-.4.3-1 .5-1.5.5z"/><path fill="#d9423d" d="M421.9 472.6s26.7 34 68 9.7c43.5-36.9 53.3-85 35.5-121.4-23-38.7-79.8-81.3-94.4-81.3-14.5.1-65.2 138-9.1 193z"/><path fill="#ffc6a6" d="M369.1 224s-56.4-24.2-77.3-18.6c-20.8 5.6 19.7 10.9 27.9 14.9 8.3 4-30.2-2.6-35 .4-4.8 3 35 14.3 35 14.3s-35.3-1-37.7 4.3c-2.4 5.4 32.4 11.4 32.4 11.4s-26.5 4.4-25.8 10.1c.7 5.7 49.7 4 65.8 24.2 16 20.3 38.7 131 106 120.9 67.2-10.2 66.6-51.7 18-104.9-48.4-53.2-89.7-67.7-109.3-77z"/><path fill="#ffd310" d="M259.6 8.6l-2 .3a5 5 0 00-3.9 2.8c-3.3 7 3.6 23.8 8.5 33.7 3-11 6.6-29.3 1.5-35.1a5.1 5.1 0 00-4-1.7zm3.2 45c-.9 0-1.6-.4-2-1.1-1.7-3.1-16.8-30.7-11.2-42.7a9.5 9.5 0 017-5.4c5.6-1.1 8.8 1 10.5 2.9 9 10-1 41.3-2.2 44.8a2.3 2.3 0 01-2.1 1.6z"/><path fill="#ffd310" d="M290.2 19.8h-.6c-7.7 1-17 17.3-21.9 27.6 10.2-4.3 26.4-12.5 28.5-20a5 5 0 00-1-4.6c-1.6-2-3.2-3-5-3zm-26.8 34a2.3 2.3 0 01-2.1-3.1c1.4-3.5 14.4-33.6 27.7-35.4 2.5-.3 6.3.2 9.8 4.7 2 2.7 2.6 5.7 1.8 8.7-3.7 12.7-33.1 23.8-36.4 25l-.8.1z"/><path stroke="#ffd310" stroke-width="4.9" d="M220.8 45.8a56 56 0 0055.9 0"/><defs><linearGradient id="paint0_linear" x1="23.1" x2="54.9" y1="445.6" y2="555.8" gradientUnits="userSpaceOnUse"><stop stop-color="#FFCBCB"/><stop offset="1" stop-color="#FFF1F1"/></linearGradient><linearGradient id="paint1_linear" x1="494.5" x2="166.3" y1="186" y2="33.8" gradientUnits="userSpaceOnUse"><stop stop-color="#fff"/><stop offset="1" stop-color="#FDD"/></linearGradient><linearGradient id="paint2_linear" x1="540.3" x2="447.1" y1="155" y2="85.1" gradientUnits="userSpaceOnUse"><stop stop-color="#FDD"/><stop offset="1" stop-color="#FFFBFC"/></linearGradient><linearGradient id="paint3_linear" x1="512.8" x2="23.2" y1="498.1" y2="214.5" gradientUnits="userSpaceOnUse"><stop stop-color="#FFE6E6"/><stop offset="1" stop-color="#FFF5F5"/></linearGradient></defs></svg>