<svg xmlns="http://www.w3.org/2000/svg" fill="none" viewBox="0 0 531.2 571.2"><path fill="url(#prevention20_linear)" d="M214.4 557.8c-30.1 10.7-60.5 15.6-93 9.4-36.1-6.8-67.5-37.8-85.2-68.6A69.7 69.7 0 0125 461c1.6-30.5 30.4-34 54.9-29 13.8 2.8 26.4 9.1 39 15.3 20.7 10.4 45 15.5 63.7 30 6.3 4.8 11 10.6 18.2 14.1 11.3 5.5 24.2 8.1 35.8 13.1 10 4.3 21 11.4 21 22.1 0 11.1-11.5 18.2-21.7 22.6a317 317 0 01-21.5 8.5z" transform="translate(-21.9)"/><path fill="url(#prevention21_linear)" d="M103.5 164.4C153 91.7 255 62.5 337.7 90 377.5 103 411 130.5 441.8 159c27.2 25.2 53.6 52.3 72.1 84.6a303 303 0 0128.2 73.2c9.5 37 .8 84.6-47 81-11.1-.8-20.8-4.8-31.3-8.3-8.5-2.9-16.8-1.2-25.6-2.5a237.4 237.4 0 01-63.7-21.3c-41.2-19.5-78.7-46-121-63a293 293 0 00-109.1-21.3c-15.8 0-32.4 1-46.5-6-34.8-17.4-19.1-64.3-6.2-90.7 3.5-7 7.4-13.8 11.8-20.3z" transform="translate(-21.9)"/><path fill="url(#prevention22_linear)" d="M490.5 175.4c8.1 7.4 40 27.5 40.7 3.9.1-5.9-2.6-11.6-6.2-15.9-4.1-5-8.8-7.5-12-13.3-4-6.9-8.6-13.4-13.6-19.5-10.2-12.5-22.1-24-36.6-29.2-10.2-3.7-27.4-2.7-32.2 10.3-7 19 23 22.4 32.2 29.3 8.7 6.5 13.6 17.8 20.5 26.7 2.2 2.8 4.6 5.4 7.2 7.7z" transform="translate(-21.9)"/><path fill="url(#prevention23_linear)" d="M340.2 152.4c17.2 10.1 30.2 25.3 45.9 37.5 26 20.3 61.9 24.5 91.8 38.6 30.6 14.5 53.7 36.9 64 69.2a245.5 245.5 0 013.4 134.2c-12.6 47.2-42.2 78.6-85.5 99.5a353.4 353.4 0 01-152.8 33c-103.9.6-242-36-277.4-147.5l-1-3.1a162.3 162.3 0 01-6.3-38.2A362.1 362.1 0 0144 236.1c10.9-28.9 34.1-53.4 58.7-70.8 34.5-24.5 76.5-30.8 118.4-33.7 31-2.2 65.9-3 95.2 8.9a178 178 0 0123.8 11.9z" transform="translate(-21.9)"/><path fill="#fb4c47" d="M390.7 554.5c-133.1 38.7-244 1.3-282.9-22.1l-36-27.7L84.3 484l77.6-7 129-6.8 104 20.7 108-36H514c-16.6 56.4-89.1 89.9-123.3 99.6z"/><path fill="#fb4c47" d="M116.2 479.7h316.9s11.1-182.2-29.3-208.9c-40.3-26.6-229.1-21-271 1.7-41.8 22.8-16.6 207.2-16.6 207.2z"/><path fill="#000c3e" d="M169 232.5a2 2 0 01-1.3-.5c-.9-.7-21.2-17.8-10.1-52.3 3.9-12 7.7-20.6 11-28.1 6.1-13.6 10.5-23.4 11.3-44.3 0-1.2 1-2 2.1-2 1.2 0 2 1 2 2.1-.8 21.8-5.6 32.4-11.6 45.9-3.3 7.4-7 15.8-10.9 27.7-10.2 31.8 8.6 47.6 8.8 47.8a2 2 0 01-1.3 3.7zM281.5 26.9a26 26 0 11-51.8-2 26 26 0 0151.8 2z"/><path fill="#000c3e" d="M166.7 222.4s7.6 15.7 38.6 21.2 55.4-5.7 79.4 3c24 8.6 58.6-2.7 65.4-12.7 7-10.1 5.5-121.6-13.4-140.3-19-18.7-118-34.4-139.4-12.5-21.5 22-44.3 128.7-30.6 141.3z"/><path fill="#000c3e" d="M346 134.4a85.4 85.4 0 11-170.8-6.4 85.4 85.4 0 01170.7 6.4z"/><path fill="#ffceb0" d="M295.6 205.8s5.5 66.5 0 73.9c-5.5 7.4-40.6 1.9-49.9 0-9.2-1.8-13-73.9-7.4-73.9s56.2-14.8 57.3 0z"/><path fill="#ffceb0" d="M190.8 128s3.6 103.7 73.6 108.1c70.1 4.5 70-141.5 44.7-155.4-25.4-14-131.2-11.3-118.3 47.3z"/><path fill="#ee9b68" d="M262.8 150.2s13.4 31.9 10 34c-3.5 2.1-13.6 1.7-16.3-.6-2.7-2.3.8-37 6.3-33.4z"/><path fill="#41294a" d="M241.8 171.5a6.6 6.6 0 11-13.1-.6 6.6 6.6 0 0113.1.6zM298.3 168.4a6.6 6.6 0 11-13.1-.6 6.6 6.6 0 0113.1.6z"/><path fill="#000c3e" d="M246 72.7s-25.1 12.2-29.9 35c-4.8 22.8-2.3 81.2-29 78.5 0 0-51.5-115.6 59-113.5zM259.3 73.2c-2.3 1.6 25.9 1.6 42 21.1 16.1 19.6 20 68.4 22.4 69.3 2.5.9 12.5-60.5-5.2-79-17.7-18.4-46.3-20.7-59.2-11.4z"/><path fill="#ee9b68" d="M239.3 226.7s27.3 15.5 55.6 1c0 0 2.2 17.4 0 21.4s-47 6.9-55.9-12.9c0 0-2.3-10.4.3-9.5z"/><path fill="#ffceb0" d="M317.7 167.8s6.7-26 18.4-16.8c11.7 9.3 1.1 36.4-10.4 38.9-11.6 2.4-14.4-8.8-8-22.1zM207.2 163.6s-4.8-26.4-17.2-18c-12.3 8.3-3.8 36.1 7.6 39.5 11.3 3.3 15-7.7 9.6-21.5z"/><path fill="#41294a" d="M289.1 134.3s12.6-6.2 20 3.3c6.5 8.5-8.7 1.4-14.3 2.3-5.7 1-13.1.3-5.7-5.6zM239.8 135.5s-12.5-6.2-19.9 3.4c-6.5 8.5 8.7 1.4 14.3 2.3 5.7.9 13.1.2 5.6-5.7z"/><path fill="#fffcf6" d="M234.7 146.1a20 20 0 00-14.7 33.7 20 20 0 0014 6.4h.7a20 20 0 0014.7-33.7 20 20 0 00-14-6.4zm0 42.9h-.9a22.7 22.7 0 01-22-23.7c.6-12.3 10.6-22 22.9-22h.9a22.7 22.7 0 0122 23.7 22.7 22.7 0 01-22.9 22zM291.6 143a20 20 0 00-.7 40.1h.8a20 20 0 0014.7-33.8 20 20 0 00-14-6.4zm0 42.8h-.8a22.8 22.8 0 01.8-45.6h.9a22.7 22.7 0 0122 23.6 22.7 22.7 0 01-22.8 22z"/><path fill="#fffcf6" d="M214 162.2l-.6-.1-8.3-3.3a1.4 1.4 0 111-2.6l8.3 3.3c.8.3 1.1 1.1.8 1.8-.2.5-.7.9-1.3.9zM312.3 158.5a1.4 1.4 0 01-.4-2.7l11.6-3.3c.7-.2 1.5.2 1.7 1 .2.7-.2 1.5-1 1.7l-11.5 3.3h-.4z"/><path fill="#000c3e" d="M254.5 67.3s3.2 56.2 18.7 61.3c15.5 5 53.5 3.7 55.4-2.5 1.8-6.1-29.5-55.6-52-63.5-39.5-14-73.6 50.3-69.1 65.7 4.5 15.5 38.4 2 45.7 0 7.2-2-.1-50 1.3-61z"/><path fill="#fffcf6" d="M256.1 167.1a1.4 1.4 0 010-2.7l14-1.1c.9-.1 1.5.5 1.5 1.3 0 .7-.5 1.4-1.2 1.4l-14.2 1.1z"/><path fill="#000c3e" d="M239.4 51.9a2 2 0 01-1-.3c-7.5-3.9-12-9.3-13.4-16.2-3-15 10.7-31 11.3-31.8.7-.8 2-1 3-.2.8.8.9 2 .1 3-.1 0-12.9 15.2-10.3 28.2 1 5.6 4.8 10 11.2 13.4a2 2 0 01-1 3.9z"/><path fill="#41294a" d="M269.3 56.5a2 2 0 01-1.4-3.7c.2-.1 15.3-13 15-26.2-.2-5.6-3.2-10.7-9-15a2 2 0 112.5-3.3c6.8 5.1 10.4 11.2 10.5 18.2.5 15.3-15.6 29-16.3 29.5a2 2 0 01-1.3.5z"/><path fill="#000c3e" d="M343.3 230.7a2 2 0 01-1.3-3.7c.7-.5 17.4-13.9 13-36.3-1.7-8.8-4.8-18.6-8.1-28.9-5.8-18-11.8-36.5-12-54.5 0-1.1 1-2 2.1-2 1.2 0 2.1.9 2.1 2 .1 17.3 6 35.6 11.7 53.2 3.4 10.5 6.5 20.3 8.3 29.4a42.4 42.4 0 01-14.6 40.4 2 2 0 01-1.2.4z"/><path fill="#000c3e" d="M350.2 136.5h-.3a2 2 0 01-1.8-2.3c2.8-22.7-1.5-41.2-12.9-55.1-18.2-22.5-48.7-25.3-49-25.3a2 2 0 01-2-2.2 2 2 0 012.3-1.9c1.3.1 32.6 3 52 26.7 12 14.8 16.6 34.5 13.7 58.3a2 2 0 01-2 1.8z"/><path fill="#ee9b68" d="M266.3 216.1l-6.6-.1a2 2 0 01-2-2.2c0-1.1 1-2 2.2-2 4.7.2 10.5.2 11.5 0 1.1-.4 2.3.2 2.6 1.3a2 2 0 01-1.2 2.5c-1 .4-3.6.5-6.5.5zM200 178.6h-.6a2 2 0 01-1.3-2.7c3.7-12.3-5.3-20.5-5.4-20.6a2 2 0 012.8-3c.4.3 11 10 6.5 24.8a2 2 0 01-2 1.5zM322.5 184.7h-.2a2 2 0 01-1.9-2.3c1.4-15.5 9-23.6 9.4-24a2 2 0 013 2.9c-.1 0-7 7.5-8.3 21.5a2 2 0 01-2 1.9z"/><path fill="#ffceb0" d="M202.1 276.8s47 56 83 41c36.2-15 70.1-55.6 52-61-18.2-5.4-163.4-2.6-135 20z"/><path fill="#fff" d="M326 350.9s-27.3-24.6-56-10.7c-28.5 13.8-19.8 42.7-45.9 37.3-26-5.3-73.3 2.7-62 31 11.2 28.2-60.7 50.2-33.4 86.5 27.3 36.3 101 8.4 123.7 15.9 22.7 7.4 76 10.6 82.3-10.7 6.2-21.3 46-24.5 39.7-52.3-6.2-27.7-12.4-66.1-48.4-97z"/><path fill="#ffc6a6" d="M235.7 415.4s28 33.5 27.8 65.7c0 20.5-15.1-14-20.3-21-5.2-7 11.2 23 5.8 32.7-2.7 4.8-19.6-30.1-19.6-30.1s7.2 32.8 2.6 36c-4.5 3.1-16.3-28.4-16.3-28.4s.5 25.6-4.9 26c-5.4.3-3.5-26-25.3-37.4-21.7-11.4-121 67.4-123.3 2.8-2.4-64.6 26.7-87 94.2-75.3 53.2 9.3 61.6 15.2 79.3 29zM297.8 415.4s-28 33.5-27.9 65.7c0 20.5 15.2-14 20.4-21 5.2-7-11.2 23-5.8 32.7 2.7 4.8 19.6-30.1 19.6-30.1s-7.2 32.8-2.6 36c4.5 3.1 16.3-28.4 16.3-28.4s-.5 25.6 4.9 26c5.4.3 3.5-26 25.2-37.4 21.8-11.4 133.6 75.2 136 10.5 2.3-64.6-39.4-94.7-106.8-83-53.2 9.3-61.6 15.2-79.3 29z"/><path fill="#fff" d="M328.8 471.7s.6-56.7 31.6-56.3c31 .4 45.7 28 16.5 44.4-29.1 16.3-49 23-48 11.9z"/><path fill="#fff" d="M352.2 436.4s5 11.5 16.6 12.7c11.7 1.1 38.3 0 40.6 16.7 2.3 16.8-11.6 39.9-28.6 37.6-17-2.3-34.5-5.8-48.9 3.8-14.3 9.6 0-77.7 20.3-70.8zM381.7 346.6a13.9 13.9 0 11-27.8 0 13.9 13.9 0 0127.8 0zM221 346.6a13.9 13.9 0 11-27.8 0 13.9 13.9 0 0127.8 0z"/><path fill="#ee9b68" d="M265 202.7a36.9 36.9 0 01-20.3-7.6 2 2 0 012.6-3.2c.1 0 10.6 8.2 20.8 6.5 4.9-.9 9-4 12.3-9.3a2 2 0 013.5 2.2 22.1 22.1 0 01-18.8 11.4z"/><path fill="#d9423d" d="M181.4 261s-39.2 55.2-40.3 87.6c-1.2 32.4-36.2 46-26.3 92.8 4 18.4 15 44.4 4.4 54.7-27.5 26.8-54 7.4-58.6 0-33.1-53.3 7-179.5 41.9-207.6 26.3-27.5 78.9-27.5 78.9-27.5zM363.1 258.6s43.6 56 44.8 87.4c1.2 31.5 38 44.7 27.6 90-4.2 17.9-23.3 44-3.4 53.1 23.7 10.8 61.3 3.9 66.2-3.3 47.8-55-16-166.4-52.7-193.7-32.2-26.3-82.5-33.5-82.5-33.5z"/><path fill="#ffd310" d="M266.2 8.7c-.6 0-1.3 0-2 .2-2 .4-3.1 1.3-3.8 2.9-3.2 6.9 3.5 23.4 8.3 33.2 3-10.9 6.6-29 1.5-34.6a5 5 0 00-4-1.7zm3 44.4c-.7 0-1.5-.4-1.9-1.2-1.7-3-16.5-30.2-11-42a9.3 9.3 0 017-5.3c5.4-1.1 8.6.9 10.3 2.8 8.7 9.9-1 40.7-2.2 44.2a2.2 2.2 0 01-2.1 1.5z"/><path fill="#ffd310" d="M296.3 19.7h-.6c-7.5 1-16.7 17-21.5 27.2 10-4.2 26-12.3 28-19.6.5-1.7.2-3.1-1-4.6-1.5-2-3.1-3-4.9-3zM270 53.2a2.2 2.2 0 01-2-3C269.3 46.7 282 17 295 15.2c2.5-.3 6.2.2 9.7 4.6 2 2.6 2.6 5.6 1.7 8.6C303 41 274 52 270.7 53.1l-.8.1z"/><path stroke="#ffd310" stroke-width="3.9" d="M228 45.3a55.1 55.1 0 0055 0"/><defs><linearGradient id="prevention20_linear" x1="22.3" x2="53.6" y1="465.3" y2="573.8" gradientUnits="userSpaceOnUse"><stop offset="1" stop-color="#FFCECE"/><stop offset="1" stop-color="#FFF2F2"/></linearGradient><linearGradient id="prevention21_linear" x1="84.5" x2="494.9" y1="97.5" y2="408.9" gradientUnits="userSpaceOnUse"><stop offset="1" stop-color="#FFDADA"/><stop offset="1" stop-color="#fff"/></linearGradient><linearGradient id="prevention22_linear" x1="532" x2="412" y1="178.9" y2="127.6" gradientUnits="userSpaceOnUse"><stop offset="1" stop-color="#FFDFDF"/><stop offset="1" stop-color="#FFF5F5"/></linearGradient><linearGradient id="prevention23_linear" x1="504.9" x2="22.4" y1="517" y2="237.5" gradientUnits="userSpaceOnUse"><stop offset="1" stop-color="#FFE0E0"/><stop offset="1" stop-color="#FFF4F4"/></linearGradient></defs></svg>