<svg xmlns="http://www.w3.org/2000/svg" fill="none" viewBox="0 0 562.4 632"><path fill="url(#paint0_linear)" d="M224 564.9c-31.5 11.2-63.2 16.3-97.1 9.9-37.8-7.2-70.6-39.6-89.1-71.8A72.8 72.8 0 0126 463.8c1.7-31.8 31.8-35.4 57.4-30.2 14.4 2.9 27.6 9.5 40.7 16 21.7 10.9 47.1 16.2 66.6 31.2 6.5 5.1 11.4 11.2 19 14.9 11.8 5.7 25.3 8.4 37.4 13.6 10.4 4.5 22 11.9 22 23.2 0 11.5-12.1 18.9-22.7 23.5a331 331 0 01-22.5 8.9z" transform="translate(-22.9)"/><path fill="url(#paint1_linear)" d="M108.2 154c51.5-76 158.1-106.6 244.6-78 41.6 13.8 76.6 42.5 108.8 72.3 28.4 26.2 56 54.6 75.3 88.3 13.3 23 22.7 50.7 29.4 76.5 10 38.6 1 88.3-49 84.7-11.7-.9-21.8-5-32.8-8.7-8.8-3-17.5-1.2-26.7-2.7a248 248 0 01-66.5-22.2c-43-20.3-82.3-48-126.5-65.9a306.2 306.2 0 00-114-22.2c-16.5 0-33.8 1.2-48.5-6.2-36.4-18.2-20-67.2-6.4-94.8 3.5-7.3 7.7-14.4 12.3-21.2z" transform="translate(-22.9)"/><path fill="url(#paint2_linear)" d="M512.4 165.4c8.5 7.7 41.9 28.7 42.5 4 .2-6-2.6-12-6.4-16.5-4.3-5.2-9.2-7.9-12.6-14-4.2-7.2-8.9-14-14.1-20.3-10.7-13-23.2-25.2-38.3-30.6C473 84.2 455 85.2 450 98.8c-7.4 19.8 24 23.4 33.6 30.6 9.1 6.9 14.3 18.6 21.5 28 2.2 2.9 4.7 5.6 7.4 8z" transform="translate(-22.9)"/><path fill="url(#paint3_linear)" d="M355.5 141.3c18 10.6 31.4 26.5 47.8 39.2 27.3 21.3 64.7 25.6 96 40.4 32 15 56 38.5 67 72.2 14 43.6 15.4 95.4 3.4 140.3-13.2 49.3-44.1 82-89.3 103.9a369.2 369.2 0 01-159.7 34.4c-108.5.7-252.9-37.5-289.8-154l-1-3.2c-3.8-13-6-26.4-6.6-40-2.4-47.9 6-100.7 22.8-145.7 11.3-30.2 35.6-55.8 61.3-74 36-25.6 80-32.1 123.7-35.2 32.4-2.3 68.8-3 99.4 9.3a186 186 0 0125 12.4z" transform="translate(-22.9)"/><path fill="#fb4c47" d="M408.1 561.4c-139 40.4-254.9 1.5-295.4-23l-37.7-29 13-21.6 81.2-7.2 134.7-7.3L412.5 495l113-37.6h8.1c-17.4 59-89.7 93.9-125.5 104z"/><path fill="#d9423d" d="M396.6 274s110 5 136.5 120.5c21 149-78 96.3-101.6 89-23.7-7.4-108-198.1-34.9-209.5z"/><path fill="#fb4c47" d="M120.7 506.3h336s11.8-193.2-31-221.4c-42.9-28.3-243-22.4-287.4 1.7-44.4 24.2-17.6 219.7-17.6 219.7z"/><path fill="#000c3e" d="M172 257.8c-.3 0-.7-.1-1-.4-1-.6-25-15.3-18.9-53.2 2.2-13.2 4.8-22.8 7.2-31.2 4.1-15.2 7.2-26.2 4.7-48.3-.1-1.2.8-2.2 2-2.4 1.2 0 2.3.8 2.4 2 2.5 22.9-.8 34.8-5 49.9-2.2 8.3-4.8 17.7-7 30.7-5.7 35 16.6 48.6 16.8 48.8a2.2 2.2 0 01-1.1 4zM257.8 24.4a27.5 27.5 0 11-54.6 6.2 27.5 27.5 0 0154.6-6.2z"/><path fill="#000c3e" d="M168.4 247.5s10.4 15.3 43.9 16.1c33.4 1 57.2-14.7 83.7-9.4 26.5 5.3 61-12 66.6-23.7 5.6-11.6-13.6-128.3-36.4-145-22.7-16.6-129-17.2-148 9-19.1 26.4-26 142-9.8 153z"/><path fill="#000c3e" d="M342.4 127a90.6 90.6 0 11-180 20.2 90.6 90.6 0 01180-20.3z"/><path fill="#ffceb0" d="M301 209.7s16.3 68.9 11.6 77.5c-4.6 8.6-42.3 8.4-52.3 8-10-.6-25.2-75.5-19.4-76.4 5.8-.9 56.6-24.4 60-9z"/><path fill="#ffceb0" d="M178.8 144.8s20 108 94.3 101.7c74.2-6.4 51-159.5 22.2-170-28.8-10.6-139.4 8.8-116.5 68.3z"/><path fill="#ee9b68" d="M257.7 156.6s19.1 31.4 15.9 34.1c-3.3 2.8-14 4-17.2 2-3.2-2-5-39 1.3-36z"/><path fill="#000c3e" d="M227.9 78s-24.4 16.8-25.8 41.5c-1.4 24.6 10.4 85.5-18 86.9 0 0-72.3-113 43.8-128.3zM241.9 76.5c-2.2 2 27.4-2.5 47.4 15.5 20 17.9 31.7 68.5 34.5 69 2.7.6 3.4-65.4-18-82-21.5-16.5-51.8-14.3-64-2.5z"/><path fill="#ee9b68" d="M245.2 240.5s31 12 58.5-7.7c0 0 5 18 3.3 22.5-1.6 4.5-48.2 14.6-60.6-4.7 0 0-4-10.5-1.2-10z"/><path fill="#ffceb0" d="M318 166.3s3-28.2 16.7-20.4c13.8 7.8 7 38-4.8 42.4-11.7 4.4-16.4-7-11.8-22zM201.5 179.5s-9.1-26.9-20.8-16.2c-11.6 10.7 1.7 38.5 14.2 40.2 12.4 1.7 14.4-10.4 6.6-24z"/><path fill="#41294a" d="M282.7 137.2s11-10 21.3-2.4c9.1 6.7-8.4 3.9-14 6.5-5.4 2.6-13.2 4.1-7.3-4zM232.1 146.8s-13-7.1-21.2 2.7c-7.3 8.7 9 1.8 15 3 6 1.3 14 1 6.2-5.7z"/><path fill="#fffcf6" d="M230.8 156.5c-.8 0-1.6 0-2.4.2a21.3 21.3 0 004.8 42.3 21.2 21.2 0 0018.8-23.6 21.3 21.3 0 00-21.2-18.9zm0 45.5a24.2 24.2 0 01-2.7-48.2 24.1 24.1 0 0121.6 39.1 24 24 0 01-19 9.1zM290 144.2l-2.4.1a21.1 21.1 0 00-18.7 23.5 21.3 21.3 0 1021.1-23.6zm0 45.5a24.2 24.2 0 01-2.7-48.3 24.2 24.2 0 112.7 48.3z"/><path fill="#fffcf6" d="M208.2 177l-.3-.1-9.3-2.1c-.8-.2-1.3-1-1-1.8 0-.8.9-1.3 1.7-1l9.2 2a1.5 1.5 0 01-.3 3zM310.7 157.6c-.5 0-1-.4-1.3-.9-.3-.7 0-1.6.7-2l11.7-5.2a1.5 1.5 0 011.2 2.6l-11.7 5.3-.6.2z"/><path fill="#000c3e" d="M236 71s12.2 58.4 29.2 61.3c17 3 56.8-4.6 57.7-11.3 1-6.8-39.8-53.6-64.6-58.4-43.6-8.3-69.2 64.4-62 79.9 7.2 15.5 40.6-4.1 47.9-7.3 7.2-3.3-8-52.3-8.3-64.2z"/><path fill="#fffcf6" d="M253.2 175.5c-.6 0-1.2-.5-1.4-1.2-.2-.7.3-1.5 1.1-1.7l14.6-3.4c.9-.2 1.6.3 1.8 1 .2.9-.3 1.7-1.1 1.8l-14.6 3.4h-.4z"/><path fill="#000c3e" d="M217.3 57.3c-.2 0-.5 0-.7-.2-8.6-2.9-14.2-7.9-16.7-14.8-5.4-15.3 6.3-34.3 6.9-35.1.6-1 2-1.4 3-.7 1 .6 1.3 2 .7 3-.1.2-11.2 18-6.4 31.3 2 5.7 6.7 9.8 13.9 12.2a2.2 2.2 0 01-.7 4.3zM249.4 57.4c-.6 0-1-.2-1.5-.6-.9-.8-1-2.2-.2-3 .2-.2 14-16 11.5-30-1.1-5.8-5-10.6-11.8-14.2-1-.6-1.4-2-.9-3 .6-1 2-1.4 3-.9 8 4.3 12.7 10.1 14 17.4 2.8 16-11.9 32.8-12.5 33.5-.4.5-1 .8-1.6.8zM354.5 228.3c-.5 0-1-.2-1.5-.6-.9-.8-.9-2.2 0-3 .6-.8 16-17.4 7.9-40.3-3.2-8.9-8-18.6-13.2-28.9-8.9-18-18.1-36.5-21-55.3-.3-1.1.6-2.3 1.8-2.5 1.1-.2 2.3.7 2.4 1.9 2.9 18.1 12 36.3 20.8 54 5.1 10.4 10 20.2 13.3 29.4a45 45 0 01-8.9 44.6c-.4.5-1 .7-1.6.7z"/><path fill="#000c3e" d="M346.8 128.5c-1.1 0-2.1-1-2.1-2.1-.7-24.3-8.2-43-22.3-55.9C299.7 50 267.3 51.8 267 52c-1.4.1-2.3-.9-2.4-2 0-1.3.9-2.3 2-2.4 1.5 0 34.7-2 58.7 19.8 15 13.6 23 33.5 23.7 59 0 1.2-.9 2.2-2.1 2.2z"/><path fill="#ee9b68" d="M268.6 226.5c-2.5 0-4.3-.4-4.5-.5a2.2 2.2 0 01-1.5-2.6 2.2 2.2 0 012.6-1.6s6.3 1.5 11-1.9c1-.6 2.5-.4 3.1.6.7 1 .5 2.3-.5 3-3.4 2.4-7.3 3-10.2 3zM196.1 196.4a2.2 2.2 0 01-2.2-2.5c2-13.6-8.7-20.7-8.8-20.8-1-.6-1.3-2-.6-3 .6-1 2-1.3 3-.7a26 26 0 0110.8 25.1c-.2 1.1-1.1 1.9-2.2 1.9zM325.4 183.3c-1.1 0-2-.9-2.2-2a43.6 43.6 0 016-26.6 2.2 2.2 0 013.6 2.5s-6.1 9-5.2 23.8c0 1.2-.8 2.3-2 2.3h-.2z"/><path fill="#ffceb0" d="M204.9 291.1s49.7 59.5 88 43.6c38.4-16 74.3-59 55-64.8-19.3-5.7-173.2-2.7-143 21.2z"/><path fill="#41294a" d="M242.3 177.8a6.6 6.6 0 11-13.1 2 6.6 6.6 0 0113-2zM304.5 165.9a6.6 6.6 0 11-13.1 2 6.6 6.6 0 0113-2z"/><path fill="#ee9b68" d="M253.1 218.5c-.3 0-.7 0-1-.2-1-.6-1.5-1.9-1-3 .4-.6 8-15 20-16.3 7-.8 13.7 2.7 20.2 10.4.8 1 .7 2.3-.3 3.1-.9.8-2.3.7-3-.3-5.5-6.5-11-9.5-16.3-8.9-9.8 1-16.6 14-16.6 14-.4.8-1.2 1.2-2 1.2z"/><circle transform="translate(-22.9)" cx="399.9" cy="442.6" r="105.4" fill="#fff"/><path fill="#e27b5a" d="M323 395.5s44 58.8 55 63.7c11 4.9 24.9 3.8 26 9.4 1.3 5.7-23-3.9-19.2 4.8 4 8.8 19 18.7 19.1 27.5 0 8.7-24-18.9-24-18.9s22.7 25.3 15.2 25.9c-7.6.6-27-24.1-27-24.1s21.7 32.4 14.5 29.4c-7.2-3-74.3-80.4-84.6-88.7-10.3-8.2 25-29 25-29z"/><path fill="#f8b38a" d="M451.1 409.8S401 463.4 389.4 467c-11.5 3.7-25.1 1-27 6.5-1.8 5.5 23.5-1.3 18.6 7-4.8 8.2-21 16.4-22 25.1-1 8.7 26-16 26-16s-25.3 22.5-18 24c7.5 1.4 29.6-21 29.6-21s-25.2 29.8-17.7 27.6c7.5-2.1 82.6-71.8 93.8-78.8 11.2-7-21.6-31.6-21.6-31.6z"/><path fill="#f65551" d="M408.3 447s15.5 29.3 29.7 32.4c14.2 3.1 36.8-19.5 43.5-33.2 6.7-13.8-8.3-54.8-21.7-68.8-10.1-1.2-58.6 43.5-51.5 69.6z"/><path fill="#128e5a" d="M309.4 362s53.9 55.2 51.4 68.2c-2.4 13-21.8 28.6-37.4 33.7-15.7 5.1-51.3-15.6-51.3-30.6a103.1 103.1 0 0137.3-71.4z"/><path fill="#ffc6a6" d="M129 426s118.9 65 141.1 64.6c22.2-.2 44.6-12.6 51-4 6.3 8.5-41.9 11-28.7 22.7 13.1 11.6 46.1 16.7 53 31.4 6.8 14.6-54.8-13.2-54.8-13.2s57.4 25 45.3 31.7c-12.2 6.8-63.8-19.7-63.8-19.7s61.3 37.6 47 38.2c-14.5.6-186.1-78.2-209.8-84C85.7 487.8 129 426 129 426z"/><path fill="#d9423d" d="M220.7 422.3s1.5 55.1-11.2 76.2c-30.1 50-111.6 43.9-135.9 8-24.3-35.9 28.8-217.1 64.7-219.9 35.9-2.7 82.4 83.4 82.4 135.7z"/><path fill="#ffd310" d="M244 5.7c-.7 0-1.4 0-2.2.2a5 5 0 00-4 3c-3.3 7.2 3.7 24.4 8.8 34.6 3.1-11.3 6.8-30.2 1.6-36.1a5.3 5.3 0 00-4.2-1.7zm3.2 46.3c-.9 0-1.7-.4-2-1.2-1.9-3.2-17.3-31.5-11.6-43.9 1.4-3 3.9-4.9 7.2-5.6 5.8-1.1 9.1 1 10.8 3 9.2 10.3-1 42.5-2.2 46.1a2.3 2.3 0 01-2.2 1.6z"/><path fill="#ffd310" d="M275.4 17.2h-.6c-8 1-17.5 17.8-22.5 28.4 10.5-4.4 27-12.9 29.3-20.5a5 5 0 00-1-4.8c-1.7-2.1-3.3-3.1-5.2-3.1zm-27.6 35a2.3 2.3 0 01-2.1-3.3c1.4-3.5 14.7-34.5 28.4-36.3 2.7-.4 6.5.2 10.1 4.8a9.7 9.7 0 011.9 9c-3.8 13-34 24.4-37.5 25.6l-.8.2z"/><path stroke="#ffd310" stroke-width="4.9" d="M204 44a57.6 57.6 0 0057.5 0"/><defs><linearGradient id="paint0_linear" x1="23.3" x2="56" y1="468.2" y2="581.6" gradientUnits="userSpaceOnUse"><stop stop-color="#FCC"/><stop offset="1" stop-color="#FEE"/></linearGradient><linearGradient id="paint1_linear" x1="633.3" x2="267.8" y1="165" y2="80.6" gradientUnits="userSpaceOnUse"><stop stop-color="#fff"/><stop offset="1" stop-color="#FFCECE"/></linearGradient><linearGradient id="paint2_linear" x1="555.8" x2="430.4" y1="169" y2="115.5" gradientUnits="userSpaceOnUse"><stop stop-color="#FFD1D1"/><stop offset="1" stop-color="#FFFBFC"/></linearGradient><linearGradient id="paint3_linear" x1="527.5" x2="23.4" y1="522.2" y2="230.3" gradientUnits="userSpaceOnUse"><stop stop-color="#FFCDCD"/><stop offset="1" stop-color="#FFF3F3"/></linearGradient></defs></svg>