<svg xmlns="http://www.w3.org/2000/svg" fill="none" viewBox="0 0 1170.1 792.6"><path fill="url(#paint0_linear)" d="M541.1 722.8c-35.2 20.4-72 33.6-114 33.4-46.8-.2-93.2-31.6-122.5-66-10.9-12.8-20.4-27.6-22.6-44.3-5.1-38.5 30.1-49.4 61.8-49a208 208 0 0152.3 10.2c28.3 8.2 60 8.9 86.6 22.6 9 4.6 16.1 10.8 26 13.5 15.4 4.2 32.1 4.5 47.8 8 13.4 3 28.9 9.3 31.4 22.8 2.5 13.8-10.2 25.3-21.9 33.2a402.4 402.4 0 01-24.9 15.6z" transform="translate(-.5 -79.8)"/><path fill="url(#paint1_linear)" d="M292.8 267.7C333.8 157.4 457.2 87 573.4 96.2c56 4.4 108.2 29.5 157.4 56.8 43.3 24 86.2 50.8 120.6 87a405.4 405.4 0 0160 86c24.1 45 28 109.7-35.2 120.4-14.8 2.5-28.7.4-43.5-.9-12-1-22.2 3.9-34 4.9-30 2.5-60.3-1.4-89.6-7.3-59.7-12.3-117-34.7-177.4-43.5-49.5-7.1-100-4.7-148.6 7.1-20.5 5-41.7 11.7-62.3 7-50.7-11.5-45.3-77.5-36.9-116a229 229 0 018.9-30z" transform="translate(-.5 -79.8)"/><path fill="url(#paint2_linear)" d="M792.5 161.7c12 6.5 56.8 21.4 50.6-7.4a30.5 30.5 0 00-12.2-17.5c-6.5-4.7-13-6.5-18.7-12.5a170.5 170.5 0 00-22.1-19.7C773.9 92.4 756 82 736.8 80c-13.4-1.3-34 4.9-36 22.1-2.9 25.2 34.7 20.4 47.8 26 12.6 5.4 21.9 17.6 33 26.4 3.4 2.8 7 5.2 11 7.3z" transform="translate(-.5 -79.8)"/><path fill="url(#paint3_linear)" d="M588.7 174.8c25.6 7.7 47.2 23.3 71.5 34.2 40.4 18.1 88.3 12.1 131.7 21 44.3 9 81.4 30.8 105.3 69.5a329 329 0 0147 173.4c-1.3 65.3-29.8 115.5-79.4 156.5-49.6 41-108.8 68.9-170.3 86.7-6 1.7-11.9 3.3-17.9 4.8-134.8 33.9-326 30.4-407.5-103.4a217.1 217.1 0 01-22.7-51.3 484.6 484.6 0 01-16-188.2c5-41 30-73.1 56.3-103.6 37-42.8 87.2-71.5 140.6-88.7C467 173 512 161 554 167c11.8 1.7 23.4 4.3 34.8 7.8z" transform="translate(-.5 -79.8)"/><path fill="url(#paint4_linear)" d="M902.3 591.9c-23.7 33-51.8 60.2-90.1 77.4-42.8 19-98 9.6-138.9-9.7-15.2-7.2-30-16.7-38.8-31-20.5-33 7-57.4 36.1-70 16.4-7.2 34.2-9.8 51.8-12.4 29.2-4.2 58.3-16.6 88.2-15.1 10 .5 19.2 3.1 29.3 1.5 15.8-2.4 31.1-9.1 46.9-12.3 13.4-2.8 30-3.5 38 7.8 8 11.5 1 27.3-6.3 39.2a402.1 402.1 0 01-16.2 24.6z" transform="translate(-.5 -79.8)"/><path fill="#000c3e" d="M506 332.6c-.4 0-.7-.2-1-.4-.3-.2-6.6-5.2-11.4-15.4a64 64 0 01-2-46.6c4.3-14.7 8.7-25.1 12.5-34.3a125 125 0 0012.5-54.3c0-1 .6-1.7 1.6-1.6.9 0 1.6.7 1.5 1.6-.4 26.2-5.8 39.1-12.6 55.5-3.8 9.1-8.1 19.5-12.4 34-11.7 39.4 12 58.4 12.2 58.6a1.6 1.6 0 01-1 2.9zM636.3 81.3a31.4 31.4 0 11-62.7-.9 31.4 31.4 0 0162.7.9z"/><path fill="#000c3e" d="M503 321.3s9.6 18.8 47.3 24.6c37.8 5.8 67-8.5 96.3 1.3 29.2 9.9 70.8-4.9 78.9-17.3 8-12.3 3-147.4-20.4-169.5-23.4-22-143.8-38.1-169.1-11-25.4 27.1-50 157.1-33 172z"/><path fill="#000c3e" d="M717.5 209.6a103.4 103.4 0 11-207-2.8 103.4 103.4 0 01207 2.8z"/><path fill="#ffceb0" d="M529.5 206.3s7.2 125.5 92.2 128.9c85 3.4 80.8-173.5 49.6-189.6-31-16-159.2-9.9-141.8 60.7z"/><path fill="#f5a473" d="M617.3 231.1s17.1 38.3 13 41c-4.1 2.6-16.3 2.4-19.7-.3-3.3-2.8 0-44.8 6.7-40.7z"/><path fill="#41294a" d="M592.2 244.7a8 8 0 11-16-.4 8 8 0 0116 .4zm68.3-5.4a8 8 0 11-15.9-.4 8 8 0 0116 .4zm-65.8-101.5s-30 15.4-35.2 43.2c-5.1 27.8-.4 98.4-32.8 96 0 0-65.7-138.6 68-139.2zm16.1.2c-2.7 2 31.4 1.2 51.5 24.4 20 23.2 26.1 82.2 29.2 83.2 3 1 13.3-73.6-8.6-95.5-22-21.8-56.7-23.7-72.1-12z"/><path fill="#ffceb0" d="M684.3 250.8s7.3-31.6 21.8-20.7c14.4 10.8 2.4 44-11.6 47.3-13.9 3.3-17.6-10.2-10.2-26.6zm-134-1.8s-6.5-31.8-21.3-21.4c-14.7 10.5-3.6 44 10.3 47.6 13.8 3.7 17.9-9.6 11-26.2z"/><path fill="#41294a" d="M648.7 211.2s15-8 24.3 3.4c8.1 10-10.5 2-17.3 3.2-6.8 1.3-15.9.7-7-6.6zM589 214s-15.3-7.1-24 4.7c-7.6 10.4 10.5 1.4 17.4 2.3 7 1 15.9 0 6.7-7zm54.3 81.4s-9.8-14.8-20.4-13.8c-10.6.9-18.7 14.5-20.2 15.1 0 0 16.6 7.8 40.6-1.3z"/><path fill="#fffcf6" d="M583.7 227a24.5 24.5 0 00-17.5 41.3 24.2 24.2 0 0017.2 7.4h.3a24.4 24.4 0 00.3-48.8zm0 51.9h-.4a27.4 27.4 0 01-27.2-28c.3-15 12.6-27.2 27.6-27.2h.4a27.6 27.6 0 01-.4 55.2zm68.9-57.5a24.4 24.4 0 00-.3 48.8h.3a24.5 24.5 0 0017.5-41.4 24.2 24.2 0 00-17.2-7.4zm0 52h-.4a27.6 27.6 0 01.4-55.2h.4a27.4 27.4 0 0127.1 28 27.7 27.7 0 01-27.5 27.2z"/><path fill="#fffcf6" d="M558.4 247l-.5-.1-10.2-3.8a1.6 1.6 0 011-3L559 244a1.6 1.6 0 01-.6 3zm119-7.3c-.7 0-1.3-.4-1.5-1-.3-1 .2-1.8 1-2l14-4.4a1.6 1.6 0 111 3l-14 4.4h-.5z"/><path fill="#000c3e" d="M610.3 167.2s0 31.7 19 37.5c18.8 5.7 67.4 3.2 67-4.6-4.5-70-37.4-66.5-64.9-75.4-48.2-15.8-87.6 63-81.7 81.6 5.9 18.5 46.6 1.2 55.3-1.4 8.7-2.7 3.9-24.2 5.3-37.7z"/><path fill="#db5c5d" d="M561.6 274.4s42.8-24.8 61.7-21.3c18.8 3.4 51.8 4 53.3 10.7 1.5 6.8-41.9 3.7-55.2 5-13.4 1.3-64.6 16.7-59.8 5.6z" opacity=".2"/><path fill="#db5c5d" d="M585.6 257.8a1.6 1.6 0 01-.6-3c4.3-1.8 5-3.2 5-3.2.4-.8 1.2-1.2 2-1 .9.3 1.3 1.3 1 2.1-.2.6-1.3 2.7-6.9 5l-.5.1zm65.4-3.4c-1.2 0-3.4-.4-6.8-2a1.6 1.6 0 111.4-2.9c4.2 2 5.8 1.7 5.8 1.7.8-.3 1.7 0 2 .9.3.8-.1 1.8-1 2.1-.1.1-.6.2-1.3.2z"/><path fill="#fffcf6" d="M609.7 251.8a1.6 1.6 0 01-.2-3.2l17-1.7c1-.1 1.7.5 1.8 1.4.1.9-.5 1.7-1.4 1.7l-17 1.8h-.2z"/><path fill="#000c3e" d="M586 111.8l-.7-.1c-9-4.4-14.5-10.7-16.2-18.7-3.9-17.6 11.9-37.2 12.6-38a1.6 1.6 0 112.4 2c-.1.2-15.5 19.2-11.9 35.4 1.5 7 6.4 12.5 14.5 16.4a1.6 1.6 0 01-.7 3zm36.4 4.7a1.6 1.6 0 01-1.1-2.7c.2-.2 18.4-16.4 17.6-33-.4-7-4.3-13.3-11.6-18.5a1.6 1.6 0 111.8-2.6c8.2 5.8 12.5 12.9 13 21 .9 18-17.9 34.7-18.7 35.4-.3.3-.7.4-1 .4zM717 325.4c-.5 0-1-.2-1.2-.6-.6-.6-.5-1.6.2-2.2.2-.2 21.1-17.6 15-45.3a317.2 317.2 0 00-10.7-34.8c-7.5-21.5-15.3-43.8-16-65.4 0-.9.7-1.6 1.6-1.6.8 0 1.6.6 1.6 1.5.7 21.1 8.4 43.2 15.8 64.5 4.4 12.5 8.5 24.3 10.9 35.1a51.4 51.4 0 01-16.2 48.5 2 2 0 01-1 .3z"/><path fill="#000c3e" d="M722.6 211.8h-.1c-.9 0-1.5-.9-1.4-1.7 2.7-27.9-3.2-50.5-17.5-67.2-23-27-60.4-29.4-60.7-29.4-1 0-1.6-.8-1.5-1.7 0-.9.8-1.6 1.6-1.5.4 0 39.2 2.6 63 30.5 15 17.4 21 40.8 18.2 69.6 0 .8-.8 1.4-1.6 1.4z"/><path fill="#db5c5d" d="M608.7 298.6s15.8-11.2 30-1.6c0 0-16.5 6.2-30 1.6zm10.5 11.4h-3.8c-.8 0-1.5-.8-1.5-1.7 0-.8.6-1.5 1.6-1.5 6 0 13.2 0 14.3-.5.8-.3 1.7 0 2 .9.4.8 0 1.7-.9 2-1.5.7-7.5.8-11.7.8zM542 266.5l-.4-.1a1.6 1.6 0 01-1.1-2 26 26 0 00-7.3-25.7 1.6 1.6 0 112-2.4c.6.4 13.2 11.4 8.3 29-.1.7-.8 1.2-1.5 1.2zm148.5 3.8h-.1c-1-.1-1.6-.9-1.5-1.7a48.9 48.9 0 0110.4-28.8c.6-.6 1.6-.7 2.2 0 .7.5.7 1.5.1 2.2 0 0-8.4 9.5-9.6 26.8 0 .8-.7 1.5-1.5 1.5z"/><path fill="#ffceb0" d="M658.5 322.2s5 56.6-1.6 65.5c-6.8 9-49.3 2.3-60.5 0-11.2-2.2-11.2-95.8-9-89.5 18.8 52.2 69.8 6 71.1 24z"/><path fill="#f5a473" d="M591.5 327.8s30.2 14.5 64.5-3c0 0 2.6 21 0 25.9-2.7 4.8-57 8.3-67.7-15.6 0 0 .1-8.4 3.2-7.3z"/><path fill="#fb4c47" d="M426.8 771.1h390.4s19.9-339.4-29-376.3c-48.9-36.9-264.2-18.5-314.9 13-50.6 31.6-46.5 363.3-46.5 363.3z"/><path fill="#05ba6e" d="M621.7 381s-15 130.5-8.5 148.6c6.6 18.2-1.8 98.7-4.5 109.2-2.7 10.4-83.8 14.9-104.7 6.5-21-8.4 5.3-234 17-275.8 11.7-41.7 99.4-17.1 100.7 11.5z"/><path fill="#ffceb0" d="M383.5 221.2s32.6 62.5 55.5 63c22.9.6 100-93.3 128.4-94.3 28.5-1 52.9 1.8 53-5 .1-6.7-39.6-14.1-39.6-14.1s57.4 3.6 45.5-2.6c-11.8-6.3-40.2-12-40.2-12s41.2 1.7 41.5-2.7c.3-4.4-43-10.9-43-10.9s52.6-1.7 43-9c-9.6-7.2-27.7-4-76.7 3.5-49 7.4-159.8 72.8-167.4 84z"/><path fill="#fb4c47" d="M440.8 218.2s52.1 31 29.4 66.3c-24.2 37.5-22.8 26.4-27 41.6-4.2 15.1 64.8 44.7 68 57.7 3 13-29.5 172.8-60 166.2-26.4-5.7-173.7-89.3-195-172.8-16.3-64.8 117.4-223.2 184.6-159z"/><path fill="#fff" d="M577.4 582.6s-57.9 127.5-36.6 144.5c21.3 17 38.4 6 57.2 17 18.8 11.1 36.9 5.6 52-4 15-9.7-24.2-136.5-40.5-148.5-16.3-12.1-29.2-15.6-32.1-9z"/><path fill="#fb4c47" d="M769.5 385.7s31.1 3.8 55.5 48.5c18.4 33.6 53.8 229.6 0 257.5-53.7 28-104.2 13.3-123.7-5.5-19.6-18.8 15.2-115.8 38.3-123 23.2-7.3 30-177.5 30-177.5z"/><path fill="#05ba6e" d="M779.6 382.7s1.5-9-43.3-28.4c-35.8-15.5-66.4 10.6-120.9 13.5-54.5 2.8-49.6-18.8-88.1-8.8-59.5 15.5-12.2 54.5 7 58.9 19.2 4.3 83.4 112.3 245.3-35.2z"/><path fill="#fff" d="M623.3 273.8s-.1 3.7 2 4c2 .4 6-.8 5-5.7 0 0-5.3 1.7-7 1.7z"/><path fill="#b31b1f" d="M844 579.6h-.4a3.2 3.2 0 01-2.7-2.9c-2.7-3-20.5-9.4-32.3-13.7-23.6-8.5-34.1-12.7-36.4-17.3-1.9-3.9-1-9.5 0-16.6 1.8-11.3 4-25.3-3.2-38.7-12.3-23.3-11.2-57.9-11.1-59.3a3.2 3.2 0 016.4.2c0 .4-1.2 34.3 10.3 56 8.1 15.4 5.7 31.2 4 42.8-.9 5.5-1.7 10.7-.7 12.8 2 3 20.5 9.7 32.8 14 27.7 10 37.3 14 36.5 20a3.2 3.2 0 01-3.1 2.7zm-83-26.2l-.8-.1a367.8 367.8 0 00-27-5.9 3.2 3.2 0 111.1-6.2c.7 0 16.8 3 27.6 6a3.2 3.2 0 01-.9 6.2zm57.2 157.4h-.2c-58.8-2.7-117.5-27.8-120.7-51.6a117 117 0 00-2.2-13.1 3 3 0 01-1.7-3.3c.4-2.6 2.2-3.5 3.6-3.5 3.3 0 4.3 1.9 6.6 19 2.5 18.6 55.9 43.5 114.7 46.1a3.2 3.2 0 01-.1 6.4z"/><path fill="#b31b1f" d="M712.6 654.5l-.7-.1c-1.7-.4-2.8-2-2.4-3.8.1-.6 14-62 27-106a3.2 3.2 0 116.2 1.7c-13 44-26.8 105-27 105.7a3.2 3.2 0 01-3 2.5zM436.5 521.2h-.4c-1.8-.3-3-1.9-2.7-3.6.3-2.2 8.2-54 19-78.3 10.4-23.6 15.8-47.5 15.9-47.7a3.2 3.2 0 116.2 1.4 289 289 0 01-16.3 48.9c-10.5 23.4-18.4 76.1-18.5 76.6a3.2 3.2 0 01-3.2 2.7zm-48.5-181c-8.4 0-18-.5-28.4-1.8a3.2 3.2 0 01.8-6.3c31.8 4 54.4.3 66.1-2.3-5.8-1.8-14-3.6-22-3.2-18.3.9-45-15.4-46.1-16.1a3.2 3.2 0 113.3-5.4c.3.1 26.2 16 42.4 15.2 15.5-.8 33.8 6 35.5 9 .6 1 .5 2.4-.2 3.4-.6 1-1.9 1.5-3 1.4-.5 0-2 .5-3.5.8a183 183 0 01-44.9 5.3zm78.2-68.4a3 3 0 01-2.8-1.8c-.1-.1-8-16.3-21.6-22.6-15.3-7.3-32.7-32.6-33.4-33.7a3.2 3.2 0 015.2-3.6c.2.3 17.2 25 31 31.5a60.2 60.2 0 0124.5 25.7 3.2 3.2 0 01-2.9 4.5z"/><path fill="#08824f" d="M614 456.8h-.3c-.9-.3-1.4-1.1-1.2-2 0-.3 7.6-33.5 9.9-50.4 3.4-26.2-8.3-35.4-8.5-35.5a1.6 1.6 0 012-2.5c.5.4 13.3 10.2 9.6 38.5a654 654 0 01-10 50.6c0 .8-.7 1.3-1.5 1.3zM520.2 409l-3.2-.5 3.8-32a67 67 0 014.5-18.2 1.6 1.6 0 012.9 1.2s-3 7.2-4.2 17.4l-3.8 32z"/><path fill="#b31b1f" d="M610.5 761.6c-18.1 0-28-.6-41.9-1.4-17.8-1-42-2.5-99-3.4a3.2 3.2 0 11.2-6.4c57 1 81.4 2.4 99.2 3.5 13.7.8 23.6 1.4 41.5 1.4 22.5 0 42.7-2.5 62.2-4.9 17.1-2 33.3-4 50.6-4.4 37-.8 64.6 0 64.9 0a3 3 0 013 3.3c0 1.7-1.5 3-3.2 3-.3 0-27.8-.8-64.5 0-17 .4-33 2.4-50 4.4-19.7 2.5-40 5-63 5z"/><path fill="#fff" d="M754.7 719.2c-1.6 0-3.2-.7-4.6-2.8-4.3-6.5-5.6-7-13.9-5.8-7.5 1.2-10.5-4.1-12.4-7.6-.7-1.2-1.3-2.3-1.8-2.8-1.5-1.1-5.2.3-6.7 1.1l-1.6-2.8c.7-.3 6.7-3.5 10.2-.8 1 .9 1.8 2.2 2.7 3.7 1.9 3.4 3.8 6.9 9.1 6 9.6-1.4 12.1-.3 17 7.2 1.4 2 2.6 1.8 6-.3 2.8-1.6 6.8-4 9.9.3l-2.6 1.8c-1.2-1.6-2.3-1.3-5.6.6-1.6 1-3.7 2.2-5.7 2.2z"/><path fill="#ffceb0" d="M717.7 569.3s-76-27.4-109-13.4c-33 14-60.2 50.3-55.1 52.7 5 2.4 32-18.5 32-18.5s-27.5 27.8-22.4 30.5c5 2.8 31.5-12 31.5-12s-18.4 19.7-10.5 21.3c8 1.5 25-14.8 42.7-15.4 17.7-.6 40 13.4 62.3 17.3 22.2 4 28.5-62.5 28.5-62.5z"/><path fill="#b31b1f" d="M832.4 555h-.6c-.3 0-22.6-4.2-49.4-9.7a3.2 3.2 0 011.3-6.2c26.7 5.4 49 9.6 49.2 9.7a3.2 3.2 0 01-.5 6.3z"/><path fill="#ffd310" fill-rule="evenodd" d="M620 55l-2.8.3c-2.4.5-3.9 1.6-4.8 3.7-4.2 9 4.6 30.2 10.8 42.8 3.8-14 8.5-37.3 2-44.7a6.5 6.5 0 00-5.3-2zm3.4 57.3h.3a2.9 2.9 0 002 0c4.3-1.5 41.7-15.5 46.3-31.7a12 12 0 00-2.2-11c-4.5-5.8-9.3-6.5-12.5-6-9.2 1.2-18.3 13-25 24.4 2.4-12.9 3.3-27.8-2.8-34.7-2.2-2.4-6.3-5-13.4-3.7a12 12 0 00-9 7c-6.2 13.5 8.2 42.8 13 51.9-6 1.2-12.2 1.4-18 1a67.5 67.5 0 01-30.4-9l-2.4 3.7a71.8 71.8 0 0032.5 9.7c7 .5 14.3 0 21.6-1.6zm35.5-43h-.9c-9.7 1.3-21.5 22-27.7 35 13-5.4 33.5-15.8 36.2-25.3.6-2.1.2-4-1.3-6-2-2.5-4-3.8-6.3-3.8z" clip-rule="evenodd"/><g tabindex="0" class="symptoms_item"><path stroke="#ffb2b1" stroke-linejoin="round" stroke-width="5" d="M196.8 164h113.3a24 24 0 0118.7 9l33.2 41.3a24 24 0 0019.4 9l213-6.5" class="symptoms_curve"/><path fill="#ff383d" d="M208.9 164.5a9.1 9.1 0 11-18.2 0 9.1 9.1 0 0118.2 0z" class="symptoms_point"/><path fill="#ffe1e2" d="M10.5 164.6a70.6 70.6 0 11141.3 0 70.6 70.6 0 01-141.3 0z" class="symptoms_name"/><path stroke="#ffd6d7" stroke-miterlimit="10" stroke-width="2.4" d="M80.9 76.7a88.3 88.3 0 110 176.7V297"/><path fill="#f2aeb0" d="M73.6 299.2a7.3 7.3 0 1114.5 0 7.3 7.3 0 01-14.5 0z"/><path fill="#ff383d" d="M61.6 157.3v2.2h-5.8v3.6h4.4v2.2h-4.4v6H53v-14zm4.8 2.2v3.5H71v2.3h-4.7v3.7h5.3v2.2h-8.1v-14h8v2.3zm20.3-2.2l-5 14h-3.5l-5.1-14h3l3.8 11 3.9-11zm4.5 2.2v3.5H96v2.3h-4.7v3.7h5.3v2.2h-8v-14h8v2.3zm15 11.7l-3-5.4h-1.3v5.4H99v-14h5.2c1 0 2 .3 2.8.7.7.3 1.3.9 1.7 1.5.4.6.5 1.4.5 2.2a4 4 0 01-.8 2.5c-.5.7-1.3 1.2-2.3 1.5l3.3 5.6zm-4.3-7.5h2.3c.8 0 1.3-.2 1.7-.5.4-.4.6-1 .6-1.6a2 2 0 00-.6-1.5c-.4-.3-1-.5-1.7-.5H102z"/><circle r="1" class="symptoms_marker"/></g><g tabindex="0" class="symptoms_item"><path stroke="#ffb2b1" stroke-linejoin="round" stroke-width="5" d="M190 423.3h203.4a24 24 0 0019-9.3l42.6-55a24 24 0 0119-9.3h157.2" class="symptoms_curve"/><path fill="#ff383d" d="M200.3 423.8a9.1 9.1 0 11-18.2 0 9.1 9.1 0 0118.2 0z" class="symptoms_point"/><path fill="#ffe1e2" d="M158.8 408.6a70.6 70.6 0 10-141.3 0 70.6 70.6 0 00141.3 0z" class="symptoms_name"/><path stroke="#ffd6d7" stroke-miterlimit="10" stroke-width="2.4" d="M89.5 320.3a88.3 88.3 0 100 176.6v43.6"/><path fill="#f2aeb0" d="M97 542.8a7.3 7.3 0 10-14.6 0 7.3 7.3 0 0014.6 0z"/><path fill="#ff383d" d="M57 387.3v2.2h-3.8v11.7h-2.8v-11.7h-3.7v-2.2zm13.5 0v14h-2.8v-6h-6v6H59v-14h2.8v5.7h6v-5.7zm10 14l-3-5.5H76v5.4h-2.8v-14h5.2c1.1 0 2 .3 2.8.7.7.3 1.3.9 1.7 1.5.4.6.6 1.4.6 2.2 0 .9-.3 1.7-.8 2.5a5 5 0 01-2.4 1.5l3.3 5.6zm-4.4-7.6h2.3c.8 0 1.4-.2 1.7-.5.4-.4.6-1 .6-1.6a2 2 0 00-.6-1.5c-.3-.3-1-.5-1.7-.5h-2.3zm16.5 7.7a7.2 7.2 0 01-6.2-3.5c-.7-1-1-2.3-1-3.7a7 7 0 017.2-7.1c1.3 0 2.5.3 3.6 1 1 .5 2 1.4 2.6 2.5a7 7 0 011 3.6 7.2 7.2 0 01-3.6 6.3c-1.1.6-2.3.9-3.6.9zm0-2.5a4 4 0 002.2-.6 4 4 0 001.5-1.6c.4-.7.5-1.5.5-2.5 0-.9-.1-1.7-.5-2.4s-.9-1.3-1.5-1.6a4 4 0 00-2.2-.6c-.9 0-1.6.2-2.3.6-.6.3-1.1.9-1.5 1.6a6.2 6.2 0 000 4.9 4 4 0 001.5 1.6c.7.4 1.4.6 2.3.6zm17.8-.3h-5.6l-1 2.6H101l5-14h3.3l5 14h-3zm-.8-2.3l-2-5.8-2 5.8zm16-9v2.2H122v11.7h-2.8v-11.7h-3.7v-2.2zm-48.9 33.3c0 .8-.2 1.5-.5 2.1-.4.7-1 1.2-1.7 1.6a6 6 0 01-2.8.6h-2.4v5.3h-2.8v-14h5.2c1 0 2 .3 2.7.6.8.4 1.4 1 1.7 1.6.4.6.6 1.4.6 2.2zm-5.1 2c.7 0 1.3-.1 1.7-.5.4-.4.5-.9.5-1.5 0-1.4-.7-2-2.2-2h-2.3v4zm15.7 5h-5.6l-1 2.6h-2.9l5-14h3.3l5 14h-3zm-.8-2.3l-2-5.8-2 5.8zm9.3-9v14H93v-14zm14.7 14h-2.8l-6.3-9.6v9.5h-2.8v-14h2.8l6.3 9.7v-9.6h2.8z"/><circle r="1" class="symptoms_marker"/></g><g tabindex="0" class="symptoms_item"><path stroke="#ffb2b1" stroke-linejoin="round" stroke-width="5" d="M186.3 663h178.3a24 24 0 0022-14.5l56.5-133a24 24 0 0122-14.6h207.2" class="symptoms_curve"/><path fill="#ff383d" d="M201.5 663.5a9.1 9.1 0 11-18.2 0 9.1 9.1 0 0118.2 0z" class="symptoms_point"/><path fill="#ffe1e2" d="M10.5 650.6a70.6 70.6 0 11141.3 0 70.6 70.6 0 01-141.3 0z" class="symptoms_name"/><path stroke="#ffd6d7" stroke-miterlimit="10" stroke-width="2.4" d="M80.9 562.9a88.3 88.3 0 110 176.6v43.6"/><path fill="#f2aeb0" d="M73.6 785.3a7.3 7.3 0 1114.5 0 7.3 7.3 0 01-14.5 0z"/><path fill="#ff383d" d="M33.9 643.2c1.4 0 2.7.3 3.8.9a6 6 0 012.6 2.5 7.3 7.3 0 010 7.3c-.6 1-1.4 1.9-2.6 2.4-1 .6-2.4.9-3.8.9h-5v-14zm-.1 11.6c1.4 0 2.6-.4 3.4-1.2.8-.8 1.2-2 1.2-3.4s-.4-2.5-1.2-3.4c-.8-.8-2-1.2-3.4-1.2h-2v9.2zm20.6-11.6l-4.7 9.1v4.9h-2.8v-4.9l-4.7-9h3.1l3 6.3 3-6.4zm11.8 4.4c0 .7-.2 1.4-.5 2-.4.7-1 1.2-1.7 1.6a6 6 0 01-2.8.6h-2.4v5.4H56v-14h5.2c1 0 2 .2 2.7.6.8.4 1.4.9 1.7 1.5.4.7.6 1.4.6 2.3zm-5.1 2c.7 0 1.3-.2 1.7-.5.4-.4.5-.9.5-1.5 0-1.4-.7-2-2.2-2h-2.3v4zm12 7.7c-1 0-2-.1-2.7-.5-.8-.3-1.4-.8-1.8-1.4-.5-.6-.7-1.4-.7-2.2h3c0 .6.2 1 .6 1.3.3.4.8.5 1.5.5.6 0 1.1-.1 1.5-.4.4-.3.6-.8.6-1.3 0-.4-.2-.7-.4-1-.3-.2-.6-.5-1-.6l-1.5-.5c-1-.3-1.7-.5-2.2-.8-.6-.3-1.1-.7-1.5-1.2-.4-.5-.6-1.2-.6-2.1 0-.8.2-1.5.6-2.2.4-.6 1-1 1.8-1.4.7-.3 1.6-.5 2.5-.5 1.5 0 2.6.4 3.5 1.1 1 .7 1.4 1.7 1.5 3h-3c-.1-.6-.3-1-.7-1.3-.4-.3-.9-.4-1.5-.4a2 2 0 00-1.3.4c-.3.3-.5.7-.5 1.2 0 .4.1.7.4 1 .2.2.5.4.9.5l1.6.6c.9.2 1.6.5 2.2.8.5.2 1 .6 1.5 1.2.4.5.6 1.2.6 2a4 4 0 01-2.3 3.7c-.8.4-1.6.5-2.7.5zm19.2-.1h-2.8l-6.3-9.6v9.6h-2.8v-14h2.8l6.3 9.6v-9.6h2.8zm9.3.1a7.2 7.2 0 01-6.2-3.4c-.7-1.1-1-2.3-1-3.7a7 7 0 017.2-7.2c1.3 0 2.5.3 3.6 1a7 7 0 012.6 2.5 7 7 0 011 3.7c0 1.4-.4 2.6-1 3.7a7.2 7.2 0 01-6.2 3.5zm0-2.5a4 4 0 002.2-.5 4 4 0 001.5-1.7c.4-.7.5-1.5.5-2.4 0-1-.1-1.8-.5-2.5s-.9-1.2-1.5-1.6a4 4 0 00-2.2-.5c-.9 0-1.6.1-2.3.5-.6.4-1.1 1-1.5 1.6a6.2 6.2 0 000 4.9 4 4 0 001.5 1.7c.7.4 1.4.5 2.3.5zm12-9.3v3.5h4.7v2.2h-4.7v3.7h5.3v2.3h-8v-14h8v2.3zm16.4 9h-5.5l-1 2.7h-3l5.1-14h3.3l5 14h-3zm-.7-2.2l-2-5.8-2 5.8z"/><circle r="1" class="symptoms_marker"/></g><g tabindex="0" class="symptoms_item"><path stroke="#ffb2b1" stroke-linejoin="round" stroke-width="5" d="M975.4 143.1H849a24 24 0 00-16.5 6.5l-28.5 27a24 24 0 01-16.5 6.5h-114" class="symptoms_curve"/><path fill="#ff383d" d="M979.5 142.4a9.1 9.1 0 11-18.3 0 9.1 9.1 0 0118.3 0z" class="symptoms_point"/><path fill="#ffe1e2" d="M1159.5 134.6a70.6 70.6 0 10-141.2 0 70.6 70.6 0 00141.2 0z" class="symptoms_name"/><path stroke="#ffd6d7" stroke-miterlimit="10" stroke-width="2.4" d="M1089.4 47.9a88.3 88.3 0 000 176.6v43.6"/><path fill="#f2aeb0" d="M1096.7 270.3a7.3 7.3 0 10-14.6 0 7.3 7.3 0 0014.6 0z"/><path fill="#ff383d" d="M1047.9 127.3v14h-2.8v-6h-6v6h-2.8v-14h2.8v5.7h6v-5.7zm5.5 2.2v3.5h4.7v2.3h-4.7v3.7h5.3v2.2h-8v-14h8v2.3zm16.4 9h-5.5l-1 2.7h-2.9l5-14h3.3l5 14h-3zm-.7-2.2l-2-5.8-2 5.8zm11.4-9c1.4 0 2.7.3 3.8.8a6 6 0 012.6 2.5 7.3 7.3 0 010 7.4c-.6 1-1.5 1.8-2.6 2.4-1 .6-2.4.8-3.8.8h-5v-14zm-.1 11.6c1.4 0 2.6-.4 3.4-1.2.8-.8 1.2-2 1.2-3.4 0-1.5-.4-2.6-1.2-3.4-.8-.8-2-1.3-3.4-1.3h-2v9.3zm18-.3h-5.5l-1 2.6h-2.9l5-14h3.3l5 14h-3zm-.7-2.3l-2-5.8-2 5.8zm5.8-2c0-1.4.4-2.7 1-3.7.6-1.1 1.4-2 2.5-2.6 1-.6 2.3-.9 3.6-.9a7 7 0 014.1 1.2c1.2.8 2 2 2.5 3.3h-3.2a5 5 0 00-1.4-1.5 4.2 4.2 0 00-4.2.1c-.6.4-1 1-1.5 1.6a6.2 6.2 0 000 4.9 4 4 0 001.5 1.6 4.3 4.3 0 004.2.1c.6-.4 1-.9 1.4-1.6h3.2a6.3 6.3 0 01-2.5 3.4 7.1 7.1 0 01-4 1.2c-1.4 0-2.6-.3-3.7-1a6.8 6.8 0 01-3.5-6.2zm27.7-7v14h-2.8v-6h-6v6h-2.8v-14h2.8v5.7h6v-5.7zm5.5 2.2v3.5h4.7v2.3h-4.7v3.7h5.3v2.2h-8v-14h8v2.3z"/><circle r="1" class="symptoms_marker"/></g><g tabindex="0" class="symptoms_item"><path stroke="#ffb2b1" stroke-linejoin="round" stroke-width="5" d="M650.3 278.3h168.8a24 24 0 0121.1 12.6l31.3 57.8a24 24 0 0021 12.6h82.9" class="symptoms_curve"/><path fill="#ff383d" d="M979.5 361.2a9.1 9.1 0 11-18.3 0 9.1 9.1 0 0118.3 0z" class="symptoms_point"/><path fill="#ffe1e2" d="M1005.3 379.6a70.6 70.6 0 11141.2 0 70.6 70.6 0 01-141.2 0z" class="symptoms_name"/><path stroke="#ffd6d7" stroke-miterlimit="10" stroke-width="2.4" d="M1080.6 291.5a88.3 88.3 0 010 176.6v43.7"/><path fill="#f2aeb0" d="M1073.3 514a7.3 7.3 0 1114.5 0 7.3 7.3 0 01-14.5 0z"/><path fill="#ff383d" d="M1050.2 372.2l-3.1-5.4h-1.3v5.4h-2.8v-14h5.2c1.1 0 2 .3 2.8.7.7.3 1.3.9 1.7 1.5.4.6.6 1.4.6 2.2 0 .9-.3 1.7-.8 2.5a5 5 0 01-2.4 1.5l3.3 5.6zm-4.4-7.5h2.3c.8 0 1.3-.2 1.7-.5.4-.4.6-1 .6-1.6a2 2 0 00-.6-1.5c-.4-.3-1-.5-1.7-.5h-2.3zm12.7-6.4v8.6c0 1 .3 1.7.8 2.2.5.5 1.2.7 2 .7 1 0 1.7-.2 2.2-.7.5-.5.7-1.2.7-2.2v-8.6h2.8v8.6c0 1.2-.2 2.2-.8 3-.5.8-1.1 1.5-2 1.9-.9.4-1.8.6-2.9.6-1 0-2-.2-2.8-.6a4 4 0 01-2-1.9c-.5-.8-.8-1.8-.8-3v-8.6zm23.2 14h-2.8l-6.4-9.6v9.5h-2.8v-14h2.8l6.4 9.7v-9.6h2.8zm14.7 0h-2.8l-6.4-9.6v9.5h-2.8v-14h2.8l6.4 9.7v-9.6h2.8zm13.8-14l-4.7 9v5h-2.8v-5l-4.7-9h3.1l3 6.4 3-6.4zm-47.5 43h-2.8l-6.3-9.6v9.5h-2.8v-14h2.8l6.3 9.7v-9.6h2.8zm9.3 0a7.2 7.2 0 01-6.2-3.4c-.7-1-1-2.3-1-3.7a7 7 0 017.2-7.1c1.3 0 2.5.3 3.6 1 1 .5 2 1.4 2.6 2.5a7 7 0 011 3.6 7.2 7.2 0 01-3.6 6.3c-1.1.6-2.3.9-3.6.9zm0-2.4a4 4 0 002.2-.6 4 4 0 001.5-1.6c.4-.7.5-1.5.5-2.5 0-.9-.1-1.7-.5-2.4s-.9-1.3-1.5-1.6a4 4 0 00-2.2-.6c-.9 0-1.6.2-2.3.6-.6.3-1 .9-1.5 1.6a6.2 6.2 0 000 4.9 4 4 0 001.5 1.6c.7.4 1.4.6 2.3.6zm14 2.5c-1 0-1.8-.2-2.6-.5s-1.4-.8-1.9-1.5c-.4-.6-.6-1.3-.7-2.2h3c0 .6.3 1 .6 1.4.4.3 1 .5 1.6.5.6 0 1.1-.2 1.5-.5.4-.3.6-.7.6-1.2 0-.4-.2-.8-.4-1l-1-.7-1.5-.5c-1-.2-1.7-.5-2.3-.8a4 4 0 01-1.4-1.1c-.4-.6-.6-1.3-.6-2.2 0-.8.2-1.5.6-2.1.4-.6 1-1 1.7-1.4a7 7 0 012.6-.5c1.4 0 2.6.3 3.5 1 1 .7 1.4 1.7 1.5 3h-3c-.1-.5-.3-.9-.7-1.2-.4-.3-.9-.5-1.5-.5a2 2 0 00-1.3.4c-.3.3-.5.7-.5 1.2 0 .4.1.7.4 1l.9.6 1.5.5 2.3.8c.5.3 1 .7 1.4 1.2.5.5.7 1.2.7 2.1a4 4 0 01-.6 2c-.4.7-1 1.2-1.7 1.6-.8.4-1.6.6-2.7.6zm10.2-11.9v3.5h4.7v2.3h-4.7v3.7h5.3v2.2h-8.1v-14h8.1v2.3z"/><circle r="1" class="symptoms_marker"/></g><g tabindex="0" class="symptoms_item"><path stroke="#ffa6a6" stroke-linejoin="round" stroke-width="5" d="M725.3 674.7h91a24 24 0 0018.8-9l25.5-31.8a24 24 0 0118.8-9h94.1" class="symptoms_curve"/><path fill="#ff383d" d="M979.5 624.2a9.1 9.1 0 11-18.3 0 9.1 9.1 0 0118.3 0z" class="symptoms_point"/><path fill="#ffe1e2" d="M1159.5 620.6a70.6 70.6 0 10-141.2 0 70.6 70.6 0 00141.2 0z" class="symptoms_name"/><path stroke="#ffd6d7" stroke-miterlimit="10" stroke-width="2.4" d="M1089.4 534a88.3 88.3 0 000 176.7v43.6"/><path fill="#f2aeb0" d="M1096.7 756.5a7.3 7.3 0 10-14.6 0 7.3 7.3 0 0014.6 0z"/><path fill="#ff383d" d="M1049.9 613.4c-1 0-1.9-.2-2.7-.5-.7-.3-1.4-.8-1.8-1.5-.5-.6-.7-1.3-.7-2.2h3c0 .6.2 1 .6 1.4.4.3.9.5 1.5.5.7 0 1.2-.2 1.6-.5.3-.3.5-.7.5-1.2 0-.4-.1-.8-.4-1-.2-.3-.5-.5-1-.7l-1.5-.5c-.9-.2-1.6-.5-2.2-.8a4 4 0 01-1.5-1.1c-.4-.6-.6-1.3-.6-2.2a3.7 3.7 0 012.4-3.5c.7-.3 1.6-.5 2.6-.5 1.4 0 2.6.3 3.5 1a4 4 0 011.5 3h-3.1c0-.5-.3-.9-.6-1.2-.4-.3-1-.5-1.5-.5a2 2 0 00-1.4.4c-.3.3-.4.7-.4 1.2 0 .4 0 .7.3 1l1 .6 1.5.5 2.2.8c.6.3 1 .7 1.5 1.2.4.5.6 1.2.6 2.1a4 4 0 01-2.3 3.6 6 6 0 01-2.6.6zm19-14.1v14h-2.9v-6h-6v6h-2.8v-14h2.8v5.7h6v-5.7zm11.2 11.3h-5.5l-1 2.6h-2.9l5-14h3.3l5 14h-3zm-.7-2.3l-2-5.8-2 5.8zm14.4 5l-5.1-6.3v6.2h-2.8v-14h2.8v6.3l5-6.2h3.5l-5.8 7 6 7zm8.2-14v14h-2.8v-14zm14.7 14h-2.8l-6.4-9.6v9.5h-2.8v-14h2.8l6.4 9.7v-9.6h2.8zm12.4-9.8c-.3-.6-.7-1-1.3-1.4a4 4 0 00-2-.4c-.8 0-1.5.2-2.1.5-.7.4-1.2 1-1.5 1.6-.4.7-.6 1.5-.6 2.4 0 1 .2 1.8.6 2.5a4 4 0 001.5 1.6c.7.4 1.4.5 2.3.5 1 0 2-.2 2.6-.8a4 4 0 001.3-2.4h-4.8v-2.1h7.6v2.4a6.8 6.8 0 01-6.8 5.4c-1.4 0-2.6-.2-3.7-.8a6.8 6.8 0 01-3.5-6.3c0-1.3.4-2.6 1-3.6.6-1.1 1.4-2 2.5-2.6 1.1-.6 2.3-.9 3.7-.9 1.5 0 3 .4 4 1.2 1.2.7 2 1.8 2.5 3.2zm-72.8 31.7c0-1.3.3-2.6 1-3.6.6-1.1 1.4-2 2.5-2.6 1-.6 2.3-.9 3.6-.9a7 7 0 014.1 1.2c1.2.8 2 2 2.5 3.3h-3.2a5 5 0 00-1.4-1.5 4.2 4.2 0 00-4.2.1c-.6.4-1.1 1-1.5 1.6a6.2 6.2 0 000 4.9 4 4 0 001.5 1.6 4.3 4.3 0 004.2.1c.6-.4 1-.9 1.4-1.6h3.2a6.3 6.3 0 01-2.5 3.4 7.1 7.1 0 01-4 1.2c-1.4 0-2.6-.3-3.7-1a6.8 6.8 0 01-3.5-6.2zm27.6-7v14h-2.8v-5.9h-6v6h-2.7v-14h2.8v5.7h6v-5.7zm5.6 0v14h-2.8v-14zm5.6 11.8h4.6v2.2h-7.4v-14h2.8zm9.1 0h4.6v2.2h-7.4v-14h2.8zm11.2 2.4c-1 0-1.8-.2-2.6-.5s-1.4-.8-1.8-1.5c-.5-.6-.7-1.3-.7-2.2h3c0 .6.2 1 .6 1.4.3.3.8.5 1.5.5.6 0 1.2-.2 1.5-.5.4-.3.6-.7.6-1.2 0-.4-.1-.8-.4-1-.2-.3-.6-.5-1-.7l-1.5-.5c-1-.2-1.7-.5-2.2-.8-.6-.2-1-.6-1.5-1.1-.4-.6-.6-1.3-.6-2.2 0-.8.2-1.5.6-2.1.4-.6 1-1 1.8-1.4.7-.3 1.6-.5 2.5-.5 1.5 0 2.6.3 3.5 1 1 .7 1.4 1.7 1.5 3h-3c0-.5-.3-.9-.7-1.2-.3-.3-.8-.5-1.5-.5a2 2 0 00-1.3.4c-.3.3-.5.7-.5 1.2 0 .4.1.7.4 1l1 .6 1.5.5 2.2.8c.6.3 1 .7 1.5 1.2.4.5.6 1.2.6 2.1a4 4 0 01-.6 2c-.4.7-1 1.2-1.7 1.6-.7.4-1.6.6-2.7.6z"/><circle r="1" class="symptoms_marker"/></g><defs><linearGradient id="paint0_linear" x1="279.6" x2="343.9" y1="651.8" y2="780.2" gradientUnits="userSpaceOnUse"><stop id="stop215" stop-color="#FFC8C8"/><stop id="stop217" offset="1" stop-color="#FFF2F5"/></linearGradient><linearGradient id="paint1_linear" x1="911.2" x2="389.5" y1="248.5" y2="38.2" gradientUnits="userSpaceOnUse"><stop id="stop220" stop-color="#fff"/><stop id="stop222" offset="1" stop-color="#FFD5D5"/></linearGradient><linearGradient id="paint2_linear" x1="843.9" x2="682.9" y1="153.5" y2="127" gradientUnits="userSpaceOnUse"><stop id="stop225" stop-color="#FFD3D3"/><stop id="stop227" offset="1" stop-color="#FFF6F6"/></linearGradient><linearGradient id="paint3_linear" x1="205.4" x2="962.8" y1="428" y2="428" gradientUnits="userSpaceOnUse"><stop id="stop230" stop-color="#FFF8F5"/><stop id="stop232" offset="1" stop-color="#FFDEDE"/></linearGradient><linearGradient id="paint4_linear" x1="893" x2="694.6" y1="609.5" y2="627.8" gradientUnits="userSpaceOnUse"><stop id="stop235" stop-color="#FFC2C2"/><stop id="stop237" offset="1" stop-color="#fff"/></linearGradient></defs></svg>