<svg aria-hidden="true" focusable="false" xmlns="http://www.w3.org/2000/svg" viewBox="0 0 113 117"><path d="M109.299 55.616c-1.811-.054-3.375 1.368-3.818 3.323a66.414 66.414 0 01-9.533.072 68.578 68.578 0 01-5.572-.598 35.931 35.931 0 00-.325-5.983 17.256 17.256 0 013.34-2.052 17.265 17.265 0 016.197-1.595c.827 1.92 2.718 3.035 4.538 2.55 2.045-.548 3.213-2.913 2.61-5.286-.602-2.372-2.747-3.855-4.792-3.308-1.863.5-3 2.51-2.731 4.658-1.473.857-3.662 1.786-6.371 1.855a12.811 12.811 0 01-3.462-.386 35.272 35.272 0 00-2.572-7.182 36.274 36.274 0 014.164-3.33 36.238 36.238 0 016.58-3.578c1.293 1.547 3.356 2.063 4.945 1.119 1.826-1.08 2.344-3.683 1.152-5.806-1.196-2.125-3.653-2.967-5.479-1.883-1.592.94-2.185 3.028-1.53 4.95a37.03 37.03 0 01-11.134 6.094 34.91 34.91 0 00-4.217-5.78 25.998 25.998 0 013.406-7.597 25.253 25.253 0 015.05-5.588c1.717 1.092 3.877.922 5.107-.514 1.399-1.627 1.077-4.259-.718-5.879-1.792-1.623-4.38-1.62-5.772.007-1.236 1.437-1.133 3.65.144 5.267a24.878 24.878 0 01-4.773 5.84 24.242 24.242 0 01-6.843 4.348 33.968 33.968 0 00-6.998-4.255 16.094 16.094 0 011.477-3.096 15.966 15.966 0 011.6-2.145c1.911.795 4.043.222 5.005-1.445 1.083-1.86.293-4.388-1.764-5.64-2.054-1.253-4.595-.76-5.675 1.105-.946 1.638-.446 3.79 1.08 5.137a26.06 26.06 0 01-1.164 2.674 26.12 26.12 0 01-1.702 2.917 21.391 21.391 0 00-.761-.299 33.303 33.303 0 00-9.477-2.113 30.88 30.88 0 01-1.589-14.437c1.948-.383 3.409-1.953 3.409-3.833C60.33 1.757 58.392 0 56 0c-2.388 0-4.327 1.757-4.327 3.924 0 1.913 1.514 3.504 3.509 3.851.434 2.407.718 5.778.047 9.684a27.698 27.698 0 01-1.246 4.706c-3.174.184-6.23.813-9.118 1.826a13.569 13.569 0 01-1.083-2.151 15.341 15.341 0 01-1.027-4.36c1.867-.998 2.831-3.09 2.17-4.941-.722-2.036-3.131-3.004-5.376-2.163-2.244.841-3.477 3.173-2.753 5.209.624 1.757 2.503 2.715 4.451 2.405a25.29 25.29 0 011.542 4.15c.225.831.397 1.644.528 2.439a33.939 33.939 0 00-7.336 4.114 32.057 32.057 0 01-3.602-3.103 33.251 33.251 0 01-5.819-7.86c1.343-1.523 1.577-3.703.453-5.205-1.29-1.718-3.868-1.9-5.763-.405-1.894 1.495-2.388 4.1-1.098 5.817 1.136 1.519 3.284 1.835 5.072.857a25.789 25.789 0 017.536 12.585c-.362.341-.725.694-1.074 1.053a35.309 35.309 0 00-4.692 5.994c-.796-.236-1.62-.52-2.463-.869a25.543 25.543 0 01-6.42-3.84c.655-1.958.018-4.073-1.615-4.99-1.85-1.04-4.283-.142-5.431 2.008-1.15 2.15-.581 4.739 1.273 5.78 1.63.916 3.702.33 4.964-1.285a26.07 26.07 0 018.603 5.081 35.553 35.553 0 00-3.871 11.552 44.67 44.67 0 01-5.329.153 44.883 44.883 0 01-7.32-.839c-.05-2.162-1.46-3.972-3.374-4.178-2.098-.226-4.005 1.567-4.252 4.007-.253 2.438 1.252 4.599 3.35 4.825 1.87.2 3.58-1.199 4.11-3.228a48.018 48.018 0 0112.509 1.928 35.815 35.815 0 00-.112 2.85c0 2.28.209 4.51.615 6.672a28.143 28.143 0 01-7.533 3.624A27.844 27.844 0 017.36 68.9c-.72-1.923-2.516-3.122-4.336-2.762-2.072.411-3.39 2.696-2.934 5.103.453 2.409 2.5 4.027 4.576 3.616 1.792-.355 3.013-2.111 3.019-4.136a43.598 43.598 0 017.255-1.752c3.18-.482 6.03-.55 8.428-.444a35.338 35.338 0 003.977 8.353 22.726 22.726 0 01-2.644 1.856 22.304 22.304 0 01-5.27 2.282c-1.067-1.742-3.052-2.56-4.766-1.848-1.957.814-2.822 3.316-1.92 5.587.562 1.426 1.686 2.427 2.928 2.769.734.205 1.511.18 2.238-.123.219-.09.422-.201.609-.335 1.433-.97 2.038-2.984 1.433-4.906a32.052 32.052 0 015.225-2.208 31.693 31.693 0 013.665-.936 34.138 34.138 0 003.45 3.915c.118.114.234.23.352.337a29.216 29.216 0 01-4.011 6.628 28.773 28.773 0 01-5.441 5.199c-1.639-1.192-3.783-1.167-5.104.169-1.501 1.523-1.358 4.172.325 5.918 1.676 1.743 4.26 1.923 5.762.4 1.302-1.321 1.368-3.496.256-5.184a38.003 38.003 0 015.104-5.566 37.753 37.753 0 016.543-4.69 34.102 34.102 0 008.594 4.557 27.076 27.076 0 01-3.54 10.86c-1.98-.405-3.936.523-4.608 2.301-.761 2.02.428 4.375 2.657 5.26 2.229.887 4.654-.035 5.416-2.059.665-1.757-.15-3.766-1.839-4.838A38.308 38.308 0 0145.188 95a36.061 36.061 0 011.85-3.553 33.09 33.09 0 007.408 1.174 51.123 51.123 0 01.618 16.625c-1.941.386-3.39 1.955-3.39 3.83 0 2.166 1.939 3.924 4.33 3.924s4.327-1.758 4.327-3.924c0-1.868-1.443-3.435-3.372-3.827a59.098 59.098 0 01-.318-9.77c.128-2.485.403-4.778.752-6.851a33.079 33.079 0 007.735-1.228 27.487 27.487 0 013.084 8.255c-1.723 1.026-2.597 3.02-1.982 4.798.712 2.042 3.11 3.029 5.366 2.207 2.251-.824 3.5-3.146 2.791-5.188-.627-1.81-2.59-2.789-4.598-2.415a19.22 19.22 0 01-2.466-8.359 33.512 33.512 0 007.738-3.95 44.123 44.123 0 014.78 4.641 44.468 44.468 0 015.58 7.91c-1.32 1.519-1.55 3.682-.43 5.176 1.29 1.717 3.865 1.898 5.763.403 1.894-1.494 2.39-4.096 1.101-5.817-1.114-1.483-3.193-1.822-4.96-.918a53.283 53.283 0 01-9.333-13.28 34.564 34.564 0 002.753-2.538 34.707 34.707 0 003.896-4.77 39.578 39.578 0 017.22 2.854 39.55 39.55 0 016.318 4.04c-.643 1.922-.031 4.003 1.558 4.931 1.835 1.077 4.279.22 5.469-1.907 1.186-2.131.658-4.727-1.177-5.804-1.605-.94-3.677-.403-4.967 1.174a29.587 29.587 0 01-6.564-3.575 30.296 30.296 0 01-5.69-5.343 35.152 35.152 0 002.3-5.525 27.89 27.89 0 013.234.302 27.657 27.657 0 017.145 2.12c-.16 2.052.971 3.932 2.766 4.403 2.041.54 4.186-.947 4.782-3.323.593-2.376-.584-4.737-2.625-5.277-1.805-.475-3.681.62-4.508 2.509a25.316 25.316 0 01-10.133-3.07c.44-1.783.75-3.615.909-5.494a70.147 70.147 0 015.662-.245 68.821 68.821 0 019.512.63c.337 1.977 1.82 3.481 3.63 3.539 2.11.061 3.88-1.876 3.946-4.328.069-2.451-1.586-4.489-3.699-4.55z"/></svg>