<?xml version="1.0" encoding="UTF-8" standalone="no"?>
<svg
   xmlns:dc="http://purl.org/dc/elements/1.1/"
   xmlns:cc="http://creativecommons.org/ns#"
   xmlns:rdf="http://www.w3.org/1999/02/22-rdf-syntax-ns#"
   xmlns:svg="http://www.w3.org/2000/svg"
   xmlns="http://www.w3.org/2000/svg"
   viewBox="0 0 1200.6 1200.6"
   version="1.1"
   id="svg244"
   width="1200.6"
   height="1200.6">
  <metadata
     id="metadata250">
    <rdf:RDF>
      <cc:Work
         rdf:about="">
        <dc:format>image/svg+xml</dc:format>
        <dc:type
           rdf:resource="http://purl.org/dc/dcmitype/StillImage" />
        <dc:title></dc:title>
      </cc:Work>
    </rdf:RDF>
  </metadata>
  <defs
     id="defs248" />
  <g
     style="display:inline;mix-blend-mode:normal"
     id="layer2">
    <path
       d="m 140,0 h 920.6 c 77.56,0 140,62.44 140,140 v 920.6 c 0,77.56 -62.44,140 -140,140 H 140 c -77.56,0 -140,-62.44 -140,-140 V 140 C 0,62.44 62.44,0 140,0 Z"
       style="fill:#e2eff9;fill-rule:evenodd;fill-opacity:1"
       id="rect184" />
  </g>
  <g
     style="display:inline;mix-blend-mode:normal"
     id="layer1">
    <g
       transform="matrix(0.9328669,0,0,0.9328669,40.299988,40.299988)"
       fill="none"
       id="g242">
      <g
         id="g4961">
        <g
           id="g8"
           transform="translate(240.6,240.6)">
          <path
             d="M 240,120 A 120,120 0 0 1 120,240 120,120 0 0 1 0,120 120,120 0 0 1 120,0 120,120 0 0 1 240,120"
             style="fill:#d33367"
             id="circle2" />
          <path
             d="m 191,121 a 70,70 0 0 1 -70,70 70,70 0 0 1 -70,-70 70,70 0 0 1 70,-70 70,70 0 0 1 70,70"
             style="fill:#2d374c"
             id="circle4" />
          <path
             d="m 158,121 a 37,37 0 0 1 -37,37 37,37 0 0 1 -37,-37 37,37 0 0 1 37,-37 37,37 0 0 1 37,37"
             style="fill:#36868e"
             id="circle6" />
        </g>
        <g
           id="g16"
           transform="translate(720,240.6)">
          <path
             d="M 240,120 A 120,120 0 0 1 120,240 120,120 0 0 1 0,120 120,120 0 0 1 120,0 120,120 0 0 1 240,120"
             style="fill:#ff8b61"
             id="circle10" />
          <path
             d="m 191,121 a 70,70 0 0 1 -70,70 70,70 0 0 1 -70,-70 70,70 0 0 1 70,-70 70,70 0 0 1 70,70"
             style="fill:#2d374c"
             id="circle12" />
          <path
             d="m 158,121 a 37,37 0 0 1 -37,37 37,37 0 0 1 -37,-37 37,37 0 0 1 37,-37 37,37 0 0 1 37,37"
             style="fill:#f1e3cf"
             id="circle14" />
        </g>
        <path
           id="path26"
           d="m 1081.769,421.337 c 0,32.567 26.4,58.968 58.968,58.968 32.567,0 58.968,-26.4 58.968,-58.968 0,-32.567 -26.4,-58.968 -58.968,-58.968 -32.567,0 -58.968,26.4 -58.968,58.968 z"
           fill="#d33367" />
        <path
           id="path28"
           d="m 960.295,421.337 c 0,32.567 26.4,58.968 58.968,58.968 32.567,0 58.968,-26.4 58.968,-58.968 0,-32.567 -26.4,-58.968 -58.968,-58.968 -32.567,0 -58.968,26.4 -58.968,58.968 z m 121.474,-119.115 c 0,32.567 26.4,58.968 58.968,58.968 32.567,0 58.968,-26.401 58.968,-58.968 0,-32.568 -26.4,-58.968 -58.968,-58.968 -32.567,0 -58.968,26.4 -58.968,58.968 z"
           fill="#ff8b61" />
        <path
           id="path30"
           d="m 960,240.6 v 60.147 c 0,33.219 27.06,60.148 60.442,60.148 33.382,0 60.443,-26.93 60.443,-60.148 0,-33.218 -27.061,-60.147 -60.443,-60.147 z"
           fill="#36868e" />
        <path
           id="path42"
           d="m 1080,240.6 c 66.274,0 120,-53.726 120,-120 0,-66.274 -53.726,-120 -120,-120 H 960 v 120 c 0,66.274 53.726,120 120,120 z"
           fill="#f1e3cf" />
        <path
           id="path44"
           d="m 1031.759,144.118 c 39.631,0 71.759,-32.128 71.759,-71.76 0,-39.63 -32.128,-71.758 -71.76,-71.758 H 960 v 71.759 c 0,39.631 32.128,71.759 71.759,71.759 z"
           fill="#2d374c" />
        <path
           id="path46"
           d="m 1080,195.072 c 40.464,0 73.266,-32.802 73.266,-73.266 0,-40.464 -32.802,-73.266 -73.266,-73.266 -40.464,0 -73.266,32.802 -73.266,73.266 0,40.464 32.802,73.266 73.266,73.266 z"
           fill="#36868e" />
        <path
           id="path48"
           d="m 1080,164.695 c 23.687,0 42.89,-19.202 42.89,-42.889 0,-23.687 -19.203,-42.89 -42.89,-42.89 -23.687,0 -42.89,19.203 -42.89,42.89 0,23.687 19.203,42.89 42.89,42.89 z"
           fill="#2d374c" />
        <g
           id="g80"
           transform="translate(240,480.6)">
          <path
             d="M 221,120 A 101,101 0 0 1 120,221 101,101 0 0 1 19,120 101,101 0 0 1 120,19 101,101 0 0 1 221,120"
             style="fill:#f1e3cf"
             id="ellipse70" />
          <path
             id="path72"
             d="M 240,0 C 240,65.948 186.67,119.409 120.885,119.409 120.885,53.46 174.215,0 240,0 Z"
             fill="#d33367" />
          <path
             id="path74"
             d="m 119.115,115.93 v 3.479 h -3.469 C 51.776,119.409 0,67.505 0,3.478 V 0 h 3.47 c 63.869,0 115.645,51.904 115.645,115.93 z"
             fill="#36868e" />
          <path
             id="path76"
             d="m 115.646,120.591 h 3.47 v 3.478 C 119.115,188.096 67.338,240 3.468,240 H 0 v -3.478 c 0,-64.027 51.777,-115.93 115.646,-115.93 z"
             fill="#d33367" />
          <path
             id="path78"
             d="M 240,236.522 V 240 h -3.47 C 172.661,240 120.885,188.096 120.885,124.07 v -3.479 h 3.469 c 63.87,0 115.646,51.904 115.646,115.931 z"
             fill="#36868e" />
        </g>
        <g
           id="g92"
           transform="translate(960,480.6)">
          <path
             d="M 221,119 A 101,101 0 0 1 120,220 101,101 0 0 1 19,119 101,101 0 0 1 120,18 101,101 0 0 1 221,119"
             style="fill:#f1e3cf"
             id="circle82" />
          <path
             id="path84"
             d="M 116.505,240 C 52.16,240 0,187.839 0,123.495 V 120 H 3.495 C 67.84,120 120,172.161 120,236.505 V 240 Z"
             fill="#d33367" />
          <path
             id="path86"
             d="M 236.505,120 H 240 v 3.495 C 240,187.84 187.839,240 123.495,240 H 120 v -3.495 C 120,172.16 172.161,120 236.505,120 Z"
             fill="#36868e" />
          <path
             id="path88"
             d="M 123.495,120 H 120 v -3.495 C 120,52.16 172.161,0 236.505,0 H 240 V 3.495 C 240,67.84 187.839,120 123.495,120 Z"
             fill="#d33367" />
          <path
             id="path90"
             d="M 3.495,0 C 67.84,0 120,52.161 120,116.505 V 120 h -3.495 C 52.16,120 0,67.839 0,3.495 V 0 Z"
             fill="#36868e" />
        </g>
        <g
           id="g104"
           transform="rotate(90,-240.3,480.3)">
          <path
             d="M 221,119 A 101,101 0 0 1 120,220 101,101 0 0 1 19,119 101,101 0 0 1 120,18 101,101 0 0 1 221,119"
             style="fill:#f1e3cf"
             id="circle94" />
          <path
             id="path96"
             d="M 116.505,240 C 52.16,240 0,187.839 0,123.495 V 120 H 3.495 C 67.84,120 120,172.161 120,236.505 V 240 Z"
             fill="#d33367" />
          <path
             id="path98"
             d="M 236.505,120 H 240 v 3.495 C 240,187.84 187.839,240 123.495,240 H 120 v -3.495 C 120,172.16 172.161,120 236.505,120 Z"
             fill="#36868e" />
          <path
             id="path100"
             d="M 123.495,120 H 120 v -3.495 C 120,52.16 172.161,0 236.505,0 H 240 V 3.495 C 240,67.84 187.839,120 123.495,120 Z"
             fill="#d33367" />
          <path
             id="path102"
             d="M 3.495,0 C 67.84,0 120,52.161 120,116.505 V 120 h -3.495 C 52.16,120 0,67.839 0,3.495 V 0 Z"
             fill="#36868e" />
        </g>
        <path
           id="path106"
           d="m 720,0.6 v 240 H 480 C 480,108.052 587.452,0.6 720,0.6 Z"
           fill="#d33367" />
        <path
           id="path108"
           d="M 720,104.384 V 240.6 H 583.448 c 0,-75.23 61.137,-136.216 136.552,-136.216 z"
           fill="#f1e3cf" />
        <path
           id="path110"
           d="M 720,178.094 V 240.6 h -62.66 c 0,-34.521 28.054,-62.506 62.66,-62.506 z"
           fill="#2d374c" />
        <path
           id="path118"
           d="m 0,720.6 v -240 h 240 c 0,132.548 -107.452,240 -240,240 z"
           fill="#36868e" />
        <path
           id="path120"
           d="M 0,617.152 V 480.6 H 136.216 C 136.216,556.015 75.23,617.152 0,617.152 Z"
           fill="#f1e3cf" />
        <path
           id="path122"
           d="M 0,543.26 V 480.6 h 62.506 c 0,34.606 -27.985,62.66 -62.506,62.66 z"
           fill="#2d374c" />
        <path
           id="path130"
           d="m 120.6,0.6 c 66.274,0 120,53.726 120,120 0,66.274 -53.726,120 -120,120 -66.274,0 -120,-53.726 -120,-120 0,-66.274 53.726,-120 120,-120 z"
           fill="#36868e" />
        <path
           id="path132"
           d="m 121.19,48.954 c 39.894,0 72.236,32.34 72.236,72.236 0,39.894 -32.342,72.236 -72.236,72.236 -39.895,0 -72.236,-32.342 -72.236,-72.236 0,-39.895 32.34,-72.236 72.236,-72.236 z"
           fill="#f1e3cf" />
        <path
           id="path134"
           d="m 122.369,83.745 c 21.332,0 38.624,17.293 38.624,38.624 0,21.332 -17.292,38.624 -38.624,38.624 -21.331,0 -38.624,-17.292 -38.624,-38.624 0,-21.331 17.293,-38.624 38.624,-38.624 z"
           fill="#2d374c" />
        <path
           id="path136"
           d="M 240.6,94.949 V 240.6 H 94.949 c 0,-80.44 65.21,-145.651 145.651,-145.651 z"
           fill="#d33367" />
        <path
           id="path146"
           d="M 299.568,117.936 C 267.001,117.936 240.6,91.536 240.6,58.968 240.6,26.401 267,0 299.568,0 c 32.567,0 58.968,26.4 58.968,58.968 0,32.567 -26.4,58.968 -58.968,58.968 z"
           fill="#ff8b61" />
        <path
           id="path148"
           d="m 299.568,240 c -32.567,0 -58.968,-26.4 -58.968,-58.968 0,-32.567 26.4,-58.968 58.968,-58.968 32.567,0 58.968,26.4 58.968,58.968 0,32.567 -26.4,58.968 -58.968,58.968 z M 419.273,117.936 c -32.567,0 -58.968,-26.4 -58.968,-58.968 C 360.305,26.401 386.706,0 419.273,0 c 32.567,0 58.968,26.4 58.968,58.968 0,32.567 -26.4,58.968 -58.968,58.968 z"
           fill="#d33367" />
        <path
           id="path150"
           d="m 480.6,240 h -60.442 c -33.382,0 -60.443,-27.06 -60.443,-60.442 0,-33.382 27.061,-60.443 60.443,-60.443 33.381,0 60.442,27.061 60.442,60.443 z"
           fill="#36868e" />
        <path
           id="path152"
           d="m 601.769,779.863 c 0,-32.567 26.4,-58.968 58.968,-58.968 32.567,0 58.968,26.4 58.968,58.968 0,32.567 -26.4,58.968 -58.968,58.968 -32.567,0 -58.968,-26.4 -58.968,-58.968 z"
           fill="#d33367" />
        <path
           id="path154"
           d="m 480.295,779.863 c 0,-32.567 26.4,-58.968 58.968,-58.968 32.567,0 58.968,26.4 58.968,58.968 0,32.567 -26.4,58.968 -58.968,58.968 -32.567,0 -58.968,-26.4 -58.968,-58.968 z m 121.474,119.115 c 0,-32.567 26.4,-58.968 58.968,-58.968 32.567,0 58.968,26.401 58.968,58.968 0,32.568 -26.4,58.968 -58.968,58.968 -32.567,0 -58.968,-26.4 -58.968,-58.968 z"
           fill="#ff8b61" />
        <path
           id="path156"
           d="m 480,960.6 v -60.147 c 0,-33.219 27.06,-60.148 60.442,-60.148 33.382,0 60.443,26.93 60.443,60.148 0,33.218 -27.061,60.147 -60.443,60.147 z"
           fill="#36868e" />
        <path
           id="path158"
           d="M 58.968,1078.536 C 26.401,1078.536 0,1052.136 0,1019.568 0,987.001 26.4,960.6 58.968,960.6 c 32.567,0 58.968,26.4 58.968,58.968 0,32.567 -26.4,58.968 -58.968,58.968 z"
           fill="#d33367" />
        <path
           id="path160"
           d="M 58.968,1200.6 C 26.401,1200.6 0,1174.2 0,1141.632 c 0,-32.567 26.4,-58.968 58.968,-58.968 32.567,0 58.968,26.4 58.968,58.968 0,32.567 -26.4,58.968 -58.968,58.968 z m 119.705,-122.064 c -32.567,0 -58.968,-26.4 -58.968,-58.968 0,-32.567 26.401,-58.968 58.968,-58.968 32.567,0 58.968,26.4 58.968,58.968 0,32.567 -26.4,58.968 -58.968,58.968 z"
           fill="#ff8b61" />
        <path
           id="path162"
           d="m 240,1200.6 h -60.442 c -33.382,0 -60.443,-27.06 -60.443,-60.442 0,-33.382 27.061,-60.443 60.443,-60.443 33.381,0 60.442,27.061 60.442,60.443 z"
           fill="#36868e" />
        <path
           id="path164"
           d="m 901.2,901.8 h -123 v -123 h 123 z"
           fill="#f1e3cf" />
        <path
           id="path166"
           d="m 839.397,893.459 -53.033,-53.033 53.033,-53.034 53.033,53.034 z"
           fill="#36868e" />
        <path
           id="path168"
           d="m 937.002,937.602 h -72.53 c 0,-40.057 32.473,-72.53 72.53,-72.53 z m 0,-194.004 v 72.53 c -40.057,0 -72.53,-32.473 -72.53,-72.53 z m -192.235,0 h 72.53 c 0,40.057 -32.473,72.53 -72.53,72.53 z m 0,194.004 v -72.53 c 40.057,0 72.53,32.473 72.53,72.53 z"
           fill="#d33367" />
        <path
           id="path170"
           d="m 120.753,446.468 -85.56,-85.56 85.56,-85.56 85.56,85.56 z"
           fill="#ff8b61" />
        <path
           id="path172"
           d="m 120.753,404.042 -43.133,-43.134 43.133,-43.133 43.134,43.133 z M 828.2,110.6 h -75 v -75 h 75 z m 0,94 h -75 v -75 h 75 z m 97,-94 h -75 v -75 h 75 z m 0,94 h -75 v -75 h 75 z"
           fill="#f1e3cf" />
        <path
           id="path174"
           d="m 808.2,89.6 h -35 v -35 h 35 z m 0,94 h -35 v -35 h 35 z m 96,-94 h -35 v -35 h 35 z m 0,94 h -35 v -35 h 35 z m -302.847,502.869 -85.56,-85.56 85.56,-85.56 85.56,85.56 z"
           fill="#2d374c" />
        <path
           id="path176"
           d="m 632,631.4 h -61 v -61 h 61 z"
           fill="#36868e" />
        <path
           id="path178"
           d="m 600,960.6 c 66.274,0 120,53.726 120,120 0,66.274 -53.726,120 -120,120 H 480 v -120 c 0,-66.274 53.726,-120 120,-120 z"
           fill="#f1e3cf" />
        <path
           id="path180"
           d="m 551.759,1057.082 c 39.631,0 71.759,32.128 71.759,71.76 0,39.63 -32.128,71.758 -71.76,71.758 H 480 v -71.759 c 0,-39.631 32.128,-71.759 71.759,-71.759 z"
           fill="#2d374c" />
        <path
           id="path182"
           d="m 600,1006.128 c 40.464,0 73.266,32.802 73.266,73.266 0,40.464 -32.802,73.266 -73.266,73.266 -40.464,0 -73.266,-32.802 -73.266,-73.266 0,-40.464 32.802,-73.266 73.266,-73.266 z"
           fill="#36868e" />
        <path
           id="path184"
           d="m 600,1036.505 c 23.687,0 42.89,19.202 42.89,42.889 0,23.687 -19.203,42.89 -42.89,42.89 -23.687,0 -42.89,-19.203 -42.89,-42.89 0,-23.687 19.203,-42.89 42.89,-42.89 z"
           fill="#2d374c" />
        <path
           id="path186"
           d="m 360,720.6 h 120 v 120 c 0,66.274 -53.726,120 -120,120 H 240 v -120 c 0,-66.274 53.726,-120 120,-120 z"
           fill="#36868e" />
        <path
           id="path188"
           d="m 360,772.46 c 38.965,0 70.553,31.587 70.553,70.552 0,38.965 -31.588,70.553 -70.553,70.553 h -70.553 v -70.553 c 0,-38.965 31.588,-70.553 70.553,-70.553 z"
           fill="#2d374c" />
        <path
           id="path190"
           d="m 432.603,720.6 h 48 v 48 c 0,39.765 -32.235,72 -72,72 h -48 v -48 c 0,-39.765 32.236,-72 72,-72 z"
           fill="#f1e3cf" />
        <path
           id="path192"
           d="M 720,1079.997 V 960.6 H 839.397 C 906.004,960.6 960,1014.596 960,1081.203 V 1200.6 H 840.603 C 773.996,1200.6 720,1146.604 720,1079.997 Z"
           fill="#36868e" />
        <path
           id="path194"
           d="m 771.86,1080.6 c 0,-38.965 31.587,-70.553 70.552,-70.553 38.965,0 70.553,31.588 70.553,70.553 v 70.553 h -70.553 c -38.965,0 -70.553,-31.588 -70.553,-70.553 z"
           fill="#2d374c" />
        <path
           id="path196"
           d="m 720,1007.997 v -48 h 48 c 39.765,0 72,32.235 72,72 v 48 h -48 c -39.765,0 -72,-32.236 -72,-72 z"
           fill="#ff8b61" />
        <path
           id="path198"
           d="m 840,720.6 c -66.274,0 -120,-53.726 -120,-120 0,-66.274 53.726,-120 120,-120 h 120 v 120 c 0,66.274 -53.726,120 -120,120 z"
           fill="#f1e3cf" />
        <path
           id="path200"
           d="m 888.241,624.118 c -39.631,0 -71.759,-32.128 -71.759,-71.76 0,-39.63 32.128,-71.758 71.76,-71.758 H 960 v 71.759 c 0,39.631 -32.128,71.759 -71.759,71.759 z"
           fill="#d33367" />
        <path
           id="path202"
           d="m 840,675.072 c -40.464,0 -73.266,-32.802 -73.266,-73.266 0,-40.464 32.802,-73.266 73.266,-73.266 40.464,0 73.266,32.802 73.266,73.266 0,40.464 -32.802,73.266 -73.266,73.266 z"
           fill="#36868e" />
        <path
           id="path204"
           d="m 840,644.695 c -23.687,0 -42.89,-19.202 -42.89,-42.889 0,-23.687 19.203,-42.89 42.89,-42.89 23.687,0 42.89,19.203 42.89,42.89 0,23.687 -19.203,42.89 -42.89,42.89 z"
           fill="#2d374c" />
        <g
           id="g216"
           transform="translate(1440,240.6)" />
        <path
           id="path218"
           d="m 661,240.6 -61,61 -61,-61 z"
           fill="#ff8b61" />
        <path
           id="path220"
           d="M 720,480.6 H 480 l 240,-240 z"
           fill="#36868e" />
        <path
           id="path222"
           d="M 720,480.6 H 480 v -240 z"
           fill="#f1e3cf" />
        <path
           id="path224"
           d="m 299,1200.6 61,-61 61,61 z"
           fill="#36868e" />
        <path
           id="path226"
           d="m 240,960.6 h 240 l -240,240 z"
           fill="#f1e3cf" />
        <path
           id="path228"
           d="m 240,960.6 h 240 v 240 z"
           fill="#d33367" />
        <path
           id="path230"
           d="m 1019.6,961 61,-61 61,61 z"
           fill="#ff8b61" />
        <path
           id="path232"
           d="m 960.6,720.6 h 240 l -240,240 z"
           fill="#36868e" />
        <path
           id="path234"
           d="m 960.6,720.6 h 240 v 240 z"
           fill="#f1e3cf" />
        <path
           id="path236"
           d="m 1141.6,960.6 -61,61 -61,-61 z"
           fill="#ff8b61" />
        <path
           id="path238"
           d="m 1200.6,1200.6 h -240 l 240,-240 z"
           fill="#36868e" />
        <path
           id="path240"
           d="m 1200.6,1200.6 h -240 v -240 z"
           fill="#f1e3cf" />
      </g>
    </g>
  </g>
</svg>
